<?xml version="1.0" encoding="UTF-8" standalone="no"?>
<!-- Created with Inkscape (http://www.inkscape.org/) -->

<svg
   xmlns:dc="http://purl.org/dc/elements/1.1/"
   xmlns:cc="http://creativecommons.org/ns#"
   xmlns:rdf="http://www.w3.org/1999/02/22-rdf-syntax-ns#"
   xmlns:svg="http://www.w3.org/2000/svg"
   xmlns="http://www.w3.org/2000/svg"
   xmlns:sodipodi="http://sodipodi.sourceforge.net/DTD/sodipodi-0.dtd"
   xmlns:inkscape="http://www.inkscape.org/namespaces/inkscape"
   id="svg3384"
   version="1.1"
   inkscape:version="0.91 r13725"
   xml:space="preserve"
   width="562.5"
   height="150"
   viewBox="0 0 562.5 150"
   sodipodi:docname="logo-index9+.svg"><metadata
     id="metadata3390"><rdf:RDF><cc:Work
         rdf:about=""><dc:format>image/svg+xml</dc:format><dc:type
           rdf:resource="http://purl.org/dc/dcmitype/StillImage" /><dc:title></dc:title></cc:Work></rdf:RDF></metadata><defs
     id="defs3388"><clipPath
       clipPathUnits="userSpaceOnUse"
       id="clipPath3398"><path
         d="M 0,120 450,120 450,0 0,0 0,120 Z"
         id="path3400"
         inkscape:connector-curvature="0" /></clipPath></defs><sodipodi:namedview
     pagecolor="#ffffff"
     bordercolor="#666666"
     borderopacity="1"
     objecttolerance="10"
     gridtolerance="10"
     guidetolerance="10"
     inkscape:pageopacity="0"
     inkscape:pageshadow="2"
     inkscape:window-width="640"
     inkscape:window-height="480"
     id="namedview3386"
     showgrid="false"
     inkscape:zoom="0.57244444"
     inkscape:cx="281.25"
     inkscape:cy="75"
     inkscape:window-x="0"
     inkscape:window-y="0"
     inkscape:window-maximized="0"
     inkscape:current-layer="g3392" /><g
     id="g3392"
     inkscape:groupmode="layer"
     inkscape:label="Asset 2++"
     transform="matrix(1.25,0,0,-1.25,0,150)"><g
       id="g3375"><g
         transform="translate(112.1602,65.21)"
         id="g3402"><path
           inkscape:connector-curvature="0"
           id="path3404"
           style="fill:#51cdeb;fill-opacity:1;fill-rule:nonzero;stroke:none"
           d="m 0,0 3.66,0 c 0,0 2.31,0.58 2.31,2.51 l 0,11.79 c 0,0 0.2,2.52 -2.89,2.52 l -22.74,0 10,-10 L -12.59,3.65 -25.16,16.79 -25.16,0 0,0 Z" /></g><g
         transform="translate(57.3398,65.21)"
         id="g3406"><path
           inkscape:connector-curvature="0"
           id="path3408"
           style="fill:#51cdeb;fill-opacity:1;fill-rule:nonzero;stroke:none"
           d="m 0,0 -3.66,0 c 0,0 -2.32,0.58 -2.32,2.51 l 0,11.79 c 0,0 -0.19,2.49 2.89,2.49 l 22.75,0 L 9.4,6.59 12.58,3.66 25.15,16.79 25.15,0 0,0 Z" /></g><g
         transform="translate(57.21,61.2402)"
         id="g3410"><path
           inkscape:connector-curvature="0"
           id="path3412"
           style="fill:#51cdeb;fill-opacity:1;fill-rule:nonzero;stroke:none"
           d="m 0,0 25.35,0 0,-29.48 -23.42,0 c -1.213,0.32 -2.024,1.459 -1.93,2.709 L 0,0 Z" /></g><g
         transform="translate(112.3501,61.2402)"
         id="g3414"><path
           inkscape:connector-curvature="0"
           id="path3416"
           style="fill:#51cdeb;fill-opacity:1;fill-rule:nonzero;stroke:none"
           d="m 0,0 -25.35,0 0,-29.48 23.42,0 c 1.213,0.32 2.024,1.459 1.93,2.709 L 0,0 Z" /></g><g
         transform="translate(80.73,90.8901)"
         id="g3418"><path
           inkscape:connector-curvature="0"
           id="path3420"
           style="fill:#51cdeb;fill-opacity:1;fill-rule:nonzero;stroke:none"
           d="m 0,0 -6,7.49 c 0,0 -4.53,3.14 -6.56,-1.3 C -14.59,1.75 -9.67,0 -9.67,0 L 0,0 Z m 1.64,-5.22 -12.43,0 c 0,0 -7.71,1.26 -7.71,10.44 0,4.89 5.59,8.89 9.63,8.89 5.4,0 10.51,-9.66 10.51,-9.66 l 0,-9.67 z" /></g><g
         transform="translate(88.8301,90.8901)"
         id="g3422"><path
           inkscape:connector-curvature="0"
           id="path3424"
           style="fill:#51cdeb;fill-opacity:1;fill-rule:nonzero;stroke:none"
           d="m 0,0 6,7.24 c 0,0 4.53,3.39 6.55,-1 C 14.57,1.85 9.66,0.05 9.66,0.05 L 0,0 Z m -1.83,-5.22 12.63,0 c 0,0 7.71,1.26 7.71,10.44 0,4.89 -5.59,8.89 -9.64,8.89 -5.4,0 -10.7,-9.86 -10.7,-9.86 l 0,-9.47 z" /></g><g
         transform="translate(48.1499,79.5801)"
         id="g3426"><path
           inkscape:connector-curvature="0"
           id="path3428"
           style="fill:#51cdeb;fill-opacity:1;fill-rule:nonzero;stroke:none"
           d="m 0,0 -24.1,0 c 0,0 -6.74,0.78 -6.74,-5.58 l 0,-34.441 c 0,0 1,-5.219 5.2,-5.219 l 31.23,0.2 0,5.41 c 0,-0.19 -28.34,0 -28.34,0 0,0 -2.5,-0.19 -2.5,1.93 0,0 -0.39,17.21 0,17.21 l 30.84,0 0,1.66 c 0,0 -3.34,0.53 -4.74,2.75 -0.86,1.41 -0.7,5.55 -0.7,5.55 l -25.4,0 0,2.8 c 0,0 0.38,2.15 2.1,2.15 L 0,-5.58 0,0 Z" /></g><path
         inkscape:connector-curvature="0"
         id="path3430"
         style="fill:#51cdeb;fill-opacity:1;fill-rule:nonzero;stroke:none"
         d="m 26.32,48.65 4.43,0 0,-4.45 -4.43,0 0,4.45 z" /><path
         inkscape:connector-curvature="0"
         id="path3432"
         style="fill:#51cdeb;fill-opacity:1;fill-rule:nonzero;stroke:none"
         d="m 33.78,48.65 4.44,0 0,-4.45 -4.44,0 0,4.45 z" /><path
         inkscape:connector-curvature="0"
         id="path3434"
         style="fill:#51cdeb;fill-opacity:1;fill-rule:nonzero;stroke:none"
         d="m 41.44,48.65 4.44,0 0,-4.45 -4.44,0 0,4.45 z" /><path
         inkscape:connector-curvature="0"
         id="path3436"
         style="fill:#51cdeb;fill-opacity:1;fill-rule:nonzero;stroke:none"
         d="m 49.1,48.65 4.44,0 0,-4.45 -4.44,0 0,4.45 z" /><g
         transform="translate(40.73,24.3799)"
         id="g3438"><path
           inkscape:connector-curvature="0"
           id="path3440"
           style="fill:#51cdeb;fill-opacity:1;fill-rule:nonzero;stroke:none"
           d="M 0,0 C 0,0 -1.37,0.101 -1.37,-1.17 -1.37,-2.439 0,-2.46 0,-2.46 l 16.72,0 18.65,5.92 c 0,0 4.28,1.4 5.58,-1.53 1.72,-3.869 -2.61,-7.159 -2.61,-7.159 l -19.17,-7 -34.66,0 -3.48,-2.261 c 0,0 -2.62,-1 -7,1.65 -1.92,1.189 -3.547,2.795 -4.76,4.7 l 14,14 28.53,0 C 13.424,5.392 14.36,3.695 13.892,2.071 13.6,1.062 12.81,0.271 11.8,-0.02 L 0,0 Z" /></g><g
         transform="translate(166.4302,66.3799)"
         id="g3442"><path
           inkscape:connector-curvature="0"
           id="path3444"
           style="fill:#51cdeb;fill-opacity:1;fill-rule:nonzero;stroke:none"
           d="m 0,0 1.72,0 0,-37.13 -1,0 0,35.83 -15.91,-35.83 -1.14,0 -15.76,35.83 -0.1,-35.83 -1,0 0,37.13 1.71,0 15.64,-35.78 L 0,0 Z" /></g><g
         transform="translate(199.29,29.25)"
         id="g3446"><path
           inkscape:connector-curvature="0"
           id="path3448"
           style="fill:#51cdeb;fill-opacity:1;fill-rule:nonzero;stroke:none"
           d="m 0,0 -1,0 0,6.6 C -1.531,4.528 -2.716,2.684 -4.38,1.34 c -1.815,-1.387 -4.058,-2.094 -6.34,-2 -2.543,-0.111 -5.024,0.8 -6.89,2.53 -1.849,1.883 -2.821,4.455 -2.68,7.09 l 0,17.79 1,0 0,-17.63 c 0,-2.88 0.807,-5.06 2.42,-6.54 3.954,-3.301 9.817,-2.857 13.23,1 1.747,2.293 2.648,5.119 2.55,8 l 0,15.17 1,0 L 0,0 Z" /></g><path
         inkscape:connector-curvature="0"
         id="path3450"
         style="fill:#51cdeb;fill-opacity:1;fill-rule:nonzero;stroke:none"
         d="m 210.21,66.38 1,0 0,-37.13 -1,0 0,37.13 z" /><g
         transform="translate(225,54.9404)"
         id="g3452"><path
           inkscape:connector-curvature="0"
           id="path3454"
           style="fill:#51cdeb;fill-opacity:1;fill-rule:nonzero;stroke:none"
           d="m 0,0 0,-20.49 c 0,-1.767 0.333,-2.904 1,-3.41 0.767,-0.54 1.693,-0.805 2.63,-0.75 0.766,-0.037 1.536,0.016 2.29,0.16 l 0,-1 c -0.24,0 -0.63,-0.028 -1.17,-0.08 -0.54,-0.054 -1,-0.08 -1.38,-0.08 -1.18,-0.073 -2.34,0.331 -3.22,1.12 -0.766,0.713 -1.15,1.99 -1.15,3.83 l 0,20.7 -5,0 0,1.06 5,0 0,8.399 1,0 0,-8.399 6,0 0,-1 L 0,0 Z" /></g><path
         inkscape:connector-curvature="0"
         id="path3456"
         style="fill:#51cdeb;fill-opacity:1;fill-rule:nonzero;stroke:none"
         d="m 240.94,29.24 -1,0 0,26.76 1,0 0,-26.76 z m 0,31.88 -1,0 0,5.26 1,0 0,-5.26 z" /><g
         transform="translate(252.8496,47.71)"
         id="g3458"><path
           inkscape:connector-curvature="0"
           id="path3460"
           style="fill:#51cdeb;fill-opacity:1;fill-rule:nonzero;stroke:none"
           d="m 0,0 13.881,0 c 2.692,-0.103 5.341,0.704 7.519,2.29 2,1.54 3,3.854 3,6.94 0.151,2.326 -0.735,4.599 -2.42,6.21 -1.613,1.44 -4.153,2.16 -7.62,2.16 l -14.4,0 L 0,0 Z m 0,-18.46 -1,0 0,37.13 15.15,0 c 7.56,0 11.34,-3.173 11.34,-9.52 0.072,-2.247 -0.654,-4.447 -2.05,-6.21 -1.516,-1.77 -3.603,-2.955 -5.9,-3.35 2.947,-0.453 4.907,-1.484 5.88,-3.09 0.974,-1.606 1.461,-4.043 1.461,-7.31 0,-1.627 0.059,-3.176 0.18,-4.65 0.005,-1.04 0.245,-2.065 0.7,-3 l -1.141,0 c -0.349,1.051 -0.551,2.145 -0.599,3.25 -0.121,1.474 -0.18,2.99 -0.18,4.55 0,3.334 -0.641,5.777 -1.921,7.33 -1.279,1.554 -3.913,2.316 -7.899,2.29 l -14,0 L 0,-18.46 Z" /></g><g
         transform="translate(309.6299,43.46)"
         id="g3462"><path
           inkscape:connector-curvature="0"
           id="path3464"
           style="fill:#51cdeb;fill-opacity:1;fill-rule:nonzero;stroke:none"
           d="m 0,0 c 0.12,3.117 -0.856,6.178 -2.76,8.65 -1.91,2.314 -4.804,3.582 -7.8,3.42 -2.896,0.038 -5.67,-1.167 -7.62,-3.31 -2.166,-2.385 -3.299,-5.531 -3.15,-8.75 L 0,0 Z m -21.32,-1 c 0,-3.913 0.85,-7.033 2.55,-9.36 1.7,-2.327 4.367,-3.49 8,-3.49 2.536,-0.095 5.02,0.724 7,2.31 1.941,1.7 3.175,4.065 3.46,6.63 l 1,0 c -0.227,-2.813 -1.544,-5.425 -3.669,-7.28 -2.135,-1.805 -4.857,-2.766 -7.651,-2.7 -3.953,0 -6.89,1.277 -8.809,3.83 -1.921,2.553 -2.884,5.95 -2.891,10.19 0,4.273 1.143,7.677 3.431,10.21 2.057,2.429 5.086,3.82 8.269,3.8 3.88,0 6.8,-1.357 8.76,-4.07 C 0.164,6.111 1.195,2.578 1.07,-1.01 L -21.32,-1 Z" /></g><g
         transform="translate(352.1201,56)"
         id="g3466"><path
           inkscape:connector-curvature="0"
           id="path3468"
           style="fill:#51cdeb;fill-opacity:1;fill-rule:nonzero;stroke:none"
           d="m 0,0 1.09,0 -8.53,-26.73 -1.35,0 -8.33,25.67 -8.481,-25.69 -1.46,0 L -35.36,0 -34.28,0 -26.34,-25.69 -17.98,0 -16.36,0 -8.2,-25.53 0,0 Z" /></g><g
         transform="translate(378.7998,44.9502)"
         id="g3470"><path
           inkscape:connector-curvature="0"
           id="path3472"
           style="fill:#51cdeb;fill-opacity:1;fill-rule:nonzero;stroke:none"
           d="m 0,0 c -0.775,-0.843 -1.811,-1.401 -2.939,-1.59 -2.477,-0.453 -4.995,-0.638 -7.511,-0.551 -2.104,0.117 -4.195,-0.403 -6,-1.489 -1.473,-0.993 -2.21,-2.83 -2.21,-5.511 -0.029,-1.663 0.646,-3.261 1.86,-4.399 1.247,-1.2 3.224,-1.8 5.93,-1.8 5.657,-0.332 10.512,3.985 10.844,9.641 0.014,0.25 0.02,0.499 0.016,0.749 L 0,0 Z m -18,2.76 c -0.086,2.428 0.894,4.773 2.681,6.42 1.786,1.646 4.289,2.47 7.509,2.47 2.267,0.105 4.509,-0.514 6.4,-1.77 C 0.217,8.7 1.03,6.74 1.03,4 l 0,-16.95 c -0.057,-0.533 0.17,-1.059 0.6,-1.38 0.462,-0.276 0.993,-0.412 1.53,-0.39 l 1.25,0 0,-0.94 -0.78,0 c -1.026,-0.121 -2.061,0.108 -2.94,0.65 -0.514,0.531 -0.77,1.263 -0.7,2 l 0,3.39 c -0.719,-1.973 -2.074,-3.651 -3.849,-4.771 -2.028,-1.355 -4.423,-2.053 -6.861,-2 -2.315,-0.116 -4.603,0.546 -6.5,1.881 -1.643,1.282 -2.554,3.288 -2.44,5.369 0,2.995 0.867,5.08 2.6,6.261 1.969,1.247 4.271,1.864 6.6,1.77 4.054,0 6.811,0.243 8.271,0.73 1.46,0.486 2.186,1.683 2.179,3.59 0.084,1.893 -0.445,3.763 -1.51,5.33 -1.006,1.366 -3.103,2.05 -6.29,2.05 -2.399,0.131 -4.767,-0.596 -6.68,-2.05 -1.681,-1.444 -2.594,-3.588 -2.47,-5.8 L -18,2.76 Z" /></g><g
         transform="translate(392.0996,29.25)"
         id="g3474"><path
           inkscape:connector-curvature="0"
           id="path3476"
           style="fill:#51cdeb;fill-opacity:1;fill-rule:nonzero;stroke:none"
           d="m 0,0 -1,0 0,26.75 1,0 0,-6.6 c 0.528,2.09 1.748,3.94 3.46,5.25 2.097,1.439 4.611,2.142 7.15,2 l 0,-1 c -3.466,0 -6.099,-1.067 -7.9,-3.2 -1.844,-2.249 -2.804,-5.094 -2.699,-8 L 0,0 Z" /></g><g
         transform="translate(419.71,55.5596)"
         id="g3478"><path
           inkscape:connector-curvature="0"
           id="path3480"
           style="fill:#51cdeb;fill-opacity:1;fill-rule:nonzero;stroke:none"
           d="m 0,0 c -3.081,0.154 -6.014,-1.333 -7.71,-3.909 -1.779,-2.704 -2.696,-5.885 -2.63,-9.12 -0.112,-3.275 0.827,-6.498 2.68,-9.2 1.752,-2.472 4.644,-3.878 7.67,-3.731 3.08,-0.103 6.018,1.295 7.88,3.75 2.002,2.63 3.04,5.867 2.94,9.17 0,4.101 -0.97,7.297 -2.91,9.591 C 5.955,-1.138 3.031,0.136 0,0 m 10.82,10.82 1,0 0,-37.13 -1,0 0,7.491 c -0.696,-2.334 -2.092,-4.398 -4,-5.91 -1.95,-1.521 -4.368,-2.317 -6.84,-2.25 -3.233,-0.115 -6.322,1.342 -8.29,3.91 -2.155,2.895 -3.246,6.444 -3.09,10.049 -0.13,3.574 0.924,7.089 3,10 1.932,2.662 5.064,4.184 8.35,4.061 2.494,0.089 4.945,-0.681 6.94,-2.181 1.883,-1.501 3.211,-3.588 3.77,-5.929 l 0.16,17.889 z" /></g></g></g></svg>