<?xml version="1.0" encoding="UTF-8" standalone="no"?>
<!-- Created with Inkscape (http://www.inkscape.org/) -->

<svg
   xmlns:dc="http://purl.org/dc/elements/1.1/"
   xmlns:cc="http://creativecommons.org/ns#"
   xmlns:rdf="http://www.w3.org/1999/02/22-rdf-syntax-ns#"
   xmlns:svg="http://www.w3.org/2000/svg"
   xmlns="http://www.w3.org/2000/svg"
   xmlns:sodipodi="http://sodipodi.sourceforge.net/DTD/sodipodi-0.dtd"
   xmlns:inkscape="http://www.inkscape.org/namespaces/inkscape"
   width="480"
   height="480"
   viewBox="0 0 480.00001 480.00001"
   id="svg2"
   version="1.1"
   inkscape:version="0.91 r13725"
   sodipodi:docname="480x480.svg">
  <defs
     id="defs4" />
  <sodipodi:namedview
     id="base"
     pagecolor="#ffffff"
     bordercolor="#666666"
     borderopacity="1.0"
     inkscape:pageopacity="0.0"
     inkscape:pageshadow="2"
     inkscape:zoom="1.1561724"
     inkscape:cx="246.18116"
     inkscape:cy="243.43065"
     inkscape:document-units="px"
     inkscape:current-layer="layer1"
     showgrid="false"
     units="px"
     fit-margin-top="0"
     fit-margin-left="0"
     fit-margin-right="0"
     fit-margin-bottom="0"
     inkscape:window-width="747"
     inkscape:window-height="776"
     inkscape:window-x="-5"
     inkscape:window-y="11"
     inkscape:window-maximized="0" />
  <metadata
     id="metadata7">
    <rdf:RDF>
      <cc:Work
         rdf:about="">
        <dc:format>image/svg+xml</dc:format>
        <dc:type
           rdf:resource="http://purl.org/dc/dcmitype/StillImage" />
        <dc:title></dc:title>
      </cc:Work>
    </rdf:RDF>
  </metadata>
  <g
     inkscape:label="Layer 1"
     inkscape:groupmode="layer"
     id="layer1"
     transform="translate(0,-572.3621)">
    <g
       style="font-style:normal;font-weight:normal;font-size:59.87136841px;line-height:125%;font-family:sans-serif;letter-spacing:0px;word-spacing:0px;fill:#0000ff;fill-opacity:1;stroke:none;stroke-width:1px;stroke-linecap:butt;stroke-linejoin:miter;stroke-opacity:1"
       id="text3336">
      <path
         d="m 105.85004,802.64027 -6.460729,0 0,12.24907 -5.612941,0 0,-12.24907 -20.843889,0 0,-6.72384 21.077762,-24.55661 5.379068,0 0,26.603 6.460729,0 0,4.67745 z m -12.07367,-4.67745 0,-19.64529 -16.868056,19.64529 16.868056,0 z"
         style=""
         id="path3362" />
      <path
         d="m 143.29888,802.75721 q 0,5.64217 -4.41434,9.38413 -4.38511,3.74196 -11.05048,3.74196 -7.07465,0 -11.28435,-3.65426 -4.18047,-3.65426 -4.18047,-9.3549 0,-3.62502 2.10485,-6.54843 2.10485,-2.95264 5.93452,-4.67745 l 0,-0.1754 q -3.50809,-1.87098 -5.20367,-4.09277 -1.66634,-2.22179 -1.66634,-5.55448 0,-4.91132 4.0343,-8.18553 4.0343,-3.27422 10.26116,-3.27422 6.5192,0 10.40733,3.12804 3.88813,3.12805 3.88813,7.95167 0,2.95264 -1.84175,5.81758 -1.84175,2.8357 -5.4083,4.44358 l 0,0.1754 q 4.09277,1.75405 6.25609,4.32664 2.16332,2.5726 2.16332,6.54844 z m -6.92847,-21.25317 q 0,-3.12805 -2.42643,-4.96979 -2.3972,-1.87098 -6.13916,-1.87098 -3.68349,0 -6.05145,1.75404 -2.33872,1.75405 -2.33872,4.73592 0,2.10485 1.16936,3.65426 1.1986,1.52017 3.59579,2.71877 1.08166,0.52621 3.09881,1.374 2.04639,0.84779 3.97583,1.40323 2.89418,-1.92945 4.00507,-4.00506 1.1109,-2.07562 1.1109,-4.79439 z m 0.90625,21.80861 q 0,-2.68953 -1.19859,-4.2974 -1.16937,-1.63711 -4.61899,-3.27422 -1.374,-0.64315 -3.01111,-1.1986 -1.6371,-0.55544 -4.35587,-1.5494 -2.63107,1.43247 -4.23894,3.88813 -1.57864,2.45566 -1.57864,5.55447 0,3.9466 2.71877,6.5192 2.71876,2.5726 6.89924,2.5726 4.26817,0 6.81153,-2.19256 2.5726,-2.19255 2.5726,-6.02222 z"
         style="fill:#ff00ff"
         id="path3364" />
      <path
         d="m 181.04006,793.10996 q 0,11.72286 -3.68349,17.21887 -3.65426,5.46677 -11.37205,5.46677 -7.83473,0 -11.45976,-5.55447 -3.59579,-5.55448 -3.59579,-17.0727 0,-11.60592 3.65426,-17.13116 3.65426,-5.55447 11.40129,-5.55447 7.83473,0 11.43052,5.64217 3.62502,5.61294 3.62502,16.98499 z m -7.68856,13.27227 q 1.02319,-2.36796 1.374,-5.55447 0.38004,-3.21575 0.38004,-7.7178 0,-4.44357 -0.38004,-7.71779 -0.35081,-3.27422 -1.40323,-5.55447 -1.0232,-2.25103 -2.80647,-3.39115 -1.75405,-1.14013 -4.53128,-1.14013 -2.74801,0 -4.56052,1.14013 -1.78328,1.14012 -2.8357,3.44962 -0.99396,2.16332 -1.374,5.64217 -0.35081,3.47885 -0.35081,7.63009 0,4.56052 0.32157,7.63009 0.32158,3.06958 1.374,5.49601 0.96473,2.28025 2.71877,3.47885 1.78328,1.1986 4.70669,1.1986 2.748,0 4.56051,-1.14013 1.81251,-1.14013 2.80647,-3.44962 z"
         style=""
         id="path3366" />
      <path
         d="m 239.7713,814.88934 -6.92847,0 -9.2672,-12.54141 -9.32567,12.54141 -6.40226,0 12.74606,-16.28337 -12.62912,-16.37108 6.92847,0 9.20873,12.33678 9.23797,-12.33678 6.43149,0 -12.83375,16.07874 12.83375,16.57571 z"
         style="fill:#ff0000"
         id="path3368" />
      <path
         d="m 297.74247,802.64027 -6.46073,0 0,12.24907 -5.61294,0 0,-12.24907 -20.84389,0 0,-6.72384 21.07776,-24.55661 5.37907,0 0,26.603 6.46073,0 0,4.67745 z m -12.07367,-4.67745 0,-19.64529 -16.86806,19.64529 16.86806,0 z"
         style=""
         id="path3370" />
      <path
         d="m 335.1913,802.75721 q 0,5.64217 -4.41435,9.38413 -4.38511,3.74196 -11.05047,3.74196 -7.07465,0 -11.28435,-3.65426 -4.18047,-3.65426 -4.18047,-9.3549 0,-3.62502 2.10485,-6.54843 2.10485,-2.95264 5.93451,-4.67745 l 0,-0.1754 q -3.50808,-1.87098 -5.20366,-4.09277 -1.66634,-2.22179 -1.66634,-5.55448 0,-4.91132 4.0343,-8.18553 4.0343,-3.27422 10.26116,-3.27422 6.51919,0 10.40732,3.12804 3.88813,3.12805 3.88813,7.95167 0,2.95264 -1.84174,5.81758 -1.84175,2.8357 -5.4083,4.44358 l 0,0.1754 q 4.09277,1.75405 6.25609,4.32664 2.16332,2.5726 2.16332,6.54844 z m -6.92848,-21.25317 q 0,-3.12805 -2.42642,-4.96979 -2.3972,-1.87098 -6.13916,-1.87098 -3.68349,0 -6.05145,1.75404 -2.33872,1.75405 -2.33872,4.73592 0,2.10485 1.16936,3.65426 1.19859,1.52017 3.59579,2.71877 1.08166,0.52621 3.09881,1.374 2.04638,0.84779 3.97583,1.40323 2.89417,-1.92945 4.00507,-4.00506 1.11089,-2.07562 1.11089,-4.79439 z m 0.90626,21.80861 q 0,-2.68953 -1.1986,-4.2974 -1.16936,-1.63711 -4.61898,-3.27422 -1.374,-0.64315 -3.01111,-1.1986 -1.63711,-0.55544 -4.35587,-1.5494 -2.63107,1.43247 -4.23894,3.88813 -1.57864,2.45566 -1.57864,5.55447 0,3.9466 2.71876,6.5192 2.71877,2.5726 6.89924,2.5726 4.26818,0 6.81154,-2.19256 2.5726,-2.19255 2.5726,-6.02222 z"
         style=""
         id="path3372" />
      <path
         d="m 372.93247,793.10996 q 0,11.72286 -3.68349,17.21887 -3.65426,5.46677 -11.37205,5.46677 -7.83473,0 -11.45976,-5.55447 -3.59579,-5.55448 -3.59579,-17.0727 0,-11.60592 3.65426,-17.13116 3.65426,-5.55447 11.40129,-5.55447 7.83473,0 11.43052,5.64217 3.62502,5.61294 3.62502,16.98499 z m -7.68856,13.27227 q 1.02319,-2.36796 1.374,-5.55447 0.38004,-3.21575 0.38004,-7.7178 0,-4.44357 -0.38004,-7.71779 -0.35081,-3.27422 -1.40323,-5.55447 -1.0232,-2.25103 -2.80647,-3.39115 -1.75405,-1.14013 -4.53128,-1.14013 -2.74801,0 -4.56052,1.14013 -1.78328,1.14012 -2.8357,3.44962 -0.99396,2.16332 -1.374,5.64217 -0.35081,3.47885 -0.35081,7.63009 0,4.56052 0.32157,7.63009 0.32158,3.06958 1.374,5.49601 0.96473,2.28025 2.71877,3.47885 1.78328,1.1986 4.70669,1.1986 2.748,0 4.56051,-1.14013 1.81251,-1.14013 2.80647,-3.44962 z"
         style=""
         id="path3374" />
    </g>
  </g>
</svg>
