<?xml version="1.0" encoding="UTF-8" standalone="no"?>
<!-- Created with Inkscape (http://www.inkscape.org/) -->

<svg
   xmlns:dc="http://purl.org/dc/elements/1.1/"
   xmlns:cc="http://creativecommons.org/ns#"
   xmlns:rdf="http://www.w3.org/1999/02/22-rdf-syntax-ns#"
   xmlns:svg="http://www.w3.org/2000/svg"
   xmlns="http://www.w3.org/2000/svg"
   xmlns:sodipodi="http://sodipodi.sourceforge.net/DTD/sodipodi-0.dtd"
   xmlns:inkscape="http://www.inkscape.org/namespaces/inkscape"
   width="960"
   height="960"
   viewBox="0 0 960.00003 960.00003"
   id="svg2"
   version="1.1"
   inkscape:version="0.91 r13725"
   sodipodi:docname="960x960.svg">
  <defs
     id="defs4" />
  <sodipodi:namedview
     id="base"
     pagecolor="#ffffff"
     bordercolor="#666666"
     borderopacity="1.0"
     inkscape:pageopacity="0.0"
     inkscape:pageshadow="2"
     inkscape:zoom="0.5780862"
     inkscape:cx="487.77584"
     inkscape:cy="482.37765"
     inkscape:document-units="px"
     inkscape:current-layer="layer1"
     showgrid="false"
     units="px"
     fit-margin-top="0"
     fit-margin-left="0"
     fit-margin-right="0"
     fit-margin-bottom="0"
     inkscape:window-width="1536"
     inkscape:window-height="801"
     inkscape:window-x="-8"
     inkscape:window-y="-8"
     inkscape:window-maximized="1" />
  <metadata
     id="metadata7">
    <rdf:RDF>
      <cc:Work
         rdf:about="">
        <dc:format>image/svg+xml</dc:format>
        <dc:type
           rdf:resource="http://purl.org/dc/dcmitype/StillImage" />
        <dc:title></dc:title>
      </cc:Work>
    </rdf:RDF>
  </metadata>
  <g
     inkscape:label="Layer 1"
     inkscape:groupmode="layer"
     id="layer1"
     transform="translate(-72.932481,144.1167)">
    <g
       style="font-style:normal;font-weight:normal;font-size:165.40260315px;line-height:125%;font-family:sans-serif;letter-spacing:0px;word-spacing:0px;fill:#00FF00;fill-opacity:1;stroke:none;stroke-width:1px;stroke-linecap:butt;stroke-linejoin:miter;stroke-opacity:1"
       id="text3341"
       transform="matrix(0.70710678,-0.70710678,0.70710678,0.70710678,16.697939,577.44954)">
      <path
         d="m 284.81263,176.77279 q 0,15.74878 -3.63433,28.59009 -3.55357,12.84132 -10.82224,21.88678 -7.34943,9.20698 -18.41396,14.21428 -11.06453,5.00731 -26.00569,5.00731 -4.19967,0 -7.91477,-0.48458 -3.7151,-0.40382 -6.62256,-1.37297 l 0,-15.42573 0.80763,0 q 2.34212,1.21144 6.62256,2.34212 4.28044,1.04992 9.53003,1.04992 17.84863,0 27.944,-10.66071 10.17614,-10.74148 11.7914,-29.55926 -7.51096,4.52273 -14.13353,6.46104 -6.62256,1.93831 -14.45657,1.93831 -7.4302,0 -13.48742,-1.45373 -5.97646,-1.45373 -12.03369,-5.65341 -7.10714,-4.92654 -10.74148,-12.51826 -3.55357,-7.59172 -3.55357,-18.17167 0,-18.41397 12.11445,-29.96307 12.11445,-11.54911 29.55926,-11.54911 8.7224,0 16.15259,2.74594 7.4302,2.66518 13.00285,8.0763 6.86485,6.70333 10.57995,17.28328 3.71509,10.49919 3.71509,27.21713 z m -16.31412,-3.47281 q 0,-12.51827 -2.58442,-20.10999 -2.58441,-7.59172 -7.10714,-11.79139 -3.79586,-3.63434 -8.15706,-5.16883 -4.3612,-1.61526 -9.44927,-1.61526 -11.62987,0 -18.41396,7.26866 -6.70333,7.26867 -6.70333,20.43304 0,7.67249 2.1806,12.51826 2.1806,4.84578 7.34943,8.48012 3.63434,2.50365 7.99554,3.39204 4.3612,0.80763 9.69156,0.80763 6.29951,0 12.76055,-1.69602 6.46104,-1.69602 12.11445,-4.92654 0.0808,-1.69602 0.16152,-3.31128 0.16153,-1.69603 0.16153,-4.28044 z"
         id="path3346"
         inkscape:connector-curvature="0" />
      <path
         d="m 392.06589,205.1206 q 0,18.33319 -12.11445,29.96307 -12.03369,11.5491 -29.55926,11.5491 -8.88392,0 -16.15259,-2.74594 -7.26867,-2.74594 -12.84132,-8.15706 -6.94562,-6.70333 -10.74148,-17.76786 -3.71509,-11.06453 -3.71509,-26.65179 0,-15.99107 3.39204,-28.3478 3.47281,-12.35674 10.98377,-21.96754 7.10714,-9.12622 18.3332,-14.21428 11.22605,-5.16884 26.16721,-5.16884 4.76501,0 7.99553,0.40382 3.23052,0.40381 6.5418,1.45373 l 0,15.42573 -0.80763,0 q -2.26136,-1.21144 -6.86485,-2.26136 -4.52273,-1.13068 -9.28774,-1.13068 -17.36405,0 -27.70171,10.903 -10.33766,10.82224 -12.03368,29.31697 6.78409,-4.11891 13.32589,-6.21875 6.62256,-2.1806 15.2642,-2.1806 7.67249,0 13.48742,1.45373 5.8957,1.37297 12.03369,5.65341 7.10714,4.92654 10.66071,12.4375 3.63434,7.51096 3.63434,18.25244 z m -16.39489,0.6461 q 0,-7.51096 -2.26136,-12.4375 -2.1806,-4.92654 -7.26867,-8.56088 -3.7151,-2.58441 -8.23783,-3.39204 -4.52272,-0.80763 -9.44927,-0.80763 -6.86485,0 -12.76055,1.61526 -5.8957,1.61526 -12.11445,5.0073 -0.16152,1.77679 -0.24229,3.47281 -0.0808,1.61526 -0.0808,4.11891 0,12.76056 2.58442,20.19075 2.66517,7.34943 7.26867,11.62987 3.71509,3.55357 7.99553,5.2496 4.3612,1.61526 9.44927,1.61526 11.71063,0 18.41396,-7.10715 6.70333,-7.1879 6.70333,-20.59456 z"
         style="fill:#00FF00"
         id="path3348"
         inkscape:connector-curvature="0" />
      <path
         d="m 495.44252,183.96069 q 0,32.38596 -10.17614,47.5694 -10.09537,15.10268 -31.4168,15.10268 -21.64448,0 -31.65909,-15.34497 -9.93385,-15.34496 -9.93385,-47.16558 0,-32.06291 10.09537,-47.32711 10.09538,-15.34497 31.49757,-15.34497 21.64448,0 31.57833,15.58726 10.01461,15.50649 10.01461,46.92329 z m -21.24067,36.6664 q 2.82671,-6.5418 3.79586,-15.34497 1.04992,-8.88393 1.04992,-21.32143 0,-12.27597 -1.04992,-21.32143 -0.96915,-9.04545 -3.87662,-15.34496 -2.82671,-6.21876 -7.75325,-9.36851 -4.84578,-3.14976 -12.51826,-3.14976 -7.59172,0 -12.59903,3.14976 -4.92654,3.14975 -7.83401,9.53003 -2.74594,5.97646 -3.79586,15.58726 -0.96916,9.61079 -0.96916,21.07914 0,12.59902 0.8884,21.07914 0.88839,8.48011 3.79586,15.18344 2.66518,6.29951 7.51096,9.6108 4.92654,3.31128 13.00284,3.31128 7.59172,0 12.59902,-3.14976 5.00731,-3.14975 7.75325,-9.53003 z"
         id="path3350"
         inkscape:connector-curvature="0" />
      <path
         d="m 599.54601,244.12912 -19.14082,0 -25.60187,-34.64732 -25.7634,34.64732 -17.68709,0 35.21266,-44.98499 -34.88961,-45.22727 19.14083,0 25.44034,34.08198 25.52111,-34.08198 17.76785,0 -35.45495,44.41964 35.45495,45.79262 z"
         id="path3352"
         inkscape:connector-curvature="0" />
      <path
         d="m 698.64219,176.77279 q 0,15.74878 -3.63433,28.59009 -3.55357,12.84132 -10.82224,21.88678 -7.34943,9.20698 -18.41396,14.21428 -11.06453,5.00731 -26.00569,5.00731 -4.19967,0 -7.91477,-0.48458 -3.7151,-0.40382 -6.62256,-1.37297 l 0,-15.42573 0.80763,0 q 2.34212,1.21144 6.62256,2.34212 4.28044,1.04992 9.53003,1.04992 17.84862,0 27.944,-10.66071 10.17614,-10.74148 11.79139,-29.55926 -7.51095,4.52273 -14.13352,6.46104 -6.62256,1.93831 -14.45657,1.93831 -7.4302,0 -13.48742,-1.45373 -5.97646,-1.45373 -12.03369,-5.65341 -7.10714,-4.92654 -10.74148,-12.51826 -3.55357,-7.59172 -3.55357,-18.17167 0,-18.41397 12.11445,-29.96307 12.11445,-11.54911 29.55926,-11.54911 8.7224,0 16.15259,2.74594 7.4302,2.66518 13.00284,8.0763 6.86486,6.70333 10.57996,17.28328 3.71509,10.49919 3.71509,27.21713 z m -16.31412,-3.47281 q 0,-12.51827 -2.58442,-20.10999 -2.58441,-7.59172 -7.10714,-11.79139 -3.79586,-3.63434 -8.15706,-5.16883 -4.3612,-1.61526 -9.44927,-1.61526 -11.62987,0 -18.41396,7.26866 -6.70333,7.26867 -6.70333,20.43304 0,7.67249 2.1806,12.51826 2.1806,4.84578 7.34943,8.48012 3.63434,2.50365 7.99554,3.39204 4.3612,0.80763 9.69156,0.80763 6.29951,0 12.76055,-1.69602 6.46104,-1.69602 12.11445,-4.92654 0.0808,-1.69602 0.16152,-3.31128 0.16153,-1.69603 0.16153,-4.28044 z"
         style="fill:#ff00FF"
         id="path3354"
         inkscape:connector-curvature="0" />
      <path
         d="m 805.89548,205.1206 q 0,18.33319 -12.11445,29.96307 -12.03369,11.5491 -29.55926,11.5491 -8.88392,0 -16.15259,-2.74594 -7.26867,-2.74594 -12.84132,-8.15706 -6.94562,-6.70333 -10.74148,-17.76786 -3.71509,-11.06453 -3.71509,-26.65179 0,-15.99107 3.39204,-28.3478 3.47281,-12.35674 10.98377,-21.96754 7.10714,-9.12622 18.3332,-14.21428 11.22605,-5.16884 26.16721,-5.16884 4.76501,0 7.99553,0.40382 3.23052,0.40381 6.5418,1.45373 l 0,15.42573 -0.80763,0 q -2.26136,-1.21144 -6.86485,-2.26136 -4.52273,-1.13068 -9.28774,-1.13068 -17.36405,0 -27.70171,10.903 -10.33766,10.82224 -12.03368,29.31697 6.78409,-4.11891 13.32589,-6.21875 6.62256,-2.1806 15.2642,-2.1806 7.67249,0 13.48742,1.45373 5.8957,1.37297 12.03369,5.65341 7.10714,4.92654 10.66071,12.4375 3.63434,7.51096 3.63434,18.25244 z m -16.39489,0.6461 q 0,-7.51096 -2.26136,-12.4375 -2.1806,-4.92654 -7.26867,-8.56088 -3.7151,-2.58441 -8.23783,-3.39204 -4.52272,-0.80763 -9.44927,-0.80763 -6.86485,0 -12.76055,1.61526 -5.8957,1.61526 -12.11445,5.0073 -0.16152,1.77679 -0.24229,3.47281 -0.0808,1.61526 -0.0808,4.11891 0,12.76056 2.58442,20.19075 2.66517,7.34943 7.26866,11.62987 3.7151,3.55357 7.99554,5.2496 4.3612,1.61526 9.44927,1.61526 11.71063,0 18.41396,-7.10715 6.70333,-7.1879 6.70333,-20.59456 z"
         style="fill:#33FF00"
         id="path3356"
         inkscape:connector-curvature="0" />
      <path
         d="m 909.27211,183.96069 q 0,32.38596 -10.17614,47.5694 -10.09537,15.10268 -31.4168,15.10268 -21.64448,0 -31.65909,-15.34497 -9.93385,-15.34496 -9.93385,-47.16558 0,-32.06291 10.09537,-47.32711 10.09538,-15.34497 31.49757,-15.34497 21.64448,0 31.57833,15.58726 10.01461,15.50649 10.01461,46.92329 z m -21.24067,36.6664 q 2.82671,-6.5418 3.79586,-15.34497 1.04992,-8.88393 1.04992,-21.32143 0,-12.27597 -1.04992,-21.32143 -0.96915,-9.04545 -3.87662,-15.34496 -2.82671,-6.21876 -7.75325,-9.36851 -4.84578,-3.14976 -12.51826,-3.14976 -7.59172,0 -12.59903,3.14976 -4.92654,3.14975 -7.83401,9.53003 -2.74594,5.97646 -3.79586,15.58726 -0.96916,9.61079 -0.96916,21.07914 0,12.59902 0.8884,21.07914 0.88839,8.48011 3.79586,15.18344 2.66518,6.29951 7.51096,9.6108 4.92654,3.31128 13.00284,3.31128 7.59172,0 12.59902,-3.14976 5.00731,-3.14975 7.75325,-9.53003 z"
         id="path3358"
         inkscape:connector-curvature="0" />
    </g>
  </g>
</svg>
