<svg xmlns="http://www.w3.org/2000/svg" width="281.25" height="75" viewBox="0 0 562.5 150">
  <defs>
    <filter id="a" color-interpolation-filters="sRGB">
      <feFlood flood-opacity=".50" flood-color="#000" result="flood"/>
      <feComposite in="flood" in2="SourceGraphic" operator="in" result="composite1"/>
      <feGaussianBlur in="composite1" stdDeviation="0.6" result="blur"/>
      <feOffset dx="1.5" dy="-1.5" result="offset"/>
      <feComposite in="SourceGraphic" in2="offset" result="composite2"/>
    </filter>
  </defs>
  <g filter="url(#a)" transform="matrix(1.25 0 0 -1.25 0 150)">
    <g fill="#00f">
      <path d="M158.43 53.58h1.72V16.45h-1v35.83l-15.91-35.83h-1.14l-15.76 35.83-.1-35.83h-1v37.13h1.71l15.64-35.78 15.84 35.78zM191.29 16.45h-1v6.6c-.53-2.072-1.716-3.916-3.38-5.26-1.815-1.387-4.058-2.094-6.34-2-2.543-.11-5.024.8-6.89 2.53-1.85 1.883-2.82 4.455-2.68 7.09V43.2h1V25.57c0-2.88.807-5.06 2.42-6.54 3.954-3.3 9.817-2.857 13.23 1 1.747 2.293 2.648 5.12 2.55 8V43.2h1l.09-26.75zM202.21 53.58h1V16.45h-1v37.13zM217 42.14V21.65c0-1.767.333-2.904 1-3.41.767-.54 1.693-.805 2.63-.75.766-.037 1.536.016 2.29.16v-1c-.24 0-.63-.028-1.17-.08-.54-.054-1-.08-1.38-.08-1.18-.073-2.34.33-3.22 1.12-.766.713-1.15 1.99-1.15 3.83v20.7h-5v1.06h5v8.4h1v-8.4h6v-1l-6-.06zM232.94 16.44h-1V43.2h1V16.44zm0 31.88h-1v5.26h1v-5.26zM244.85 34.91h13.88c2.693-.103 5.342.704 7.52 2.29 2 1.54 3 3.854 3 6.94.15 2.326-.735 4.6-2.42 6.21-1.613 1.44-4.153 2.16-7.62 2.16h-14.4l.04-17.6zm0-18.46h-1v37.13H259c7.56 0 11.34-3.173 11.34-9.52.072-2.247-.654-4.447-2.05-6.21-1.516-1.77-3.603-2.955-5.9-3.35 2.947-.453 4.907-1.484 5.88-3.09.974-1.606 1.46-4.043 1.46-7.31 0-1.627.06-3.176.18-4.65.006-1.04.246-2.065.7-3h-1.14c-.35 1.05-.55 2.145-.6 3.25-.12 1.474-.18 2.99-.18 4.55 0 3.334-.64 5.777-1.92 7.33-1.28 1.554-3.913 2.316-7.9 2.29h-14l-.02-17.42zM301.63 30.66c.12 3.117-.856 6.178-2.76 8.65-1.91 2.314-4.804 3.582-7.8 3.42-2.896.038-5.67-1.167-7.62-3.31-2.166-2.385-3.3-5.53-3.15-8.75l21.33-.01zm-21.32-1c0-3.913.85-7.033 2.55-9.36 1.7-2.327 4.367-3.49 8-3.49 2.536-.095 5.02.724 7 2.31 1.94 1.7 3.175 4.065 3.46 6.63h1c-.227-2.813-1.544-5.425-3.67-7.28-2.134-1.805-4.856-2.766-7.65-2.7-3.953 0-6.89 1.277-8.81 3.83-1.92 2.553-2.883 5.95-2.89 10.19 0 4.273 1.143 7.677 3.43 10.21 2.058 2.43 5.087 3.82 8.27 3.8 3.88 0 6.8-1.357 8.76-4.07 2.034-2.96 3.065-6.492 2.94-10.08l-22.39.01zM344.12 43.2h1.09l-8.53-26.73h-1.35L327 42.14l-8.48-25.69h-1.46l-8.3 26.75h1.08l7.94-25.69 8.36 25.69h1.62l8.16-25.53 8.2 25.53zM370.8 32.15c-.775-.843-1.81-1.4-2.94-1.59-2.476-.453-4.994-.638-7.51-.55-2.104.116-4.195-.404-6-1.49-1.473-.993-2.21-2.83-2.21-5.51-.03-1.664.646-3.262 1.86-4.4 1.247-1.2 3.224-1.8 5.93-1.8 5.657-.332 10.512 3.985 10.844 9.64.014.25.02.5.016.75l.01 4.95zm-18 2.76c-.086 2.428.894 4.773 2.68 6.42 1.787 1.646 4.29 2.47 7.51 2.47 2.267.105 4.51-.514 6.4-1.77 1.627-1.18 2.44-3.14 2.44-5.88V19.2c-.057-.533.17-1.06.6-1.38.462-.276.993-.412 1.53-.39h1.25v-.94h-.78c-1.026-.12-2.06.108-2.94.65-.514.53-.77 1.263-.7 2v3.39c-.72-1.973-2.074-3.65-3.85-4.77-2.027-1.356-4.422-2.054-6.86-2-2.315-.117-4.603.545-6.5 1.88-1.643 1.282-2.554 3.288-2.44 5.37 0 2.994.867 5.08 2.6 6.26 1.97 1.247 4.27 1.864 6.6 1.77 4.054 0 6.81.243 8.27.73 1.46.486 2.187 1.683 2.18 3.59.084 1.893-.445 3.763-1.51 5.33-1.006 1.366-3.103 2.05-6.29 2.05-2.4.13-4.767-.596-6.68-2.05-1.68-1.444-2.594-3.588-2.47-5.8l-1.04.02zM384.1 16.45h-1V43.2h1v-6.6c.528 2.09 1.748 3.94 3.46 5.25 2.097 1.44 4.61 2.142 7.15 2v-1c-3.466 0-6.1-1.067-7.9-3.2-1.844-2.25-2.804-5.094-2.7-8l-.01-15.2zM411.71 42.76c-3.08.154-6.014-1.333-7.71-3.91-1.78-2.703-2.696-5.884-2.63-9.12-.112-3.274.827-6.497 2.68-9.2 1.752-2.47 4.644-3.877 7.67-3.73 3.08-.103 6.018 1.295 7.88 3.75 2.002 2.63 3.04 5.867 2.94 9.17 0 4.1-.97 7.297-2.91 9.59-1.965 2.312-4.89 3.586-7.92 3.45m10.82 10.82h1V16.45h-1v7.49c-.696-2.333-2.092-4.397-4-5.91-1.95-1.52-4.368-2.316-6.84-2.25-3.233-.114-6.322 1.343-8.29 3.91-2.155 2.896-3.246 6.445-3.09 10.05-.13 3.574.924 7.09 3 10 1.932 2.662 5.064 4.184 8.35 4.06 2.494.09 4.945-.68 6.94-2.18 1.883-1.5 3.21-3.588 3.77-5.93l.16 17.89z"/>
    </g>
    <g fill="red">
      <path d="M71.93 78.043s4.016 2.894 6.69 4.68c2.688 1.788 12.953 5.363 16.766.682 3.796-4.698 1.107-13.176-2.025-17.43l-4.017-4.02h20.785v38.2h-38.2zM65.222 78.043s-4.017 2.894-6.707 4.68c-2.673 1.788-12.954 5.363-16.75.682-3.797-4.698-1.124-13.176 2.008-17.43l4.018-4.02H27.024v38.2h38.2z"/>
      <path d="M72.593 63.3c1.566-2.008 8.494.222 12.07 3.355 3.574 3.115 8.034 8.937 6.025 11.388-2.01 2.45-8.716.664-12.733-2.69-4.017-3.336-6.928-10.043-5.362-12.052zM64.558 63.3c-1.566-2.008-8.494.222-12.07 3.355-3.574 3.115-8.05 8.937-6.025 11.388 2.008 2.45 8.698.664 12.733-2.69 4.017-3.336 6.91-10.043 5.362-12.052zM110.128 16.386h-38.2v33.5L83.32 38.84l5.362 4.68-11.39 11.73h32.838M27.023 16.386h38.2v33.5L49.798 34.142l-5.363 4.7L59.86 55.25H27.023"/>
    </g>
  </g>
</svg>
