<svg xmlns="http://www.w3.org/2000/svg" viewBox="0 0 280 60">
  <title>MultiReward LOGO-ICON3+TEXT</title>
  <g>
    <path d="M32.16419,15.83824s2.87746-2.07275,4.79171-3.353c1.92644-1.28023,9.2786-3.84068,12.00975-.48771,2.719,3.36517.79252,9.43711-1.45092,12.48527l-2.87746,2.87746H280V0H32.16419Z"/>
    <path d="M27.36029,15.83824s-2.87746-2.07275-4.8039-3.353c-1.91424-1.28023-9.2786-3.84068-11.99756-.48771-2.719,3.36517-.80471,9.43711,1.43873,12.48527L14.875,27.36029H0V0H27.36029Z"/>
    <path d="M32.6397,26.39707c1.12172,1.43873,6.08413-.1585,8.64458-2.402,2.56045-2.23125,5.75493-6.40114,4.3162-8.15688s-6.24263-.47551-9.1201,1.92644C33.60292,20.15444,31.518,24.95834,32.6397,26.39707Z"/>
    <path d="M26.88478,26.39707c-1.12172,1.43873-6.08413-.1585-8.64458-2.402-2.56045-2.23125-5.76712-6.40114-4.3162-8.15688,1.43873-1.75574,6.23044-.47551,9.1201,1.92644C25.92156,20.15444,27.99431,24.95834,26.88478,26.39707Z"/>
    <polygon points="23.52 32.164 0 32.164 0 60 27.36 60 27.36 36.005 16.314 47.283 12.473 43.918 23.52 32.164"/>
    <g>
      <polygon points="137.041 60 148.125 60 138.546 47.633 137.041 47.633 137.041 60"/>
      <path d="M228.40135,56.6174a10.8694,10.8694,0,0,1-3.57727,2.91614A9.27843,9.27843,0,0,1,223.67536,60h4.726Z"/>
      <path d="M145.57644,44.55432a4.10234,4.10234,0,0,0,1.99544-1.62112,4.5002,4.5002,0,0,0,.71694-2.49047,4.31138,4.31138,0,0,0-.726-2.43615,4.03731,4.03731,0,0,0-1.90488-1.5668,11.57412,11.57412,0,0,0-3.91833-.47092h-4.69875v9.05637l4.59.03624A11.41047,11.41047,0,0,0,145.57644,44.55432Z"/>
      <polygon points="51.531 60 63.679 60 54.148 40.805 51.531 60"/>
      <polygon points="64.364 60 76.414 60 73.782 40.95 64.364 60"/>
      <polygon points="186.669 60 199.264 60 192.964 45.895 186.669 60"/>
      <path d="M168.8785,42.96037a7.86282,7.86282,0,0,0-3.35543-.74262,7.2239,7.2239,0,0,0-4.987,1.86566,8.42365,8.42365,0,0,0-2.30331,4.07535h14.68944a8.4168,8.4168,0,0,0-1.47772-3.24217A7.00932,7.00932,0,0,0,168.8785,42.96037Z"/>
      <path d="M227.56065,54.28537a8.11443,8.11443,0,0,0,1.00375-4.03465,7.84337,7.84337,0,0,0-2.252-5.71753,7.46679,7.46679,0,0,0-5.54548-2.29728,7.64529,7.64529,0,0,0-6.7576,3.96216,7.98575,7.98575,0,0,0,.00908,7.96049,7.77552,7.77552,0,0,0,2.86785,2.95841,7.4991,7.4991,0,0,0,3.86252,1.05807,7.92424,7.92424,0,0,0,3.94408-1.049A7.35177,7.35177,0,0,0,227.56065,54.28537Z"/>
      <path d="M36.0049,32.16418l8.15688,8.40075-3.84071,3.353-8.15688-7.913V60H48.95935L52.773,33.36067h.43319l10.83139,21.862,10.72728-21.862H75.192L79.02511,60h9.80308a7.392,7.392,0,0,1-1.47958-.65666,7.20411,7.20411,0,0,1-2.8799-3.26033,15.92514,15.92514,0,0,1-.95091-6.29412v-9.491h2.53572V49.4991a19.66527,19.66527,0,0,0,.36227,4.63684,5.17421,5.17421,0,0,0,2.07693,2.86182,6.30666,6.30666,0,0,0,3.65578,1.05048,6.17748,6.17748,0,0,0,3.60138-1.02332,5.2486,5.2486,0,0,0,2.04069-2.68976,19.021,19.021,0,0,0,.38035-4.83605V40.29784H100.761V49.97a15.29747,15.29747,0,0,1-.95091,6.14023A7.04457,7.04457,0,0,1,95.479,60h10.53476V32.69046h2.53579V60h7.48057V42.48945h-3.45954V40.29784h3.45954V32.98024h2.53572v7.31759h4.021v2.19161h-4.021V60h7.44433V40.29784H128.546V60h5.83229V33.36067h5.307a32.18858,32.18858,0,0,1,6.01342.36227,6.86759,6.86759,0,0,1,3.858,2.33047,6.64861,6.64861,0,0,1,1.48531,4.3984,7.1106,7.1106,0,0,1-1.0234,3.82628,6.37986,6.37986,0,0,1-2.92522,2.49352,13.426,13.426,0,0,1-5.25264.86183L151.41892,60H162.1215a8.66281,8.66281,0,0,1-4.03063-2.64906,10.66425,10.66425,0,0,1-2.72-7.14547,10.53474,10.53474,0,0,1,2.30182-6.68363,9.41352,9.41352,0,0,1,7.81411-3.73117,9.72216,9.72216,0,0,1,8.04964,3.82174,10.66861,10.66861,0,0,1,2.175,6.738H157.97917a8.02244,8.02244,0,0,0,2.19466,5.62853,6.99567,6.99567,0,0,0,5.24059,2.19615,8.42732,8.42732,0,0,0,2.9282-.52375,7.69928,7.69928,0,0,0,2.42111-1.38864,11.8326,11.8326,0,0,0,2.15842-2.79693l2.13728,1.123a11.63559,11.63559,0,0,1-2.43012,3.33274,9.64646,9.64646,0,0,1-3.09876,1.929c-.14846.05693-.30653.09987-.46005.14951h17.12179l-8.41593-19.70216h2.6082l6.04058,14.309,6.28817-14.309h.45886l6.33037,14.309,6.15682-14.309h2.63693L199.73688,60h17.54947a9.83761,9.83761,0,0,1-3.94572-2.52225,10.17241,10.17241,0,0,1-2.96139-7.38092,9.98651,9.98651,0,0,1,2.98855-7.28135,9.74485,9.74485,0,0,1,7.19079-3.02479,9.2981,9.2981,0,0,1,4.3923,1.0324,9.99522,9.99522,0,0,1,3.45046,3.09728V40.29784h2.49955V60h4.74556V40.29784h2.59012v2.8799a9.09386,9.09386,0,0,1,2.44523-2.54487,4.82293,4.82293,0,0,1,2.68068-.84219,4.62556,4.62556,0,0,1,2.24593.67013l-1.32218,2.13728a3.52664,3.52664,0,0,0-1.34034-.34411,3.66613,3.66613,0,0,0-2.44523,1.04148,6.58547,6.58547,0,0,0-1.79318,3.23309,31.00454,31.00454,0,0,0-.47092,6.81044V60h15.58313a9.83761,9.83761,0,0,1-3.94572-2.52225,10.17241,10.17241,0,0,1-2.96139-7.38092,9.98651,9.98651,0,0,1,2.98855-7.28135,9.74485,9.74485,0,0,1,7.19079-3.02479,9.2981,9.2981,0,0,1,4.3923,1.0324,9.99522,9.99522,0,0,1,3.45046,3.09728V32.69046h2.49955V60H280V32.16418Zm92.74333,3.58732a2.01314,2.01314,0,0,1-1.47921.61588,2.09774,2.09774,0,0,1-2.07388-2.083,2.0271,2.0271,0,0,1,.61276-1.48523,1.99244,1.99244,0,0,1,1.46112-.61588,2.08974,2.08974,0,0,1,1.47921,3.56819Z"/>
      <path d="M264.094,54.28537a8.11443,8.11443,0,0,0,1.00375-4.03465,7.84337,7.84337,0,0,0-2.252-5.71753,7.46679,7.46679,0,0,0-5.54548-2.29728,7.64529,7.64529,0,0,0-6.7576,3.96216,7.98575,7.98575,0,0,0,.00908,7.96049,7.77552,7.77552,0,0,0,2.86785,2.95841,7.4991,7.4991,0,0,0,3.86252,1.05807,7.92424,7.92424,0,0,0,3.94408-1.049A7.35177,7.35177,0,0,0,264.094,54.28537Z"/>
      <path d="M264.9347,56.6174a10.8694,10.8694,0,0,1-3.57727,2.91614A9.27843,9.27843,0,0,1,260.20872,60h4.726Z"/>
    </g>
  </g>
</svg>
