<svg xmlns="http://www.w3.org/2000/svg" width="280" height="60" viewBox="0 0 280 60">
  <title>MultiReward LOGO-ICON4+</title>
  <defs>
    <filter id="a" color-interpolation-filters="sRGB">
      <feFlood flood-opacity=".20" flood-color="#FFF" result="flood"/>
      <feComposite in="flood" in2="SourceGraphic" operator="in" result="composite1"/>
      <feGaussianBlur in="composite1" stdDeviation="0.2" result="blur"/>
      <feOffset dx="1.1" dy="1.1" result="offset"/>
      <feComposite in="SourceGraphic" in2="offset" result="composite2"/>
    </filter>
  </defs>
  <g style="fill: #f54" filter="url(#a)" ><!-- 28f -->
    <path d="M32.16419,15.83824s2.87746-2.07275,4.79171-3.353c1.92644-1.28023,9.2786-3.84068,12.00975-.48771,2.719,3.36517.79252,9.43711-1.45092,12.48527l-2.87746,2.87746H280V0H32.16419Z"/>
    <path d="M27.36029,15.83824s-2.87746-2.07275-4.8039-3.353c-1.91424-1.28023-9.2786-3.84068-11.99756-.48771-2.719,3.36517-.80471,9.43711,1.43873,12.48527L14.875,27.36029H0V0H27.36029Z"/>
    <path d="M32.6397,26.39707c1.12172,1.43873,6.08413-.1585,8.64458-2.402,2.56045-2.23125,5.75493-6.40114,4.3162-8.15688s-6.24263-.47551-9.1201,1.92644C33.60292,20.15444,31.518,24.95834,32.6397,26.39707Z"/>
    <path d="M26.88478,26.39707c-1.12172,1.43873-6.08413-.1585-8.64458-2.402-2.56045-2.23125-5.76712-6.40114-4.3162-8.15688,1.43873-1.75574,6.23044-.47551,9.1201,1.92644C25.92156,20.15444,27.99431,24.95834,26.88478,26.39707Z"/>
    <polygon points="23.52 32.164 0 32.164 0 60 27.36 60 27.36 36.005 16.314 47.283 12.473 43.918 23.52 32.164"/>
    <g>
      <path d="M154.461,49.63617a4.30088,4.30088,0,0,0,1.45-3.5191,4.14579,4.14579,0,0,0-1.45-3.42816,6.55043,6.55043,0,0,0-4.16785-1.15991h-5.377v9.29907h5.377A6.42,6.42,0,0,0,154.461,49.63617Z"/>
      <polygon points="190.829 60 201.829 60 196.376 42.586 190.829 60"/>
      <path d="M144.9162,60h10.72705l-4.173-6.60632c-.48413.04175-.87732.0614-1.17712.0614h-5.377Z"/>
      <polygon points="60.819 57.805 59.037 57.805 51.458 43.158 51.458 60 68.368 60 68.339 43.158 60.819 57.805"/>
      <polygon points="213.875 60 229.422 60 227.205 54.905 216.063 54.905 213.875 60"/>
      <path d="M272.99969,53.546a8.38749,8.38749,0,0,0-.01471-8.12439,7.70278,7.70278,0,0,0-2.88513-2.85071,8.04131,8.04131,0,0,0-4.05969-1.04193h-5.64728V57.41162h5.7652a7.90531,7.90531,0,0,0,4.00079-1.02722A7.51956,7.51956,0,0,0,272.99969,53.546Z"/>
      <path d="M36.00073,32.164l8.15692,8.40082-3.8407,3.353L32.16,36.0047V60H48.77V38.89948h3.44287l7.73126,14.85791,7.66974-14.85791H71.0863V60H83.1485a7.98484,7.98484,0,0,1-4.09015-2.10425,8.714,8.714,0,0,1-2.38617-6.49268V38.89948H79.572v12.5036a6.241,6.241,0,0,0,1.617,4.57336A5.948,5.948,0,0,0,85.64191,57.623a5.85882,5.85882,0,0,0,4.40875-1.64655,6.28516,6.28516,0,0,0,1.60223-4.57336V38.89948h2.8974v12.5036a8.73512,8.73512,0,0,1-2.37146,6.49268A7.91526,7.91526,0,0,1,88.11743,60h12.01868V38.89948h2.89984V57.41162H112.276V60h7.76074V41.55847h-6.79492v-2.659h16.51666v2.659h-6.822V60H133.081V38.89948h2.89984V60h6.038V38.89948h8.27435a9.321,9.321,0,0,1,6.20514,1.85785,6.5275,6.5275,0,0,1,2.18958,5.2688,7.49405,7.49405,0,0,1-1.19434,4.32025,6.68123,6.68123,0,0,1-3.42572,2.53613L158.96112,60h4.89233V38.89948h14.676V41.529H166.75085v6.52209H177.291v2.62457h-10.5401v6.736h12.13745V60h8.92731L180.7019,38.89948H183.813l5.58588,18.028,5.55634-18.028h2.89984l5.58582,18.028,5.55634-18.028H212.015L204.87195,60h5.95361l9.37286-21.10052h3.02026L232.56207,60h3.09875V38.89948h8.27185a9.3234,9.3234,0,0,1,6.20758,1.85785,6.52735,6.52735,0,0,1,2.18964,5.2688,7.51156,7.51156,0,0,1-1.19189,4.32025,6.684,6.684,0,0,1-3.4306,2.53613L252.60553,60H257.493V38.89948h8.60608a11.33328,11.33328,0,0,1,5.57111,1.37616,10.08121,10.08121,0,0,1,3.90985,3.78943,10.9452,10.9452,0,0,1-.01477,10.81042,10.19974,10.19974,0,0,1-3.94177,3.78943A11.31028,11.31028,0,0,1,266.69135,60H280V32.164Z"/>
      <path d="M248.10059,49.63617a4.28613,4.28613,0,0,0,1.44989-3.5191,4.13159,4.13159,0,0,0-1.44989-3.42816,6.54124,6.54124,0,0,0-4.16791-1.15991h-5.372v9.29907h5.372A6.41106,6.41106,0,0,0,248.10059,49.63617Z"/>
      <polygon points="217.21 52.278 226.087 52.278 221.619 42.011 217.21 52.278"/>
      <path d="M238.56067,60h10.72455l-4.17291-6.60632c-.48169.04175-.87488.0614-1.17963.0614h-5.372Z"/>
    </g>
  </g>
</svg>
