<?xml version="1.0" encoding="utf-8"?>
<!-- Generator: Adobe Illustrator 18.0.0, SVG Export Plug-In . SVG Version: 6.00 Build 0)  -->
<!DOCTYPE svg PUBLIC "-//W3C//DTD SVG 1.1//EN" "http://www.w3.org/Graphics/SVG/1.1/DTD/svg11.dtd">
<svg version="1.1" id="Слой_1" xmlns="http://www.w3.org/2000/svg" xmlns:xlink="http://www.w3.org/1999/xlink" x="0px" y="0px"
	 viewBox="0 156.8 1024 355.9" enable-background="new 0 156.8 1024 355.9" xml:space="preserve">
<path fill="#000000"      d="
	M990.6,365.4v24.1h-20.5v-41h-33.4v54.9h-21.6l-5.9,7.7v-84.1h-3.8v-40.5h-3.3v-26.2h-3.4v-19h-2.3v-13.9h-3.6v-8.7h-3.6v-8
	c2.1-0.7,3.6-2.6,3.6-4.9c0-2.3-1.5-4.2-3.6-4.9v-28h-3.1v28c-2.1,0.7-3.6,2.6-3.6,4.9c0,2.3,1.5,4.2,3.6,4.9v8h-3.6v8.7H879v13.9
	h-2.3v19h-3.4v26.2H870v40.5h-3.8v49.8h-29.1v-55.3h-3.8v-40.5H830v-26.2h-3.4v-19h-2.3v-13.9h-3.6v-8.7h-3.6v-8
	c2.1-0.7,3.6-2.6,3.6-4.9s-1.5-4.2-3.6-4.9v-28H814v28c-2.1,0.7-3.6,2.6-3.6,4.9s1.5,4.2,3.6,4.9v8h-3.6v8.7h-3.6v13.9h-2.3v19h-3.4
	v26.2h-3.3v40.5H794v73.1h-2.6v12.2h-5.8v-25.3h-9.9v-37.3h-49.3v-28l-17-10.1h-43.1v29.8h-3.7v-11.1h-3.3v-6.2h-3.7v-4.8h-11.6V306
	h-38.1v12.4h-3.3v6.2h-4.4v-7h-10.9v-20H561v5.8h-32.3v5.4h-3.1v3.5h3.1v12h-3.1v3.5h3.1v7.2c-3.8,2.3-6.9,6.9-8.3,12.7h-9.6v6.2
	h-34.8v52.6h-16.2v-4.6h2.1v-7.9h-5v-3.7h-4.6v-3.8h-4.6v-72h-10.8v-5.8H433v5.8h-10.8V330h-9.1v21.1h-7.5v11.6h-4.6v6.2h-5.4v2.5
	H392v-6.2h-28.6v6.2h-3.3v8.7h-14.5V405h-27.3v-2.9h-25.7v18.6h-5.4v-6.2h-42.7v-20.4h-10.4v-9.5h-3.7v-1.3h-1.7v-3.3h-12.4v3.3
	h-9.5v-6.2h-23.6v6.2h-10.4v7.9h-6.2v2.9h-6.2v5.8h-5.5v-2.9H143v-9.5h-6.6V400h-17v6.6h-4.6V434h-9.1v-13.3H94.6
	c-1-49.1-2.5-124.3-2.5-124.4c0-0.4-0.3-1.1-0.9-1.4c1.1-0.4,1.8-0.7,1.9-1.3c-0.5-4.2,1.8-6.9,3.6-8.4c1.4-0.7,2.2-1.7,2.2-2.5
	c0-0.7-0.6-1.5-1.6-2.1c1.9-0.6,3-1.4,3-2.2c0-0.7-0.8-1.3-2.1-1.8c2.6-0.7,4.1-1.7,4.1-2.8c0-0.5-0.4-1-1.1-1.5
	c2-0.8,3.2-1.7,3.2-2.7c0-0.6-0.4-1.1-1-1.6c1.9-0.9,2.9-2,2.9-3.2c0-1.3-1.2-2.4-3.4-3.4c1-0.5,1.5-1,1.5-1.5
	c0-0.9-1.4-1.7-3.7-2.3c0.6-0.5,0.7-1,0.7-1.5c0-1.9-4.5-3.6-9.8-4.3v-3.8c1.1-0.4,2-1,2-1.7c0-0.6-0.9-1.2-2-1.7v-0.2
	c1.1-0.4,2-1,2-1.7s-0.9-1.2-2-1.7v-0.6c1.1-0.4,1.9-1,1.9-1.7c0-1.2-1.9-2.2-6.2-2.4V177h-3.2v59.3c-2.1,0.2-6.3,1.2-6.3,2.4
	c0,0.7,1,1.2,2.1,1.7v0.5c-1.1,0.4-2.1,1-2.1,1.7c0,0.7,1,1.2,2.1,1.7v0.2c-1.1,0.4-2.1,1-2.1,1.7c0,0.7,1,1.2,2.1,1.7v3.8
	c-5.3,0.7-9.5,2.3-9.5,4.3c0,0.5,0.5,1.1,1,1.5c-2.3,0.6-3.5,1.4-3.5,2.3c0,0.5,0.5,1,1.5,1.5c-2.2,1-3.4,2.2-3.4,3.4
	c0,1.2,1.1,2.3,3,3.2c-0.6,0.5-1,1-1,1.5c0,1,1.2,1.9,3.1,2.7c-0.7,0.5-1.1,1-1.1,1.5c0,1.1,1.6,2.1,4.1,2.8
	c-1.3,0.5-2.1,1.1-2.1,1.8c0,0.8,1.1,1.6,3,2.1c-1,0.6-1.5,1.3-1.5,2c0,0.9,0.8,2.1,2.2,2.7c1.7,1.5,4,4.2,3.6,8.4
	c0.1,0.6,0.8,0.9,1.9,1.3c-0.6,0.3-0.9,1.1-0.9,1.5c0,0.1-1.4,69.2-2.4,118.1h-5.1v-4.8H70v-15.5h-8.9v-7.5H44.4v-6.5h-2.7v6.5H25.1
	v7.5h-8.9V405h-3.3v4.8H4.1v4.8H0v23.7v45.4v28.9h1024v-13.9v-60.5v-72.9L990.6,365.4L990.6,365.4z M866.2,438.3h-18.4v-38.7
	l5.8-12.9h1.4l11.3,25.3V438.3z M847.2,394.5h-3.1v-7.7h6.5L847.2,394.5z M866.2,405.4l-8.3-18.7h8.3V405.4z"/>
</svg>
