<?xml version="1.0" encoding="utf-8"?>
<!-- Generator: Adobe Illustrator 18.0.0, SVG Export Plug-In . SVG Version: 6.00 Build 0)  -->
<!DOCTYPE svg PUBLIC "-//W3C//DTD SVG 1.1//EN" "http://www.w3.org/Graphics/SVG/1.1/DTD/svg11.dtd">
<svg version="1.1" id="Слой_2" xmlns="http://www.w3.org/2000/svg" xmlns:xlink="http://www.w3.org/1999/xlink" x="0px" y="0px"
	 viewBox="0 530 1590 221.8" enable-background="new 0 530 1590 221.8" xml:space="preserve">
<path fill="#000000"    d="M1569.9,731v-76.2h-23.3v-6.2h-1.5l-2.6-4.9l-6-2
	l-6.4-5.4l-2.8,2.8l-4.1,4.5l-4.1,1.9l-2,3.2h-3.4v27.2h-5.4v-17.1h-45.2v18.9h-12.3v-24.4h-28.5l-9-9.5l-5,4.4V647h-10.1v-16.6
	h-2.1V647h-9.4v6.2h-3.7v-50.6h-30.1v48.9h-7.6v3.4h-20.9v3.8h-9.4v5.7h-6.6v5.7h-6v2.8h-7.6v2.9h-7.6v9.5h-6v-36.7h-29.7v-29.7
	h-82.1v20.1h-6v-6h-11v6h-14.2v46.4h-9.4v26.5h-18.3v-18h-7.3v-18h-6v-27.2h-38.3V659h-4.5v-13.2h-5.4v-6.4h-17.8l-15.5,7.3v-7.3
	h-2.8v9.5h-1.9v24h-6.9v-6.6H998v-1.7h-18.3v-53.9h-14.2v-4.4h-12.6v6.9h-5.7v6h-6v34.2h-15.1v-22.8h-11.4V644l-12.3-6.6l-14.6,11.5
	v-25.2H881v52.2h-9.1v-17.1l-20.1-13.2l-18.4,13.2H833v-10.1h-4.9v-3.2h-31h-6h-15.5v-21.9h-28.8v-13.1h-9.1v-8.5h-42v6.9h-54.3
	v14.6h-47V656h-8.2l0.1,10.1H578v-4.8l-21.5-2.5v7.3h-7.8v29.7h-10.1v-89.4h-23.7v-62.1h-5.4l-17.6-7.3l-15.8,7.3h-7.3v144.3h-14.2
	v-36.6h-6.4v-7.3h-18V636h-11.7v-10.5h-21.5v-4.1h-6v-7.8H379v7.8v6.6v97.5h-41.1v-26.5h-36.6v-54.3h-6.9v-6.4H267v6.4h-8.6v-8.6
	h-6.9v8.6h-11v67.3h-26.9v9.5H205V662h-8.6v-6h-13.6v6h-9.5v33.8h-10.5v-17.4l-37.5-12.3v7.8h-17.5v-35.6h-2.3v-19.7h-7.3v-12.3
	H52.5v12.3h-6.9v19.6h-4.1v92.8H0v20.9h1590v-20.9h-20.1V731z"/>
</svg>
