<?xml version="1.0" encoding="utf-8"?>
<!-- Generator: Adobe Illustrator 21.0.2, SVG Export Plug-In . SVG Version: 6.00 Build 0)  -->
<svg version="1.1" xmlns="http://www.w3.org/2000/svg" xmlns:xlink="http://www.w3.org/1999/xlink" x="0px" y="0px"
	 viewBox="0 0 386 850" style="enable-background:new 0 0 386 850;" xml:space="preserve">
<style type="text/css">
	.st0{fill:url(#SVGID_1_);}
</style>
<g id="Layer_3">
	<g>
		<g>
			<path d="M202,9c2.7,2.5,5.9,4.2,9.3,5.7c10.8,4.9,21.6,9.5,31.7,15.7c8.4,5.2,10.1,12.5,4.7,20.6c-3.9,6-6.6,12.7-10,19
				c-1.7,3.1-3.3,6.2-5.2,9.1c-4.5,6.8-6.8,14.3-8.3,22.2c-0.2,1-0.4,2-0.7,2.9c-2.3,6.3-2.3,12.7-2.6,19.3
				c-0.4,9.1-1.4,18.5-5.4,27.1c-2.6,5.7-5,11.6-5.8,17.9c-0.1,1.1-0.6,2.5-0.3,3.4c3.5,9.1,2.7,19,4.8,28.4
				c1.2,5.4,3,10.7,6.3,15.1c5.5,7.4,8.4,16.1,11.9,24.4c5.4,12.5,9.6,25.5,13.7,38.5c1.7,5.4,4.7,10.4,5.6,16c1.4,9,5.2,17,9.5,25
				c2.9,5.5,4.1,11.9,5.8,17.9c4.4,15.5,9.2,30.8,17.6,44.8c3.3,5.4,4.6,12.1,3.2,18.8c-0.4,2.1-0.5,4.3-0.6,6.5
				c-0.1,3.4,1,6.1,3.5,8.4c1.8,1.7,3.6,3.5,5.3,5.3c1.4,1.4,2.7,2.9,3.1,5.2c-6.1,2.4-12.2,2.3-18.1,0.5c-3.4-1-4.9-4.3-4.5-7.9
				c0.8-7.1-1.6-13-6.2-18.1c-1.9,0.3-0.5,2.2-1.9,2.8c-0.1-0.5-0.3-0.9-0.3-1.3c-0.1-2.2-0.2-4.2-1.5-6.2
				c-3.1-4.7-2.7-6.4,1.7-10.1c0.5-0.4,1-0.8,1.5-1.1c0.1-2.2-1.4-3.5-2.3-5c-9.1-14-18.2-27.8-25.9-42.7
				c-3.7-7.2-5.5-14.9-5.7-22.9c-0.1-5.1-1.6-9.6-3.9-14.2c-8.1-16.5-19.1-31.2-28.3-47c-2.5-4.2-6-7.6-9.1-11.3
				c-1.8-2.1-4.2-1.9-6.4-2.3c-4.7-0.8-9.5-1.3-14.5-1.9c-2,3.9-2.1,8.3-3,12.5c-2.8,14.3-5.6,28.7-7.5,43.2
				c-0.5,3.9-1.3,7.9-2.7,11.6c-2.6,6.9-0.9,13.8-0.4,20.6c0.1,1.7,0.4,3.3-0.1,4.9c-4.9,17.2-8.6,34.8-12.1,52.3
				c-0.7,3.3,0.1,6.5-0.4,9.8c-0.9,6.4-2.1,12.8-3.5,19.1c-0.8,3.9-1.6,7.8-1.9,11.8c-0.3,5.2-2.4,6.6-7.6,5.9
				c-2-0.3-3.9-0.9-5.6-1.9c-3.2-1.9-4-3.8-3.2-7.4c0.1-0.6,0.3-1.3,0.6-1.9c4.4-7.5,5.3-16.3,8.3-24.3c1.6-4.3,2.4-9,2.5-13.7
				c0.1-12-0.7-24-1.9-35.9c-0.7-6.3-1.3-12.8-0.1-18.9c1.1-5.9,2.9-11.8,5-17.5c2-5.4,3.1-10.8,2.7-16.6
				c-0.8-10.9-1.3-21.9-2.4-32.8c-0.6-6-0.9-12-0.6-18c0.3-5.5-1.7-10.8-1.1-16.2c0.1-0.9-0.5-1.5-1.9-1.7
				c-0.8,3.7-0.8,7.4,0.1,11.1c0.5,2.3,0.5,4.6,0.7,7c0.1,1.6,0.2,3.4-1.8,4.1c-1-0.3-1.4-1.1-1.4-1.9c-0.3-9.3-4.1-17.8-5.8-26.7
				c-0.9-4.5-1.1-8.9,0.2-13.3c4.3-13.8,5.8-28.3,10.9-41.9c3.4-9.1,5.6-18.4,7.6-27.8c0.4-2,0.6-3.9,0.6-5.9c0-4.5,0-9,0.9-13.4
				c0.8-3.6-0.2-7.3,1.1-11.2c1.2-3.8-2.2-7.4-2.8-11.3c4.7-1.9,6.2-5.5,4.1-10.7c-0.8-1.9-1-3.4,0-5.2c0.4-0.7,1.2-1.7,0.7-2.3
				c-2.9-3.5,0.4-7.2-0.6-10.8c-0.4-1.4,0.3-3.7,1.3-4.7c3.6-3.5,3.1-8.6,5.3-12.6c0.5-0.9,0.4-2.1,1.6-2.8c2.3-1.4,3.1-3.7,3.6-6.2
				c0.7-3.6,1.7-4.1,5.4-4.2c1.3,0,2.8,0.1,3.9-0.5c5.4-2.6,11-1.4,16.6-1.6c4-0.1,7.6,1.7,11.6,0.9c1.9-0.4,4.4,0.7,4.7,2.9
				c0.7,5.3,5.5,8.4,6.6,13.3c1.3,6,6.3,10.8,5.7,17.5c-0.1,1.3,0.7,2.1,2.8,2.5c5.8-7,9.6-15.9,16.4-22.5
				c-12.7-9.4-24.2-20-37.6-27.6c-5.4,4.5-10.6,8.2-16.9,12c-0.3-5.3,5-5.7,5.5-9.2c-3.8-5.2-5.8,1.5-9.1,1.6
				c-3.7,0.1-3.5,5.7-5.5,8.5c-1.7-0.5-1.7-1.5-1.6-2.8c1-9.1,7.3-15.3,16.6-16.3c2.1-0.2,4.2-0.7,6.1-1.7C196.7,9,199.3,9,202,9z
				 M138,216.5c0.7-2,1.2-3.1,1.5-4.2c2.3-9.3,5-18.5,9.8-27c2.4-4.2,4.8-8.3,6.7-12.7c0.7-1.7,2.1-3,3.5-4.2
				c5.7-4.5,7.8-10.6,7.8-17.6c0-5.7-1.1-11.2-4.6-16.7c-3.5,10.4-7.9,19.7-10.2,29.7c-1.3,5.5-3.4,10.7-5.8,15.8
				c-3.6,7.6-7.7,15.1-11,22.9C133.6,207.8,134.9,211.6,138,216.5z"/>
			<path d="M1,152c2.9-10.5,5.6-21.1,7.2-31.9c0.7-4.5-0.2-9.2,0.4-13.9c1.1-7.6,2.9-14.7,9.7-19.4c2.1-1.4,2.5-3.7,3.4-6.4
				c-3.8,1.2-5.6,5.4-10.6,4.6c4.5-4.8,10.5-7.5,13-13.8c-3.3,1-3.3,1-8.7,6.3c1.9-4.6,3-9.6,7.9-12.4c2-1.2,4.1-2.2,2.9-5.4
				c-0.5-1.2,1.9-2.2,1.8-3.8c-1.2-0.4-1.6,1.8-3.2,0.8c0.1-2.3,1.8-4,3.1-5.6c0.8-1,2-2,2.1-3.3c0.6-7.8,6.8-11.3,11.6-15.8
				c1.2-1.1,3.1-1.5,2-4c2.8,0.3,4.7-1,6.5-2.5c3.2-2.6,6.6-3.7,10.5-1.4c0.7,0.4,1.6,0.7,2.4,0.7c8.3,0,11.7,6.1,13.1,13.8
				c0.8,4.4,2.5,7.8,5.8,10.6c2.6,2.1,4.7,4.7,5.8,7.9c0.8,2.2,2.8,3.6,4.2,5.5c-0.7,0.7-1.3,1.2-2.3,2.1c-1.2-1.3-2.5-2.7-4.5-2.6
				c-0.2,1.1,1.2,1.7,0.9,2.7C85.6,66,84.1,65,83.6,66c-0.5,9.9,0.6,12.2,9.2,19.5c-1,1.2-2.6,0.3-3.7,1.1c-0.3,1.6,2.3,1.8,1.9,3.8
				c-1.6,0.7-3.2,0.4-4.9-1.3c-0.3,2.7,0.6,4.3,2.3,5.9c1.9,1.8,3.9,3.7,5.3,6c4.6,7.3,11.1,12.8,17.8,18.1c2,1.5,3.9,3.2,5.2,5.4
				c2.5,4.1,2.5,8.2-0.3,12.1c-5.6,8-12.8,14.5-20.1,20.7c-3.9,3.3-8.1,6.4-12.4,9.3c-2.6,1.8-3.6,3.8-3,7.5
				c0.7,4.2,2.3,7.4,4.6,10.7c5.1,7.5,7.3,16,7.8,24.9c0.5,7.8,0.2,15.6-1,23.4c-0.2,1-0.4,2-0.7,2.9C85,252.1,80.8,269,75.2,285.4
				c-0.5,1.4-0.8,2.9-1.4,4.2c-1.7,3.5-1.8,7-0.5,10.6c1.3,3.5,1.8,7.3,1.6,10.8c-0.2,6.3,2.8,10.9,6.3,15.3c2,2.5,2.7,5.2,3.1,8.2
				c1.6,13.2,3.4,26.3,6.8,39.2c1.7,6.4,4,12.5,6.1,18.8c2.1,6.3,2.4,13,2.9,19.6c0.3,3,0.8,5.9,1.9,8.7c2,5.4,1.7,7.3-1.6,13
				c-4.6-0.3-8.9-1.9-12.8-4.5c-3.2-2.1-4.1-5.7-3.7-9.3c0.8-6,0.3-11.9-1-17.8c-0.5-2.1-0.7-4.5,0-6.4c1.4-3.6,0.8-7-0.6-10.2
				c-5.7-13.3-13.1-25.7-20.2-38c-1.8-0.1-1.9,1.1-2.3,1.9c-4.2,8.5-8.1,17.1-11.3,26.1c-2,5.5-2.5,11.3-3.3,17.1
				c-1,7.5-1.3,14.9-1,22.3c0.1,2.7-1.2,4.8-3.1,6.6c-2.1,1.9-4.1,3.9-5.4,6.3c-4-1.1-7.6-5.8-8-10.3c-0.2-2.8,0-5.6,1-8.4
				c2-5.5,3-11.1,3.1-17.1c0.1-4.4,2.2-8.6,3.6-12.8c0.3-0.9,1-1.8,1.1-2.8c0.8-11.6,4-22.9,4.3-34.6c0.2-6.1,1.1-12.2,1.9-18.3
				c0.4-3.2,3-5.4,4.1-8.4c0.6-1.7,1.7-3.2,2.5-4.9c2-4.2,1.9-8.2-0.1-12.5c-5.7-12-11.4-24.1-16.7-36.2
				c-3.8-8.5-7.7-17.1-10.7-25.9c-1.2-3.5-1.5-7.2-1.8-10.8c-0.8-9.8-0.4-19.6,0.4-29.4c0.5-6.2,1.7-12.1,3.8-17.9
				c1.1-2.9,1-6,0.3-8.9c-1.9-8.2-4.1-16.3-6.3-24.9c-2.4,2.2-3,4.6-2.8,7c1,10.8-2.2,21.1-3.6,31.6c-1.1,8.9-1.6,17.8,0.6,26.8
				c0.8,3.4,0,7.2,1.8,10.5c0.2,0.4,0.1,1.2-0.1,1.4c-5.8,4.4-2.1,9.4-0.8,14.2c0.6,2.2,1.9,4.2,0.4,6.9c-2.7-2.5-3.9-5.9-6-8.8
				c-1,3,1.8,5.4,0.2,8.5c-2.9-2.8-3.4-6.4-4-9.8c-0.8-4.7-1.4-9.5-0.2-14.4c1.5-6.4,1.5-12.9,0.1-19.3c-1.1-5.2-1-10.6-2.7-15.6
				C1,172.7,1,162.3,1,152z M104.8,129.9c-7.4-2-12.4-6.1-17.8-9.8c-1.2,2.3-0.8,4.9-3.2,5.7c-1.3-0.4,0-1.7-1-2.1
				c-3.3,1.9-2.4,5.4-2.8,8.3c-1.3,0.3-1-1.3-2.4-1.3c-0.5,3-2.3,5.5-3.8,8.2c-3.9,7-5.5,14.5-4.5,22.6c0.3,2.4,1,4.5,3.4,5.8
				c1.4-1.3,2.5-2.8,4-3.7c7.8-5,12.8-12.4,17.3-20.3C96.5,138.6,99.2,133.9,104.8,129.9z M80.4,118.8c-2.3,2.5-3.5,4.6-2.3,7.5
				C79,124.1,82.1,122.6,80.4,118.8z"/>
			<path d="M387,230c-3.6-1-4-4.7-5.8-7.3c-2.8,2.8-0.8,7-3.2,10.3c-2.2-2.2-0.5-5-1.7-7.1c-1.8,0.3-1.3,2.6-3,3.1
				c-1.8-2.3,0.4-4.3,0.3-6.5c-0.9-0.1-1.3,1.1-2.4,0.5c-0.6-2.3,1.8-4.1,1.4-6.5c-0.4-2.1-1.1-4.2-0.9-6.4c0.1-1.9-0.2-3.6-1-5.3
				c-0.5-1-1.2-2.2-0.7-3.3c1.4-4-0.4-7.5-1.5-11.1c-0.7-2.4-1.8-4.7-2.8-6.9c-5.3-11.2-11.3-22.2-13-35c-1.9,0.9-1.4,2.3-1.6,3.3
				c-0.7,6.1-1.3,12.2-2,18.3c-0.4,4,0,8,1.6,11.7c1.5,3.4,1.5,7.1,1.7,10.7c0.5,9.2-1.1,18.2-2.5,27.2c-0.8,5.5-0.6,11-0.7,16.5
				c0,1.8,0.3,3.7-0.9,5.3c-2.3,3.1-2.6,6.7-3.1,10.4c-1.1,8.6-4.1,16.8-6.4,25.1c-1.9,7-3.6,14.1-4.7,21.4c-0.4,2.5,0.3,4.2,2.3,6
				c6.4,5.8,9.3,13.6,11.7,21.6c3.1,10.4,3.8,21.2,5,31.9c0.7,6.1,1.2,12.2,3,18.3c5.2-0.3,7.1,3,8,7.2c1.8,8.1,3.8,16.2,7.4,23.7
				c0.9,1.9,0.9,4,0.2,5.9c-2.1,5.7-6.1,10-10.3,14.7c-4.3-4.6-7.5-9.2-7.1-15.3c0.3-4.5-0.6-8.7-2.3-12.6c-3-6.7-4.8-13.8-6.1-21
				c-1.6-8.7-4.8-16.9-8.6-24.9c-3.6-7.7-7.5-15.2-11.3-22.8c-0.3-0.5-0.4-1.3-1.2-1.3c-0.5,0.2-0.6,0.7-0.6,1.2
				c-0.3,17.5-0.1,35,3.7,52.2c1.7,7.7,1.1,15.6,2,23.3c0.5,4,1,7.9,2.5,11.6c1.2,3,0.9,5.8-0.3,8.7c-1,2.6-2.9,3.5-5.5,3
				c-0.5-0.1-1-0.3-1.4-0.5c-10.7-3.4-11.8-5.1-10.1-16.3c0.6-3.8,0.5-7.6-0.1-11.4c-0.7-4.1-0.5-8,2.4-11.3
				c1.9-2.2,1.3-4.6,0.6-7.1c-3-10.5-5.9-21.1-9.7-31.4c-3.8-10.3-6.5-20.9-7.3-31.9c-0.4-5.2,0.2-10.3,1.1-15.4
				c1-5.8,1.1-11.6-0.8-17.2c-6.1-17.7-12.2-35.5-18.5-53.2c-5.2-14.9-4.8-29.4,2.8-43.4c2.9-5.4,6-10.6,11.1-14.6
				c3.2-2.5,5.5-6.2,8.2-9.4c1-1.2,1.4-2.6,1.3-4.2c-0.2-5.3-5.6-15.5-10.1-19.1c-2.3,2.7-2.3,6.1-2.9,9.2
				c-0.9,4.9-1.6,9.9-4.3,14.2c-2.7,4.4-4.9,4.5-8,0.6c-2.1-2.7-3.3-5.6-3.4-9.2c-0.3-8.4,1.3-16.5,3.3-24.6c0.4-1.5,1-2.9,0.6-4.4
				c-1.4-5.5-0.8-10.9,0.1-16.4c0.5-3.2,1.2-6.2,3.7-8.5c1.5-1.4,1.9-3.1,1.5-5c-0.4-2.4,0.6-4.5,1.5-6.7c2.6-5.9,6-11.3,9.3-16.7
				c1.4-2.2,1.5-4.4,0.5-6.7c-2.2-5.3-2.9-10.8-3.7-16.4c-0.6-4-2.2-7.9-2.1-12.9c0.1-0.2,1.2,0.7,2,0c-0.7-2.4,0.4-4.1,2.3-5.8
				c3.3-3.1,6.9-5.6,10.8-7.8c5.8-3.3,11.5-1.3,17,0.9c1.1,0.4,1.9,1.7,2.9,1.8c3.6,0.2,4.9,2.9,5.7,5.5c0.6,2.1,1.8,3,3.5,3.2
				c0.4,7.7,2.7,15-0.5,21.9c1.3,1.9,3,2.6,4.4,3.4c1.5-0.1,2.2-1.1,3.1-2.2c1.1,2.3,1.2,4.5,2.7,6.1c4.7,1,4.7,1,4.3,7.8
				c1.9,1.5,3,0.2,4.3-2c0.3,3.2-1,5.6-0.1,8.4c2.3,0.4,3.7,2.5,5.6,4.3c-2.1,0.9-4.8,0.5-5.8,3.6c3.4,5.8,4.4,12.2,2.9,19.3
				c-2.2,10.9,1.2,21.3,5.6,30.9c6.4,13.8,8.6,28.5,11.2,43.2c2.5,14.4,5.1,28.8,11.1,42.3c0.5,1.1,0.7,2.2,1.7,3
				C387,228.7,387,229.3,387,230z M304.6,82.4c-0.1-3.5-2.8-3.4-4.5-4.9c-0.8,1.9-1.8,3.2-1.5,5.6C300.6,81.9,302.3,82.4,304.6,82.4
				z"/>
		</g>
	</g>
</g>
<g id="Layer_6">
	<linearGradient id="SVGID_1_" gradientUnits="userSpaceOnUse" x1="194" y1="841.0698" x2="194" y2="418.6284">
		<stop  offset="0" style="stop-color:#000000;stop-opacity:0"/>
		<stop  offset="1" style="stop-color:#000000;stop-opacity:0.5"/>
	</linearGradient>
	<path class="st0" d="M194,847.2c-1.9-1.1-4-1.5-6.1-1.7c-9.2-1-15.5-7.2-16.6-16.3c-0.1-1.3-0.1-2.3,1.6-2.8c2,2.8,1.9,8.4,5.5,8.5
		c3.2,0.1,5.3,6.8,9.1,1.6c-0.5-3.5-5.8-3.9-5.5-9.2c6.3,3.7,11.6,7.5,16.9,12c13.5-7.6,24.9-18.3,37.6-27.6
		c-6.9-6.6-10.6-15.5-16.4-22.5c-2,0.3-2.9,1.2-2.8,2.5c0.6,6.7-4.4,11.5-5.7,17.5c-1.1,5-5.9,8.1-6.6,13.3
		c-0.3,2.1-2.8,3.2-4.7,2.9c-4-0.8-7.6,1.1-11.6,0.9c-5.6-0.2-11.2,1-16.6-1.6c-1.1-0.5-2.6-0.4-3.9-0.5c-3.8-0.1-4.7-0.6-5.4-4.2
		c-0.5-2.6-1.2-4.9-3.6-6.2c-1.2-0.7-1.1-1.9-1.6-2.8c-2.2-4-1.7-9.1-5.3-12.6c-1-1-1.7-3.3-1.3-4.7c1.1-3.6-2.3-7.4,0.6-10.8
		c0.5-0.6-0.3-1.6-0.7-2.3c-1-1.7-0.8-3.3,0-5.2c2.1-5.2,0.6-8.8-4.1-10.7c0.6-3.9,4-7.5,2.8-11.3c-1.2-3.8-0.3-7.5-1.1-11.2
		c-0.9-4.5-0.9-8.9-0.9-13.4c0-2-0.2-4-0.6-5.9c-2-9.4-4.2-18.7-7.6-27.8c-5.1-13.6-6.6-28.1-10.9-41.9c-1.4-4.4-1.1-8.8-0.2-13.3
		c1.7-8.9,5.5-17.4,5.8-26.7c0-0.7,0.4-1.6,1.4-1.9c2,0.7,1.9,2.5,1.8,4.1c-0.2,2.3-0.1,4.6-0.7,7c-0.8,3.7-0.8,7.4-0.1,11.1
		c1.4-0.2,2-0.9,1.9-1.7c-0.6-5.5,1.4-10.7,1.1-16.2c-0.3-6,0-12,0.6-18c1.1-10.9,1.6-21.9,2.4-32.8c0.4-5.7-0.7-11.2-2.7-16.6
		c-2.1-5.7-3.9-11.7-5-17.5c-1.2-6.1-0.6-12.6,0.1-18.9c1.2-11.9,2-23.9,1.9-35.9c0-4.7-0.9-9.3-2.5-13.7
		c-2.9-8.1-3.8-16.8-8.3-24.3c-0.3-0.6-0.4-1.2-0.6-1.9c-0.8-3.6,0-5.5,3.2-7.4c1.7-1,3.6-1.6,5.6-1.9c5.2-0.7,7.2,0.7,7.6,5.9
		c0.3,4,1.1,7.9,1.9,11.8c1.3,6.3,2.5,12.7,3.5,19.1c0.5,3.3-0.3,6.6,0.4,9.8c3.6,17.6,7.2,35.1,12.1,52.3c0.5,1.6,0.2,3.2,0.1,4.9
		c-0.5,6.9-2.2,13.7,0.4,20.6c1.4,3.7,2.2,7.7,2.7,11.6c1.8,14.5,4.7,28.8,7.5,43.2c0.8,4.2,0.9,8.6,3,12.5c5-0.6,9.7-1.1,14.5-1.9
		c2.2-0.4,4.6-0.1,6.4-2.3c3.1-3.7,6.6-7,9.1-11.3c9.2-15.8,20.2-30.5,28.3-47c2.3-4.6,3.8-9.1,3.9-14.2c0.2-8.1,2-15.7,5.7-22.9
		c7.7-14.8,16.8-28.7,25.9-42.7c1-1.5,2.5-2.8,2.3-5c-0.5-0.3-1-0.7-1.5-1.1c-4.4-3.6-4.9-5.4-1.7-10.1c1.3-2,1.5-4,1.5-6.2
		c0-0.4,0.2-0.9,0.3-1.3c1.3,0.5,0,2.5,1.9,2.8c4.7-5.1,7-11,6.2-18.1c-0.4-3.7,1.1-7,4.5-7.9c6-1.7,12-1.8,18.1,0.5
		c-0.4,2.4-1.7,3.8-3.1,5.2c-1.7,1.8-3.4,3.6-5.3,5.3c-2.5,2.3-3.6,5-3.5,8.4c0.1,2.2,0.2,4.3,0.6,6.5c1.4,6.7,0.1,13.4-3.2,18.8
		c-8.4,14-13.2,29.3-17.6,44.8c-1.7,6.1-2.9,12.5-5.8,17.9c-4.2,8-8,16-9.5,25c-0.9,5.6-3.9,10.6-5.6,16c-4.1,13-8.3,25.9-13.7,38.5
		c-3.6,8.3-6.4,17-11.9,24.4c-3.3,4.4-5.1,9.6-6.3,15.1c-2.1,9.4-1.3,19.2-4.8,28.4c-0.4,1,0.1,2.3,0.3,3.4
		c0.8,6.3,3.2,12.2,5.8,17.9c4,8.6,5,18,5.4,27.1c0.3,6.6,0.3,13.1,2.6,19.3c0.3,0.9,0.5,1.9,0.7,2.9c1.5,7.9,3.8,15.5,8.3,22.2
		c1.9,2.9,3.5,6,5.2,9.1c3.4,6.3,6,13,10,19c5.4,8.1,3.7,15.5-4.7,20.6c-10.1,6.2-21,10.9-31.7,15.7c-3.4,1.5-6.5,3.2-9.3,5.7
		C199.3,847.2,196.7,847.2,194,847.2z M138,639.7c0.7,2,1.2,3.1,1.5,4.2c2.3,9.3,5,18.5,9.8,27c2.4,4.2,4.8,8.3,6.7,12.7
		c0.7,1.7,2.1,3,3.5,4.2c5.7,4.5,7.8,10.6,7.8,17.6c0,5.7-1.1,11.2-4.6,16.7c-3.5-10.4-7.9-19.7-10.2-29.7
		c-1.3-5.5-3.4-10.7-5.8-15.8c-3.6-7.6-7.7-15.1-11-22.9C133.6,648.5,134.9,644.6,138,639.7z M1,673.2c1.7-5.1,1.6-10.5,2.7-15.6
		c1.4-6.4,1.4-12.9-0.1-19.3c-1.1-4.9-0.5-9.6,0.2-14.4c0.6-3.4,1-7,4-9.8c1.7,3-1.2,5.4-0.2,8.5c2.1-3,3.3-6.4,6-8.8
		c1.5,2.7,0.2,4.7-0.4,6.9c-1.3,4.8-5,9.8,0.8,14.2c0.3,0.2,0.3,1.1,0.1,1.4c-1.8,3.3-1,7.1-1.8,10.5c-2.2,8.9-1.7,17.9-0.6,26.8
		c1.3,10.5,4.6,20.8,3.6,31.6c-0.2,2.4,0.3,4.8,2.8,7c2.2-8.6,4.4-16.7,6.3-24.9c0.7-2.9,0.7-6-0.3-8.9c-2.1-5.8-3.3-11.7-3.8-17.9
		c-0.8-9.8-1.2-19.6-0.4-29.4c0.3-3.6,0.6-7.3,1.8-10.8c3.1-8.8,7-17.4,10.7-25.9c5.4-12.2,11-24.2,16.7-36.2c2-4.2,2-8.3,0.1-12.5
		c-0.8-1.7-1.9-3.2-2.5-4.9c-1-3-3.7-5.2-4.1-8.4c-0.8-6.1-1.7-12.2-1.9-18.3c-0.3-11.7-3.4-23-4.3-34.6c-0.1-0.9-0.8-1.8-1.1-2.8
		c-1.4-4.2-3.5-8.4-3.6-12.8c-0.1-5.9-1.2-11.6-3.1-17.1c-1-2.7-1.3-5.5-1-8.4c0.4-4.5,4-9.2,8-10.3c1.4,2.4,3.4,4.4,5.4,6.3
		c1.9,1.8,3.2,3.9,3.1,6.6c-0.3,7.5,0,14.9,1,22.3c0.8,5.8,1.3,11.5,3.3,17.1c3.2,8.9,7.1,17.6,11.3,26.1c0.4,0.8,0.5,2,2.3,1.9
		c7-12.3,14.5-24.7,20.2-38c1.4-3.2,1.9-6.6,0.6-10.2c-0.7-1.9-0.5-4.4,0-6.4c1.4-5.9,1.8-11.8,1-17.8c-0.5-3.6,0.5-7.1,3.7-9.3
		c3.9-2.6,8.2-4.2,12.8-4.5c3.3,5.6,3.7,7.6,1.6,13c-1.1,2.8-1.7,5.7-1.9,8.7c-0.6,6.6-0.8,13.4-2.9,19.6
		c-2.1,6.2-4.4,12.4-6.1,18.8c-3.4,12.9-5.2,26-6.8,39.2c-0.4,3.1-1,5.7-3.1,8.2c-3.5,4.4-6.5,9-6.3,15.3c0.1,3.5-0.4,7.3-1.6,10.8
		c-1.3,3.6-1.2,7.1,0.5,10.6c0.6,1.3,1,2.8,1.4,4.2c5.6,16.5,9.8,33.4,16.3,49.6c0.4,0.9,0.6,1.9,0.7,2.9c1.2,7.8,1.5,15.6,1,23.4
		c-0.5,8.9-2.6,17.5-7.8,24.9c-2.3,3.3-3.9,6.5-4.6,10.7c-0.6,3.7,0.4,5.7,3,7.5c4.3,2.9,8.5,5.9,12.4,9.3
		c7.4,6.3,14.5,12.7,20.1,20.7c2.8,4,2.8,8.1,0.3,12.1c-1.3,2.2-3.2,3.8-5.2,5.4c-6.7,5.3-13.1,10.7-17.8,18.1
		c-1.4,2.2-3.4,4.2-5.3,6c-1.7,1.5-2.6,3.2-2.3,5.9c1.7-1.7,3.2-2,4.9-1.3c0.4,2-2.2,2.2-1.9,3.8c1.1,0.8,2.7-0.1,3.7,1.1
		c-8.7,7.3-9.7,9.6-9.2,19.5c0.5,1,2.1,0,2.4,1.4c0.3,1-1,1.6-0.9,2.7c2,0.1,3.3-1.4,4.5-2.6c1,0.9,1.6,1.4,2.3,2.1
		c-1.4,1.9-3.4,3.2-4.2,5.5c-1.2,3.2-3.3,5.8-5.8,7.9c-3.3,2.8-5,6.2-5.8,10.6c-1.4,7.7-4.8,13.8-13.1,13.8c-0.8,0-1.7,0.3-2.4,0.7
		c-3.9,2.4-7.4,1.3-10.5-1.4c-1.8-1.5-3.7-2.8-6.5-2.5c1.1-2.5-0.9-2.9-2-4c-4.9-4.5-11.1-8.1-11.6-15.8c-0.1-1.3-1.3-2.2-2.1-3.3
		c-1.3-1.7-3-3.4-3.1-5.6c1.6-1,2,1.2,3.2,0.8c0.2-1.7-2.2-2.6-1.8-3.8c1.2-3.2-0.9-4.2-2.9-5.4c-4.9-2.8-6-7.8-7.9-12.4
		c5.4,5.3,5.4,5.3,8.7,6.3c-2.4-6.2-8.4-9-13-13.8c5-0.8,6.9,3.4,10.6,4.6c-0.8-2.7-1.3-5-3.4-6.4c-6.8-4.7-8.6-11.8-9.7-19.4
		c-0.7-4.7,0.2-9.4-0.4-13.9c-1.6-10.8-4.4-21.4-7.2-31.9C1,693.9,1,683.6,1,673.2z M104.8,726.4c-7.4,2-12.4,6.1-17.8,9.8
		c-1.2-2.3-0.8-4.9-3.2-5.7c-1.3,0.4,0,1.7-1,2.1c-3.3-1.9-2.4-5.4-2.8-8.3c-1.3-0.3-1,1.3-2.4,1.3c-0.5-3-2.3-5.5-3.8-8.2
		c-3.9-7-5.5-14.5-4.5-22.6c0.3-2.4,1-4.5,3.4-5.8c1.4,1.3,2.5,2.8,4,3.7c7.8,5,12.8,12.4,17.3,20.3
		C96.5,717.7,99.2,722.3,104.8,726.4z M80.4,737.4c-2.3-2.5-3.5-4.6-2.3-7.5C79,732.1,82.1,733.7,80.4,737.4z M387,628.2
		c-1,0.8-1.2,1.9-1.7,3c-6,13.5-8.6,27.8-11.1,42.3c-2.5,14.7-4.8,29.4-11.2,43.2c-4.4,9.6-7.8,20-5.6,30.9
		c1.4,7.1,0.4,13.5-2.9,19.3c1,3.1,3.7,2.7,5.8,3.6c-1.9,1.8-3.3,3.9-5.6,4.3c-0.9,2.8,0.4,5.1,0.1,8.4c-1.4-2.1-2.5-3.5-4.3-2
		c0.4,6.8,0.4,6.8-4.3,7.8c-1.5,1.6-1.6,3.8-2.7,6.1c-0.9-1.1-1.5-2.1-3.1-2.2c-1.4,0.8-3.1,1.4-4.4,3.4c3.2,6.9,1,14.2,0.5,21.9
		c-1.7,0.2-2.9,1.1-3.5,3.2c-0.8,2.6-2.1,5.3-5.7,5.5c-1,0.1-1.9,1.4-2.9,1.8c-5.6,2.2-11.2,4.3-17,0.9c-3.8-2.2-7.5-4.7-10.8-7.8
		c-1.9-1.7-2.9-3.5-2.3-5.8c-0.7-0.8-1.9,0.2-2,0c-0.1-5,1.5-8.9,2.1-12.9c0.8-5.6,1.5-11.2,3.7-16.4c0.9-2.2,0.8-4.5-0.5-6.7
		c-3.3-5.4-6.7-10.8-9.3-16.7c-0.9-2.2-2-4.2-1.5-6.7c0.4-1.9,0-3.6-1.5-5c-2.5-2.3-3.2-5.3-3.7-8.5c-0.9-5.5-1.4-10.9-0.1-16.4
		c0.4-1.5-0.2-2.9-0.6-4.4c-2-8.1-3.6-16.2-3.3-24.6c0.1-3.5,1.3-6.5,3.4-9.2c3.1-3.9,5.3-3.8,8,0.6c2.7,4.4,3.3,9.3,4.3,14.2
		c0.6,3.2,0.6,6.6,2.9,9.2c4.5-3.6,9.9-13.8,10.1-19.1c0.1-1.6-0.4-3-1.3-4.2c-2.7-3.2-5-6.9-8.2-9.4c-5-4-8.2-9.2-11.1-14.6
		c-7.6-14-8-28.5-2.8-43.4c6.2-17.7,12.4-35.4,18.5-53.2c1.9-5.6,1.9-11.4,0.8-17.2c-0.9-5.1-1.4-10.2-1.1-15.4
		c0.8-11,3.5-21.6,7.3-31.9c3.8-10.3,6.7-20.8,9.7-31.4c0.7-2.5,1.2-4.9-0.6-7.1c-2.9-3.4-3.1-7.3-2.4-11.3
		c0.6-3.8,0.7-7.6,0.1-11.4c-1.7-11.2-0.6-12.9,10.1-16.3c0.5-0.2,0.9-0.4,1.4-0.5c2.7-0.5,4.5,0.4,5.5,3c1.1,2.9,1.5,5.7,0.3,8.7
		c-1.5,3.7-2,7.6-2.5,11.6c-0.9,7.8-0.3,15.6-2,23.3c-3.7,17.2-4,34.7-3.7,52.2c0,0.5,0,1,0.6,1.2c0.9,0,1-0.8,1.2-1.3
		c3.8-7.6,7.7-15.1,11.3-22.8c3.8-8,6.9-16.2,8.6-24.9c1.3-7.2,3.2-14.2,6.1-21c1.7-4,2.6-8.1,2.3-12.6c-0.4-6.1,2.8-10.7,7.1-15.3
		c4.1,4.7,8.2,9,10.3,14.7c0.7,1.9,0.7,4-0.2,5.9c-3.7,7.5-5.6,15.6-7.4,23.7c-0.9,4.2-2.9,7.5-8,7.2c-1.8,6.1-2.3,12.3-3,18.3
		c-1.3,10.7-2,21.5-5,31.9c-2.4,8-5.3,15.9-11.7,21.6c-2,1.8-2.7,3.5-2.3,6c1.1,7.2,2.7,14.3,4.7,21.4c2.3,8.3,5.3,16.4,6.4,25.1
		c0.5,3.6,0.7,7.3,3.1,10.4c1.2,1.6,0.9,3.5,0.9,5.3c0.1,5.5-0.1,11,0.7,16.5c1.3,9,3,18,2.5,27.2c-0.2,3.7-0.3,7.3-1.7,10.7
		c-1.6,3.8-2,7.7-1.6,11.7c0.7,6.1,1.3,12.2,2,18.3c0.1,1-0.4,2.4,1.6,3.3c1.6-12.8,7.7-23.7,13-35c1.1-2.3,2.1-4.6,2.8-6.9
		c1.1-3.6,3-7.1,1.5-11.1c-0.4-1.2,0.2-2.3,0.7-3.3c0.8-1.7,1.2-3.5,1-5.3c-0.2-2.2,0.6-4.3,0.9-6.4c0.4-2.4-2-4.2-1.4-6.5
		c1.1-0.6,1.5,0.6,2.4,0.5c0.1-2.2-2.1-4.2-0.3-6.5c1.7,0.5,1.2,2.8,3,3.1c1.2-2.1-0.5-4.8,1.7-7.1c2.4,3.3,0.4,7.5,3.2,10.3
		c1.9-2.6,2.2-6.3,5.8-7.3C387,626.9,387,627.6,387,628.2z M304.6,773.8c-0.1,3.5-2.8,3.4-4.5,4.9c-0.8-1.9-1.8-3.2-1.5-5.6
		C300.6,774.3,302.3,773.8,304.6,773.8z"/>
</g>
</svg>
