<?xml version="1.0" encoding="utf-8"?>
<!-- Generator: Adobe Illustrator 21.0.2, SVG Export Plug-In . SVG Version: 6.00 Build 0)  -->
<svg version="1.1" id="Layer_1" xmlns="http://www.w3.org/2000/svg" xmlns:xlink="http://www.w3.org/1999/xlink" x="0px" y="0px"
	 viewBox="0 0 120 250" style="enable-background:new 0 0 120 250;" xml:space="preserve">
<style type="text/css">
	.st0{fill:url(#SVGID_1_);}
</style>
<g>
	
		<radialGradient id="SVGID_1_" cx="20.5139" cy="203.9994" r="87.6584" gradientTransform="matrix(1 0 0 -1 0 250)" gradientUnits="userSpaceOnUse">
		<stop  offset="5.618000e-03" style="stop-color:#8AD0C3"/>
		<stop  offset="0.5" style="stop-color:#00B6A9"/>
		<stop  offset="1" style="stop-color:#00A185"/>
	</radialGradient>
	<path class="st0" d="M106.5,240.4c-0.3,1.8-2.2,3.3-0.2,5.1c0.2,0.1-0.7,1.5-1.3,2.6c-3.7-0.2-7.6,0.5-11.4-1
		c-1.4-0.5-2.4-1.2-2.1-2.7c0.5-2.7-1-4.9-1.4-7.6c-1.6,2.1,0.8,5.6-3.2,6.4c-0.9-1.8-0.5-3.8-0.4-5.6c0.1-2.2-0.4-4.2-1.9-5.7
		c-1.7-1.9-1.6-3.9-0.6-5.8c2.2-4.2,1.6-7.5-1.2-11.4c-2.9-4-5.8-7.9-9-11.7c-1.5-1.8-5.9-10.9-6.4-13.4c-0.6-3.3-2.2-8.3-4.1-9.7
		c-2.2-1.7-4.1-3.2-5-5.9c-0.8-2.5-3.1-4.4-3-7.3c-2.4-2.9-4.3-6.2-6.4-9.4c-2.9-4.5-6.2-8.8-9.1-13.2c-1.2-1.8-1.8-3.9-2.5-5.9
		c-0.7-1.8-1.5-3.4-3.7-3.8c-0.7,0.5-1.7,1.2-1.3,2.6c0.6,2.1-0.7,3.8-1.2,5.5c-0.8,2.9-0.6,6-1.9,8.7c-1.3,2.8-0.4,5.9-1.2,8.5
		c-0.9,2.9-0.7,5.7-0.9,8.6c-0.2,2.5-1.7,4.7-2.2,7.1c-0.2,1.1-0.8,2.3-0.8,3.6c0,1.2-0.1,2.3,0,3.5c0.7,5.4-1,10.7-1.2,16.1
		c-0.1,2.8-1.6,5.6-2.4,8.5c-0.9,3.6-1.8,7.3-2.5,11c-0.4,2,1.9,7.9,3.8,11.4c0.1,0.1,0.1,0.3,0.2,0.8c-3.2,3.8-3.5,8.5-3,13.2
		c-0.8,1.3-3.4-0.5-3.2,2.3c0.1,1.1-0.9,2.2-1.5,3.3c-1.6-0.7-2.6,1.1-4.1,1c-2.6-0.1-5.3,0-7.9,0c-1.4-1.5,0.8-4.4-2.3-5.4
		c-0.1-0.7,0.8-1,1.3-1.5c4.2-3.6,4.3-4.4,5.7-9.6c0.8-3.1,0.8-6.1,0.9-9.1c0-5.2,0.8-10.5-0.2-15.5c-1.2-6.6-0.2-13.1-0.9-19.6
		c-0.5-5.3,1.3-10.1,2.5-15c0.3-1.3,0.5-2.5,0.6-3.7c0.3-2.9-0.6-5.8,0.9-8.6c0.4-0.6,0.1-1.8-0.2-2.8c-1.5-5-3-10-2.7-15.4
		c0.3-4.5,0.3-9,0-13.5c-0.4-4.6,1-8.8,2.4-13c1.8-5.1,4.6-9.8,5.6-15.2c0.3-1.5,2.4-1.9,2.1-3.6c4.2-4.9,6.1-10.8,7.6-16.8
		c0.4-1.7-0.6-4.2-2.4-5.8c-2.9-2.7-3.2-3.7-3.6-7.5c-0.9-0.3-1.7-0.2-2.7,0.1c-4.9,1.9-9.4-0.3-10-4.7c-0.5-3.8,0.5-7.3,2.4-10.5
		c1.7-2.9,3.7-5.6,6-8c1.5-1.5,1.2-3.6,2.6-5c-0.1-3.4,1.8-6.4,1.7-9.7c-0.2-6.4,1.9-12.8,5.8-19.1c0.9-1.4,1.7-3,2.1-4.6
		c0.7-3,2.3-4.9,5.2-5.7C34,1,35.4,0.8,36.6,0c2.3,2.1,5.4,0.1,7.9,1.5c2.2,1.3,4.5,2.4,6.2,4.2c1.2,1.3,2.5,2.4,3.2,4.2
		c0.8,1.8,0.8,4,2.4,5.5c0,3.7,2.7,5.6,5,8c-0.1,1.2-1.5,0.2-1.7,1s-0.4,1.8-0.1,2.4c2,3.4,0.1,6.4-0.8,9.4c-0.3,1-0.1,1.6,0.6,2.1
		c1.3,0.8,2.5,1.7,4.3,1.7c2.4,0,4.5,1.3,5.6,3.2c1.8,3.4,3.5,6.8,4.4,10.7c1.1,4.2,1.1,8.7,2.9,12.8c0.2,0.6,0,1.3,0,2
		c-0.1,3.7,0.7,7.2,1.9,10.7c1.3,4.1-0.6,9.3-4.4,11.4c-2.3,1.3-3.8,3.6-6.7,4.3c-2.3,0.5-4.4,2.2-6.7,3.4c0,7,0,14.2,0,21.3
		c0,1.1-0.1,2.1,0.6,3.3c2.8,4.7,3.5,10.2,5.4,15.3c1.6,4.3,2.6,8.6,3.3,13.2c0.6,4.3,0.7,8.8,2.7,12.8c0.4,0.8,0.8,1.7,1.2,2.5
		c1.9,3.6,3.7,7.2,6,10.5c2.8,3.8,4.8,8,6.3,12.4c1.2,3.7,3.1,7.1,3.9,10.9c0.7,3.2,1.8,6.3,2.7,9.4c0.8,2.8,1.3,5.8,3.6,8
		c1,0.9-0.3,2.8,1.4,3.4c-0.6,4.8,2.9,8.5,3.4,13.1C101.3,238.4,101.9,238.3,106.5,240.4z M63.3,85.5c1.8-1.4,3.1-2.7,3.9-4.6
		c0.2-0.5,0.6-1.1,0.3-1.3c-1.9-1.8-0.2-5-2.3-6.2c-2.1,1.4-1.9,3.7-1.6,5.7C63.9,81.2,61.4,82.8,63.3,85.5z M22.2,50
		c3-0.9,4.6-2.9,6.3-4.5c-0.1-1.1,0.3-2.3-0.4-3.4c-1.1,0-2.2,0-3.8,0C25.3,45,23.2,47.1,22.2,50z"/>
</g>
</svg>
