<?xml version="1.0" encoding="utf-8"?>
<!-- Generator: Adobe Illustrator 21.0.2, SVG Export Plug-In . SVG Version: 6.00 Build 0)  -->
<svg version="1.1" id="Layer_1" xmlns="http://www.w3.org/2000/svg" xmlns:xlink="http://www.w3.org/1999/xlink" x="0px" y="0px"
	 viewBox="0 0 110 250" style="enable-background:new 0 0 110 250;" xml:space="preserve">
<style type="text/css">
	.st0{fill:url(#SVGID_1_);}
</style>
<radialGradient id="SVGID_1_" cx="28.9937" cy="206.95" r="76.9415" gradientTransform="matrix(1 0 0 -1 0 250)" gradientUnits="userSpaceOnUse">
	<stop  offset="0" style="stop-color:#F37E5F"/>
	<stop  offset="0.5" style="stop-color:#EC1C24"/>
	<stop  offset="1" style="stop-color:#CF232A"/>
</radialGradient>
<path class="st0" d="M55.3,248.8c-0.1-1.4-1.2-0.7-1.9-0.8c-2-0.4-3.5-1.6-3.9-3.5c-0.6-3.2-1.1-6.4-1.7-9.6
	c-0.2-1.1-0.7-2.2-0.7-3.4c0-1,0.7-2,0.7-2.9c0-1.1-0.3-2.4-0.9-3.3c-0.7-1-1.1-1.8-0.3-2.9c0.9-1.2,0.3-2.8,1.1-4.1
	c0.5-0.7,0.1-2.2-0.3-3.5c-1.3-4.2-2.4-8.3-4.5-12.2c-0.2-0.4,0-1,0-1.9c-1.9,1.5-2.3,3-2.5,4.9c-0.5,5.7,1.2,10.9,3.8,15.8
	c1.6,2.9,1.1,5.7,1.2,8.6c0,0.4-0.6,1.1-1,1.2c-1.9,0.4-3.6,1.5-5.8,1.2c-1.7-0.3-2.9-1-4.1-2.2c-1-1-1.6-1.9-1.6-3.5
	c0-2.2-0.4-4.5-0.8-6.7c-0.1-0.5-0.4-1.1-0.8-1.3c-1.6-0.6-2.2-2.1-3.2-3.1c-1.4-1.3-0.1-1.9,0-2.7c0.1-0.6,1-1.3,1.6-1.8
	c0.8-0.7,0.8-1.2,0.3-2.3c-0.9-2-0.2-4.1,1.3-5.8c0.8-0.9,1.8-1.7,2.6-2.6c0.3-0.4,0.7-0.9,0.7-1.3c0.3-2.9,0.5-5.8,0.9-8.7
	c0.2-1.7,0.5-3.4,0.8-5s-0.7-3.3,0.8-4.6c0.1,0,0-0.3,0-0.4c0.3-3.7,0.9-7.5,0.7-11.2c-0.1-3.4-1-6.7-1.7-10
	c-0.6-2.6-1.7-5.1-2.3-7.7c-0.9-4-1.9-8-3.2-11.9c-0.2-0.6,0-1.3-0.2-2c-0.1-0.4-0.5-0.9-0.9-1c-1.8-0.3-3.6-0.6-5.4-0.9
	c-0.5-0.1-1.1-0.3-1.3-0.7c-1-1.4-2.6-2.1-4-2.2c-2.7-0.2-4.4-1.8-6-3.6c-0.6-0.6-0.9-0.9-1.8-0.2c-0.8,0.6-1.7-0.5-1.9-1.5
	c-0.2-0.9,0-1.9-0.1-2.9c0-0.5-0.3-0.9-0.5-1.3c-0.6,0.3-1.5,0.6-1.6,1c-0.5,2.1-2,4.1-0.8,6.4c0.3,0.6,0.4,1.2,0.5,1.9
	c0.1,0.9,0,1.6-1.2,1.5c-0.4,0-1,0.3-1.4,0.6c-0.8,0.5-1.4,0.2-1.7-0.4c-1.6-3-3.1-5.8-1.7-9.6c1-2.8,2-5.5,3.8-8
	c1.1-1.6,1.6-3.7,2.2-5.7c1-3.2,1.8-6.4,2.5-9.7c1-4.9,2.7-9.6,4.4-14.3c1.2-3.1,2-6.3,3.1-9.5c1.1-3.4,2.1-6.9,2.8-10.4
	c0-0.2,0.4-0.4,0.5-0.6c0.3-2.5,0.9-5,0.8-7.5c-0.1-3.9,1.3-7.5,1.8-11.3c0.3-2.9,4.4-5.5,7.4-5.5c1.9,0,3.7-0.2,5.5-0.9
	c1.9-0.7,2.2-1,1.9-2.9c-0.2-1.3-1.1-2.6-1.4-3.9c-0.6-2.6-2.2-4.8-2.8-7.5c-0.2-1-0.6-1.9-0.7-3c-0.2-1.6,0.5-3.2-0.7-4.7
	c-0.3-0.4,0.7-1.6,0.7-2.5c-0.1-3.4,1.4-6.3,2.6-9.3c1.3-3.2,3.5-5.5,7.1-5.9c0.1,0,0.2-0.4,0.3-0.7c2.2,0,4.4,0,6.6,0
	c0.2,0.3,0.4,0.7,0.6,0.8c7.2,1.4,11,6.4,13.5,12.8c0.6,1.6,0.9,3,0.7,4.6c-0.2,1.7,0.5,3.1,1.6,4.3c0.7,0.8,1.1,1.5,0.9,2.5
	c-0.2,1.1,0.3,1.3,1.3,1.4c0.7,0,1.3,0.6,2.8,1.5c-1.7,0.1-2.4,0.1-3.2,0.2c-1.1,0.1-1.3,0.6-0.6,1.6c0.3,0.3,0.7,0.6,0.8,0.9
	c0.2,0.4,0.2,0.9,0.3,1.4c-0.4-0.2-0.8-0.4-1.2-0.6c-0.2-0.1-0.6,0-0.8,0.1c-0.1,0-0.1,0.4,0,0.6c0.7,0.8,1.7,1.4,1.4,2.8
	c0,0.2,0.8,0.4,1.1,0.7c0.5,0.6,0.9,1.2,1.3,1.9c0.4,0.6,0.6,1.4,1.1,2c1.2,1.4,2.2,4.2,2.2,6.1c-0.1,4.3,0.8,8.6,1,12.8
	c0.2,4,1.7,8,2.9,11.9c0.4,1.4,0.1,2.8,0.6,4.2c1.6,4.3,4,8.3,6,12.4c1.8,3.8,3.4,7.7,5.1,11.5c1.8,3.8,3.3,5.9,7.1,7.1
	c3.7,1.2,4.8,4,5.9,7c0.6,1.8,0.2,3.7-0.9,5.3c-0.4,0.7-1.1,1.3-1.8,1.7c-0.2,0.1-0.9-0.7-1.4-1.1c-0.2-0.1-0.5-0.3-0.7-0.3
	c-2.8,0.5-3.7-1.9-5.3-3.2c-0.3-0.2-0.5-0.6-0.5-1c-0.2-1,0-2.3-0.4-3.1c-0.5-0.8-1.9-1-2.5-1.8c-1.6-2-3.1-4.2-4.5-6.4
	c-0.3-0.4-0.4-1-0.8-1.3C78.7,98,75,93.6,71.8,88.9c-0.3-0.4-0.8-0.8-1.3-1.3c-1.8,3.2-1.4,6.6-0.8,9.9c0.1,0.5,0.4,1,0.4,1.5
	c-0.1,4,0.6,7.8,1.6,11.7c0.7,2.9,0.6,6.1,0.9,9.1c0.2,1.8,0.6,3.6,0.8,5.5c0.1,1.9-0.5,4,0.1,5.8c1.1,3.1,0.4,6.1,0.8,9.4
	c-2.4,0-4.5,0.2-6.7,0c-1.9-0.2-2.4,2-4.1,2.1c0.2,1.7-1.5,2.9-1.6,4.3c-0.2,3.4-2.1,6.1-2.9,9.2c-1.5,5.5-3.6,10.9-5.5,16.3
	c-0.5,1.6-1.1,3.1-1.6,4.7c-1,3.2-1,3.2-0.1,6.8c0,0.1,0.1,0.3,0.1,0.4c0.3,3.2,0.7,6.4,0.8,9.6c0,1.9,0.6,3.6,0.9,5.5
	c0.3,1.8-0.6,3.7,0.8,5.5c0.4,0.5,0,1.6,0.1,2.4c0.2,2.6,0.9,5.1,1.6,7.6c0.7,2.9,1.3,5.8,1.9,8.8c1,5.1,1.6,10.4,4.2,15.2
	c0.3,0.6,0.6,1.2,0.6,1.8c0.1,2.1,0.1,4.2,0,6.2c0,0.7-0.5,1.4-0.8,2.1C59.7,248.8,57.5,248.8,55.3,248.8z M31,65
	c-2.7,6.7-4.8,13.1-6.1,19.6c-1.6,7.5-5,14.2-8.6,20.8c-2.3,4.3-4.1,8.4-3.9,13.3c0,1.3,0,2.5,0,3.7c0,0.6-0.4,1.6,0.6,1.6
	c0.5,0,1.3-0.5,1.6-1c0.5-0.7,0.6-1.6,1.1-2.4c2.9-5.5,5.5-11,8.9-16.2c2.5-3.6,5.5-6.8,8.1-10.2c5-6.4,5.8-11.2,2.7-19
	C34.1,71.8,32.6,68.6,31,65z"/>
</svg>
