<?xml version="1.0" encoding="utf-8"?>
<!-- Generator: Adobe Illustrator 21.0.2, SVG Export Plug-In . SVG Version: 6.00 Build 0)  -->
<svg version="1.1" id="Layer_1" xmlns="http://www.w3.org/2000/svg" xmlns:xlink="http://www.w3.org/1999/xlink" x="0px" y="0px"
	 viewBox="0 0 74 250" style="enable-background:new 0 0 74 250;" xml:space="preserve">
<style type="text/css">
	.st0{fill:#999999;}
</style>
<g>
	<path class="st0" d="M57.9,111.2c0.1,4.4,0.6,9.7,1.1,15c0.4,3.8,0.5,7.7,0.8,11.6c0.1,2.3,0,4.7,0.4,7c0.2,1,0.1,2,0,3
		c-0.3,3.4-0.3,3.4-3.9,3.7c-0.6,0-1.2,0.1-1.8,0.2c-2.2,0.4-2.2,0.4-2.7,2.8c-1.1,5.4-1.6,10.8-2.2,16.3c-0.2,1.4,0.2,2.9,0.9,4.1
		c2,3.3,1.7,6.8,1,10.3c-0.7,3.3-1.6,6.5-2.4,9.7c-0.2,0.9-0.5,1.9-0.2,2.7c1.1,2.8,0.5,5.7-0.2,8.4c-0.8,3.2-1,6.4-1.2,9.6
		c-0.2,2.9-0.3,5.9-1.4,8.7c-0.3,0.6-0.3,1.4-0.3,2.1c0.2,3.3,0.5,6.7,1.5,9.9c0.9,3,1.9,6,1.7,9.2c-0.2,3.8-2.7,5.5-6.2,3.9
		c-4.3-1.9-6.6-5-6.8-9.9c-0.2-4.5-0.4-8.9-0.6-13.4c-0.1-3.6-1.3-6.9-2.8-10.2c-3.3-6.9-6-13.9-8.2-21.2
		c-1.7-5.7-2.9-11.3-3.1-17.3c-0.2-4.7-0.3-9.4-0.5-14c-0.1-2.5-0.5-5-1.1-7.5c-0.6-2.3-1.2-4.7-1.7-7.1c-0.2-0.9-0.6-1.5-1.5-1.6
		c-2.5-0.2-5-0.8-7.4-1.7c-0.4-0.1-0.9-0.1-0.6,0.5c0.4,1.2-0.4,1.2-1.1,1.1c-1.1-0.2-2.1-0.8-3.3-0.7c-0.5,0.1-1-0.3-1.3-0.7
		c-2.2-2.8-3.6-5.9-2.4-9.6c0.2-0.7,0.4-1.4,0.6-2c1.5-4.3,2-8.6,2.2-13.1c0.4-8.8,0.7-17.7,1.2-26.5c0.2-3.2,0.8-6.4,2-9.5
		c1.8-4.7,2.4-9.6,2.9-14.5c0.6-6.5,0.6-13,1.7-19.4c0.3-2.1,1.4-3.5,3.1-4.6c2.6-1.7,5.4-2.8,8.3-3.8c3-1.1,5.2-3.1,7.2-5.4
		c0.8-0.9,1-2,1.3-3.1c0.2-0.7,0.2-1.2-0.4-1.7c-1.1-0.8-1.3-2.3-2.2-3.3c-0.8-0.9-0.8-2.1-0.8-3.2c0-2.5,0.2-5-1.1-7.4
		c-0.6-1.1-0.6-2.7-0.4-4.2c0.2-1.8,0.6-3.6,0.8-5.4c0.4-2.6,1.8-4.5,3.9-5.9c1.7-1.1,3.5-2,5.5-2.6C41.1-1.1,47,1.9,48.8,6.8
		c1.6,4.4,2.1,8.8,1.3,13.5c-0.2,1.4-1.3,2.3-1.8,3.5c-0.5,1.3,0.9,2.5,0.4,3.9c-0.4,0.9-0.8,1.9-1.3,2.8c-1.7,2.9-1.3,5.3,1.6,7
		c2.6,1.5,5.3,2.9,8.4,3.4c1.9,0.3,3.8,0.7,5.6,1.3c2.4,0.8,3.8,2.4,4.2,5c0.7,4.1,0.7,8.1,0.1,12.1C67,61.6,67,64,67,66.3
		c-0.1,5.1,0.1,10.2-0.1,15.3c-0.2,5.6,0.9,11.1,1.7,16.6c0.5,3.1,1,6.2,0.9,9.4c-0.1,4.2,0.6,8.3,1,12.4c0.1,1,0.2,2,0.2,3
		c-0.1,4.3,0.5,8.5,1.1,12.7c0.4,3.1,0.8,6.3,0.1,9.4c-0.8,3.3-2.6,6.1-5.8,7.7c-0.2,0.1-0.5,0.4-0.8,0c-0.1-0.2-0.3-0.6-0.2-0.8
		c0.7-1.8,1.6-3.5,2.3-5.3c0.3-0.9,1.1-1.8,0.7-2.9c-0.1-0.3-0.3-0.6-0.6-0.7c-0.4-0.1-0.4,0.3-0.5,0.5c-0.2,1-0.4,2-0.7,3
		c-0.1,0.2-0.3,0.5-0.6,0.6c-0.5,0.2-0.8-0.3-0.9-0.6c-0.3-1-0.6-2-0.7-3c-0.2-2.8-0.7-5.7,0.3-8.5c1.7-5,1.3-10,0.1-15
		c-1.5-6.1-3.1-12.2-5.5-18c-0.1-0.3-0.3-0.5-0.4-0.8c-0.1,0.3-0.3,0.5-0.3,0.8C57.8,105,58,107.7,57.9,111.2z M34.7,178.4
		c-0.2,4.3,0.8,8.8,1.4,13.3c0.3,2.2,1,4.3,1.5,6.5c0.1,0.2,0.5,0.8,0.5,0.6c-0.1-1.6,1.6-2.5,1.5-4.2s-0.5-3.2-1-4.7
		c-0.7-2.2-1.3-4.4-1.6-6.8c-0.4-3.1-0.6-6.2-1.7-9.2c-0.1-0.2,0-0.6-0.4-0.6c-0.1,0-0.2,0.3-0.2,0.5
		C34.7,175.2,34.7,176.6,34.7,178.4z M21.4,74.7c-0.1-1.2-0.2-2.4-0.3-3.6c0-0.2-0.4-0.6-0.6-0.6c-0.4-0.1-0.3,0.3-0.4,0.6
		c-0.7,2.4-1.3,4.9-2,7.3c-0.8,2.7-1.3,5.5-1.1,8.4c0,0.3,0.2,0.5,0.3,0.8c0.2-0.2,0.4-0.4,0.6-0.7C19.8,83,21.4,79.1,21.4,74.7z"/>
</g>
</svg>
