<?xml version="1.0" encoding="utf-8"?>
<!-- Generator: Adobe Illustrator 21.0.2, SVG Export Plug-In . SVG Version: 6.00 Build 0)  -->
<svg version="1.1" id="Layer_1" xmlns="http://www.w3.org/2000/svg" xmlns:xlink="http://www.w3.org/1999/xlink" x="0px" y="0px"
	 viewBox="0 0 73 250" style="enable-background:new 0 0 73 250;" xml:space="preserve">
<style type="text/css">
	.st0{fill:url(#SVGID_1_);}
</style>
<linearGradient id="SVGID_1_" gradientUnits="userSpaceOnUse" x1="-10.7736" y1="182.9918" x2="39.2264" y2="113.9918" gradientTransform="matrix(1 0 0 -1 0 250)">
	<stop  offset="0" style="stop-color:#FFF7C9"/>
	<stop  offset="0.5" style="stop-color:#FFF100"/>
	<stop  offset="1" style="stop-color:#FFD700"/>
</linearGradient>
<path class="st0" d="M0,81.1c1.4-6.4,2.9-12.8,4-19.2c0.6-3.5,0.4-7,0.7-10.6C5.3,46.5,6.4,42,10.8,39c1-0.7,1.3-2.3,1.5-3.9
	c-1.8,1.1-3.5,2.2-5.3,3.3c-0.2-0.2-0.4-0.4-0.6-0.6c2.7-2.6,6.4-4.4,7-8.8c-1.5,1.3-2.9,2.6-4.4,3.9c-0.2-0.1-0.4-0.3-0.6-0.4
	c1.8-2.2,3.7-4.3,5.3-6.6c1.2-1.7,2-3.7,3.2-6.1c-1.1,0.5-1.7,0.9-2.4,1.2c-0.2-0.2-0.3-0.3-0.5-0.5c1-1.4,2-2.8,3.1-4.1
	c0.8-1,2.8-1.6,0.8-3.3c-0.2-0.1,0.2-1.2,0.6-1.6c1.7-1.6,3.1-3.1,4.7-4.5c2.4-2,4.8-4,7.5-5.6c1.3-0.8,3.3-0.5,5-0.5
	c0.6,0,1.1,0.5,1.7,0.5c5,0.1,6.7,3.6,8.1,8.4c0.7,2.4,2.4,4.5,3.7,6.6c0.4,0.6,1.4,1,1.4,1.6c0,3.1,1.2,5.3,4.7,5.9
	c-0.2,0.3-0.4,0.7-0.6,1c-1.2-0.3-2.3-0.7-3.5-1c-1.9,5.6-1.8,10.9,4.7,14.4c-1.2,0.2-1.9,0.3-2.9,0.5c0.7,0.8,1.2,1.5,2.1,2.7
	c-1.6-0.4-2.6-0.7-3.9-1c0.4,1.1,0.4,2.2,1.1,2.9c4.8,5.1,9.5,10.4,14.7,15.2c5.4,5,6.2,7.9,1,13.2C62.8,77,57.3,82.1,51.4,86.3
	c-4.3,3.1-3.8,7.1-1.4,10.4c7.4,10.1,7.5,21.4,4.8,32.5c-2.7,11.2-7.1,22.1-10.7,33.1c-0.6,1.8-0.6,3.9-0.4,5.9
	c0.2,2.9,0.8,5.8,1.3,8.7c0.2,1.3,0.5,2.6,1.2,3.7c2.6,4,4,8.3,4.7,12.9c1.3,8.2,2.8,16.3,4.6,24.4c0.8,3.9,2.6,7.6,3.5,11.5
	c1.2,4.9,2,9.9,2.8,14.8c0.7,4.1-1.1,5.7-5,4.6c-5.6-1.7-6.3-2.7-6.4-8.6c0-3.2-0.5-6.4-0.7-9.6c-0.1-1-0.4-2.1-0.1-3
	c1.6-3.9,0-7.1-1.7-10.4c-3.5-6.8-7.2-13.5-11.2-21c-4.3,9.8-9.5,18.2-9.8,28.4c-0.1,4.5-0.5,9-0.7,13.5c-0.2,4-3.3,5.5-6,7.4
	c-3.4-2.1-4.6-4.8-3.8-8.5c1.2-5.7,2.7-11.3,3.6-17.1c1.7-10.2,3-20.5,4.8-30.7c0.7-4.2,2-8.4,3.7-12.3c1.6-3.7,2-6.9,0.2-10.7
	c-4.1-8.7-7.3-17.8-11.9-26.2c-6.8-12.4-6-25.4-4.8-38.5c0.1-0.7,0.1-1.5,0.4-2.1c3.1-6.1,1.7-12.2-0.2-18.3
	c-0.7-2.4-1.3-4.8-2.7-7.4c-0.4,1.3-0.9,2.7-1.1,4C7.9,84,6.9,90.3,6.6,96.6C6.3,102.3,6.7,108,7,113.7c0.1,2.1,0.7,4.1,1,6.1
	c0,0.3,0,0.8-0.1,0.9c-3.8,2.6-1.1,5.6-0.6,8.5c0.2,1.3,0.7,2.6,1,3.9c-0.2,0.1-0.5,0.2-0.7,0.3c-1.2-1.8-2.3-3.6-3.5-5.4
	c-0.1,0-0.3,0-0.4,0.1c0.3,1.6,0.6,3.2,0.9,4.8c-2.9-3.9-3.7-8.4-2.8-12.9c1.6-8.5-0.6-16.7-1.6-25C0,90.4,0,85.8,0,81.1z
	 M48.8,58.9c-0.5-0.1-1-0.1-1.6-0.2c-0.3,1.5-0.5,3.1-0.9,4.6c-0.6,2.4-1.1,4.8-2.2,7c-2,4.3-3.5,8.6-2.9,13.4c0.2,1.5,1.1,3,1.5,4
	c10.2-4.8,13-15.3,19.6-22.4c-3.4-2-6.8-4-10.2-6.1c-0.5,1.2-1,2.3-1.7,4c-0.3-1.2-0.4-1.6-0.6-2.1c-0.2-0.1-0.4-0.1-0.7-0.2
	c-0.6,1.6-1.2,3.3-1.8,4.9c-0.1,0-0.3-0.1-0.4-0.1C47.6,63.5,48.2,61.2,48.8,58.9z"/>
</svg>
