<?xml version="1.0" encoding="utf-8"?>
<!-- Generator: Adobe Illustrator 21.0.2, SVG Export Plug-In . SVG Version: 6.00 Build 0)  -->
<svg version="1.1" id="Layer_1" xmlns="http://www.w3.org/2000/svg" xmlns:xlink="http://www.w3.org/1999/xlink" x="0px" y="0px"
	 viewBox="0 0 83 250" style="enable-background:new 0 0 83 250;" xml:space="preserve">
<style type="text/css">
	.st0{fill:url(#SVGID_1_);}
</style>
<g>
	<radialGradient id="SVGID_1_" cx="10" cy="46" r="102.6937" gradientUnits="userSpaceOnUse">
		<stop  offset="0" style="stop-color:#F074AC"/>
		<stop  offset="1" style="stop-color:#9E005D"/>
	</radialGradient>
	<path class="st0" d="M44.8,26.6c0,1.1,0.1,2.3,0,3.4c-0.6,6,0.1,10.7,8,9.9c1.8-0.2,3.7,1,4.7,2.5c6.9,10.4,16.7,18.5,22.8,29.5
		c2.4,4.4,2.2,7.8-1.3,11.6c-5.6,5.9-10.8,12.3-17.7,16.5c-7.1,4.4-9.3,11.5-11.8,18.4c-5.1,14.1-8.2,28.8-15.1,42.3
		c-3.5,6.8-4.4,13.3-0.6,21c4.8,9.6,3.5,20.4,2.2,30.8c-0.5,3.7-0.1,7,1.3,10.4c2.7,6.7,2.7,13.9,2,20.9c-0.4,3.9-3.9,4.6-7.1,5
		c-3,0.4-3.9-1.6-4.4-4c-0.1-0.4-0.4-0.8-0.6-1.2c-0.2,0.4-0.5,0.9-0.7,1.3c-1.3,3.8-4.1,4.5-7.6,3.8c-3.6-0.7-3.9-3.6-4-6.4
		c-0.1-2.3-0.1-4.8,0.6-7c3-10.4,1.4-20.2-1.7-30.3c-3.6-11.9-4.5-24.1-3.3-36.7c1.4-14.2-4.2-27.8-6.8-41.7
		c-1.6-8.8,0.1-17.3,3.3-25.8c1.3-3.5-0.9-8.9-2.8-12.8c-3.4-6.7-4.1-13.4-2.4-20.5C3,62.6,2.5,56.4,5.4,53.1
		c10.2-11.7,7.6-26.4,11.1-39.6C18.8,5.2,23.1,1,30.6,1C37.3,1,43,6.3,44.3,14.3c0.7,4,0.5,8.2,0.8,12.2
		C45,26.6,44.9,26.6,44.8,26.6z M69,78.4c-0.2-0.6-0.3-1-0.6-1.3C64.2,72,60,66.8,55.7,61.7c-1.1-1.4-1.6-0.1-1.8,0.8
		c-1.6,5.6-3.1,11.7-1.2,16.9c3.2,8.4,2.7,15.4-3.2,22.1c-0.3,0.3-0.3,0.8-0.5,1.3c0.4-0.2,0.9-0.4,1.2-0.7
		c6.2-6.6,12.3-13.2,17.2-20.8C68,80.4,68.5,79.3,69,78.4z M28.1,223.7c-0.3-3.3-0.6-6.5-2-9.4c0,0-0.5,0-0.5,0.1
		c-0.4,3.2-0.5,6.3,0.7,9.3c0.4,0.9,0.9,1.6,1.4,2.5C27.8,225.4,28,224.5,28.1,223.7z M13,76.8c-0.1-0.9,0.1-1.8-1-1.9
		c-0.1,0-0.6,0.8-0.5,1.1c0.2,1,0.6,2,1,2.9C12.6,78.2,12.8,77.5,13,76.8z"/>
</g>
</svg>
