<?xml version="1.0" encoding="utf-8"?>
<!-- Generator: Adobe Illustrator 21.0.2, SVG Export Plug-In . SVG Version: 6.00 Build 0)  -->
<svg version="1.1" id="Layer_1" xmlns="http://www.w3.org/2000/svg" xmlns:xlink="http://www.w3.org/1999/xlink" x="0px" y="0px"
	 viewBox="0 0 90 250" style="enable-background:new 0 0 90 250;" xml:space="preserve">
<style type="text/css">
	.st0{fill:url(#SVGID_1_);}
</style>
<g>
	
		<radialGradient id="SVGID_1_" cx="13.2875" cy="207.4728" r="94.8736" gradientTransform="matrix(1 0 0 -1 0 250)" gradientUnits="userSpaceOnUse">
		<stop  offset="0" style="stop-color:#B07EB7"/>
		<stop  offset="0.5" style="stop-color:#8C3D96"/>
		<stop  offset="1" style="stop-color:#762A90"/>
	</radialGradient>
	<path class="st0" d="M47.7,249.4c-0.8,0-1.6-0.1-2.4,0c-2.8,0.4-3.6-0.5-3.1-3.4c0.2-1.2-0.3-3.1-1.7-4.2c-0.5-0.4-0.5-1-0.4-1.5
		c0-0.7,0.4-0.6,0.9-0.5c0.4,0.1,0.8-0.1,0.8-0.5c0.3-2.6,1.5-5.6,0.5-7.6c-1.1-2.1-1-4.2-1.9-6.2c-0.6-1.5-1.3-2.8,0.4-4.2
		c1-0.8,0.3-2.4-0.2-3.5c-4.6-10.3-7.1-21.3-10.5-32.1c-1.3-4.3-1.4-8.7-1-13.1c0.2-2.2-0.1-4.2-0.8-6.2c-2.2-6.1-4.2-12.3-6.2-18.5
		c-0.4-1.1-0.9-1.3-2-1.6c-2.6-0.6-5.1-1.5-7.8-0.5c-1.3,0.5-1.9-1-1.5-1.8c0.6-1.2,0.2-2.6-0.2-3.1c-1.8-1.9-1-3.9-0.5-5.7
		c0.4-1.5-1.2-2.4-0.6-3.8c2.3-5.7,1.5-11.7,1.6-17.6c0.1-8.6,0.2-17.1,2.2-25.6c0.7-2.8,1.1-6.1,0.5-8.8c-1-4.2,0-8.5-1.5-12.7
		c-1.1-3.2-0.8-6.9-1.1-10.4c-0.1-1.4-0.7-2.4-1.9-3.2c-2.4-1.6-2.7-4.8-0.8-7c0.6-0.7,1.1-1.4,1.7-2.1c-0.5-0.2-1-0.4-1.6-0.5
		c-1.3,0-2.2,0.6-2.9,1.7c-0.3,0.5,0.1,1.7-0.8,1.5c-0.8-0.2-0.9-1.4-0.7-2.3c0.4-2.9,2.3-4.2,5.4-3.7c3.4,0.5,5.7-2,5-5.4
		c0-0.2-0.1-0.3-0.2-0.4c-0.2,0.2-0.4,0.4-0.6,0.6c-2.9,3-6.2,3.2-7.9,0.3c-0.2-0.3-0.2-0.7-0.3-1c0.2,0.2,0.5,0.4,0.7,0.7
		c1.2,1.6,2.9,1.7,4.6,1.4c1.1-0.2,1.6-1.3,2.2-2.2c-0.6,0.3-1.2,0.6-1.9,0.8c-1.7,0.5-4.1-1.3-4.1-3.1c0-0.2,0.1-0.4,0.2-0.7
		c-0.3,0.1-0.1,0.2,0,0.3c1.5,2.3,3,0.8,4.2-0.1c1.1-0.8-0.2-1.1-0.7-1.2c-3.5-0.8-6.1-3.5-9.7-4.3c-0.4-0.1-0.8-0.7-1.1-1.1
		c0.7-0.5,0.8,0.4,1.3,0.5c3,0.6,5.8,1.9,8.6,2.8c3,0.9,5.1-1.8,7.4-3.3c3-1.9,4.7-4,4.1-8.4c-0.8-6,1.5-11.9,7.4-14.8
		c8-4,16.2-0.8,18.5,9.7c1.2,5.5,3.5,10,7.7,13.7c1.2,1,2,2.1,2.3,3.7c0.4,1.9,1.6,3.8,3.5,4.3c2.3,0.5,4.3,1.6,6.5,2.6
		c0.7,0.3,1.4,0.6,1.8,1.3c0.5,0.8,1.1,2,0.6,2.4c-0.6,0.5-0.8-0.8-1.3-1.3c-1.5-1.5-3.6-1.2-5.4-1.9c-0.1,0-0.3,0.1-0.4,0.2
		c0.1,0.1,0.2,0.3,0.3,0.4c0.5,0.3,1.1,0.6,1.6,0.9c2.7,1.7,4.7,3.8,4.5,7.3c-0.3,4.6,1,8.9,2.6,13.2c0.6,1.6,1.1,3.3,1.6,5
		c0.2,0.8,0.4,2-0.5,2.1c-3.5,0.5-1.6,3-1.4,4.2c1.1,7.2,3.4,14,6.3,20.7c2.1,4.8,2.9,10.1,3.2,15.3c0.2,4.9,3.3,7.9,6.7,10.6
		c1.7,1.4,1.1,2.9,0.6,4.4c-0.5,1.4-0.4,3.3-2.8,3.2c-1.8-0.1-3.6,0.2-5.4,0.4c-1.9,0.2-2.5-1.6-3.6-2.6c-0.6-0.5,0.9-1,1.6-1.1
		c1.7-0.3,2.5-0.8,1-2.5c-1.4-1.6-2.6-3.4-2.2-5.9c0.1-0.7-0.5-1.6-0.9-2.4c-2.7-5.7-5.7-11.4-8-17.2c-2.5-6.4-3.4-13.3-6.3-19.6
		c-0.7-1.5-1.4-2.9-1.5-4.5c0-0.6-0.4-1.1-0.7-1.7c-0.2,0.6-0.5,1.3-0.5,1.9c-0.4,5.5-1.5,11-2.6,16.4c-0.3,1.6,0.3,2.9,1,4.3
		c4,8.8,4.9,18.1,4.5,27.6c-0.1,3.2,0.6,6.3-0.3,9.5c-1.8,6.5-1.4,13.4-3.4,19.9c-2.2,7.1-3.2,14.4-3.6,21.8c-0.1,2.1,0,3.9,1,5.9
		c1.9,3.8,1.1,7.8,0.3,11.7c-1.2,5.2-1.5,10.5-3.5,15.4c-0.4,1.1,0.6,1.2,0.8,1.8c0.8,3,0.8,5.9-0.6,8.7c-0.3,0.6-0.1,1,0,1.4
		c0.9,2.5-0.3,5.2,1.3,7.7c1.1,1.8-1.7,3.2-1.6,5.2c0.2,4.4-0.9,8.9,1.2,13.1c0.8,1.5,0.8,3.1,0.4,4.5c-0.4,1.5-0.5,2.9-0.3,4.4
		c0.1,0.9-0.2,1.2-1.1,1.2C50.8,249.3,49.3,249.4,47.7,249.4z M40.8,158.6c-0.5-4.6-1-9.1-1.4-13.6c-0.1-1.2-0.8-1-1.5-1
		c-1.3,0-0.6,0.8-0.5,1.3c0.9,4.5,1.8,8.9,2.7,13.4c0.1,0.5,0.2,1,0.4,1.5C40.5,159.6,40.6,159.1,40.8,158.6z"/>
</g>
</svg>
