<?xml version="1.0" encoding="utf-8"?>
<!-- Generator: Adobe Illustrator 21.0.2, SVG Export Plug-In . SVG Version: 6.00 Build 0)  -->
<svg version="1.1" id="Layer_1" xmlns="http://www.w3.org/2000/svg" xmlns:xlink="http://www.w3.org/1999/xlink" x="0px" y="0px"
	 viewBox="0 0 100 250" style="enable-background:new 0 0 100 250;" xml:space="preserve">
<style type="text/css">
	.st0{fill:url(#SVGID_1_);}
</style>
<g>
	<radialGradient id="SVGID_1_" cx="34.7601" cy="37.6" r="111.8034" gradientUnits="userSpaceOnUse">
		<stop  offset="0" style="stop-color:#D471AD"/>
		<stop  offset="0.5" style="stop-color:#C7158C"/>
		<stop  offset="1" style="stop-color:#9D248E"/>
	</radialGradient>
	<path class="st0" d="M73.8,78.3c-0.2,1.7-0.1,1.7,0.8,2.6c1.8,1.7,2.7,2.8,3.8,5.7c0.5,1.4,0.7,2.6,2.2,3.1
		c0.3,0.1,0.7,0.2,0.7,0.4c0.1,2.4,2.7,3.6,2.9,6.1c0.2,2.5,0.6,4.9-1.6,6.8c-0.5,0.5-0.3,1-0.3,1.6c0.9,8.1,0.1,16-1.7,23.9
		c-1.1,5-2,10.1-1.8,15.2c0,0.9,0.2,1.8,0.5,2.5c2.9,7.2,3.6,14.8,3.9,22.5c0.3,9.5,1.3,19,2.1,28.5c0.8,10.2,1.8,20.4,3,30.6
		c0.1,1.3,0.4,2.6,0.4,3.9c0,1.8,1.3,3.9-0.7,5.4c1.1,1.5-0.3,3.4,1.2,4.9c1.3,1.4,2,3,1.7,5.1c-0.2,1.5-1,2-2.1,2.2
		c-2.7,0.4-5.5,0.8-7.7-1.5c-0.6-0.7-1.6,0-2.4-0.5c-2.3-1.3-3.9-3-3.8-5.8c0.1-2.3-1.1-2.4-2.8-2.3c-4.4,0.3-8.7,1.4-13,2.4
		c-1.4,0.3-2.9,0.8-3.9-0.7c-0.4-0.5-0.8-0.2-1.1,0c-1.6,1.1-3.2,0.6-4.8,0.2c-2.2-0.7-2.7-2.1-1.7-4.3c0.2-0.5,0.4-1.1,0.6-1.6
		c0.4-1.1,0.3-1.8-1.1-1.8c-0.6,0-1.1-0.3-1.7-0.3c-1.6-0.1-2.1-1-1.7-2.5c0.4-1.6-0.2-2.2-1.9-2.3c-2.1-0.1-4.2-0.5-6.3-0.4
		c-2.2,0-3.2-1.3-2.6-3.4c3.6-13.1,6.7-26.3,10.5-39.3c2-6.9,4.2-13.8,5.6-20.9c0.9-4.2,3.3-8,4.3-12.2c0.7-2.8,1.4-5.6,1.6-9
		c0.6-3-0.1-5.9-2-9.1c-3.3-5.8-6.1-11.9-7.3-18.6c-0.6-3.2-1.7-6.3-1-9.6c0.2-1-0.2-1.3-1.2-1.2c-2.1,0.2-3.8-0.7-5.6-1.9
		c-3.7-2.7-7.5-5.1-11.3-7.7c-2-1.3-3.3-3.4-5.1-5c-4.4-3.8-7.7-8.5-11.6-12.8c-1-1-1.1-2.3-0.8-3.6c0.9-4.2,2.9-8,5.2-11.6
		c2.7-4.4,5.5-8.6,8.3-12.9c0.7-1,1-2.2,1.5-3.4c2.3-5.9,5.7-10.6,12.2-12.5c1.2-0.4,2.8-0.8,3.3-2.5c0.2-0.8,1.1-0.8,1.8-0.9
		c2-0.5,2.6-1.6,1.9-3.5c-1.6-4.2-1-8,1.2-11.9c1.4-2.6,2.4-5.3,4-7.8c3.7-5.5,12.3-7.9,18-4.6c4.8,2.8,6.7,10.2,3.9,15
		c-0.3,0.5-0.4,0.8-0.3,1.4c0.1,0.6,0.1,1.4-0.2,1.9c-2.4,3.7-2.6,8.2-4.5,12.1c-0.3,0.6-0.5,1.2-0.9,1.7c-1.3,1.8-1,3,0.9,3.8
		c0.4,0.2,2,3.8,1.9,4.8c-0.1,0.6-2-0.2-2-0.2l-1.9-1.2c0,0-0.6-2-0.6-1.1c-0.1,0.8,0.6,1.3,1.3,1.5c3.2,1,5.7,2.6,5.9,6.4
		c0.1,1.5,1.6,2.2,2.6,3c3.3,2.5,5.6,8.4,3,12.8c-0.8,1.4-1.9,2.4-3.2,3.1c-0.8,0.4-0.7,0.7-0.5,1.6 M47.4,86.6
		c0.5-1.9-0.3-3.9-2.1-5.7c-1.5-1.5-2.4-3.4-3.7-5.1c-2.4-3-2.8-7-5-10.1c-1.9-2.6-2.7-5.7-3.6-8.8c-0.2-0.5-0.2-1.5-0.5-1.6
		c-0.8-0.2-1,0.7-1.3,1.2c-3.2,5-6.3,10-9.4,15c-0.6,0.9-0.3,1.6,0.2,2.4c1.5,2.5,2.9,5,4.5,7.4c1.3,2,2.5,4.2,4.5,5.5
		c3.1,1.9,5.4,4.5,7.9,7c1,1,2.1,2.2,3.5,1.5c1.6-0.8,3.5-1.8,4.1-3.8C46.9,90.2,47.1,88.6,47.4,86.6z"/>
</g>
</svg>
