<?xml version="1.0" encoding="utf-8"?>
<!-- Generator: Adobe Illustrator 21.0.2, SVG Export Plug-In . SVG Version: 6.00 Build 0)  -->
<svg version="1.1" id="Layer_1" xmlns="http://www.w3.org/2000/svg" xmlns:xlink="http://www.w3.org/1999/xlink" x="0px" y="0px"
	 viewBox="0 0 68 250" style="enable-background:new 0 0 68 250;" xml:space="preserve">
<style type="text/css">
	.st0{fill:url(#SVGID_1_);}
</style>
<g>
	<radialGradient id="SVGID_1_" cx="8" cy="50" r="74.686" gradientUnits="userSpaceOnUse">
		<stop  offset="0" style="stop-color:#BDD6F3"/>
		<stop  offset="0.5" style="stop-color:#00AEEE"/>
		<stop  offset="1" style="stop-color:#0095DA"/>
	</radialGradient>
	<path class="st0" d="M4.4,94.7c1.7-9.3-0.8-15.1,0.1-22.9c0.2-1.8-0.8-3.1-1.6-4.7c-2.1-4-0.2-7.8,2-11.3c2.7-4.3,7.1-8.1,8.1-13.3
		c0.3-1.5,1.8-2,3.1-2.4c2.1-0.6,2.7-2.1,2.3-4.2c-1.3-6.1-0.6-12.3-0.6-18.5c0-4.4,1.8-8.2,4.3-11.8c2-2.9,4.9-3.7,8-4.6
		c1.1,0,2.2,0,3.3,0c8.8,4.1,11.8,11.6,12.4,20.7c0.5,6.8,0.6,13.8,3.9,20.1c4.9,9.4,7.4,19.8,12.9,29c1.6,2.7,2.6,5.8,3.7,8.7
		c1.6,4.1,0.8,6.5-2.6,9.5c-6.4,5.5-12.9,10.7-19.8,15.6c-3.1,2.2-4.2,4.7-3.5,8.5c1,5.2-0.8,10-2.8,14.8c-4.2,9.9-5.9,20.2-3.7,31
		c0.8,3.7,1.7,7.3,3.5,10.5c6.1,10.6,7.4,22.3,8.2,34.2c0.2,2.7,0.4,5.5,0.7,8.2c0.4,3.5,1.5,6.7,3.6,9.5c1.7,2.3,2.1,4.8,0.8,7.4
		c-2.3,4.6-3.6,9.5-4.3,14.6c-0.1,0.6,0,1.7-0.9,1.5c-0.8-0.1-0.6-1.1-0.6-1.8c0-1.5,0.1-3,0.1-4.5c-0.1-1.6,0.7-3.9-1.3-4.3
		c-1.9-0.3-2.1,2.1-3,3.5c-0.3,0.5-0.5,1-0.7,1.5c-1.8,4.9-4,9.4-10.1,10c-0.6,0-1.1,0-1.7,0c-0.3-0.2-0.7-0.6-1-0.7
		c-4.3-0.1-4.7-3-4.5-6.4c0-0.4,0-0.8-0.1-1.2c-0.3-1.7,0.5-4.5-1.2-4.8c-2.1-0.4-2.5,2.4-3.3,4.1c-0.1,0.2-0.2,0.5-0.3,0.8
		c-1.1,1.9-0.3,5-3.2,5.8c-3.9,1.1-7.9,1.1-11.8-0.1c-2.6-0.8-2.7-3-0.5-4.7c1-0.7,2.1-1.3,3.2-1.9c1.3-0.8,2.4-1.9,2.6-3.5
		c1.2-9.3,4.9-18.1,5.8-27.4c0.9-9.6,0.7-19.3,0.7-28.9c0-5.3-2.7-10.1-3.1-15.3c-0.3-3.7-1-7.4-1.6-11c-1.5-9.7-4.8-18.9-7.4-28.3
		c-0.5-1.9-1.2-3.7-1.1-5.6C0.3,109.3,2.4,105.5,4.4,94.7z M33.3,86.7C33,91.1,35,95,36.7,99.1c0.9,2.2,2.2,1.9,3.7,0.4
		c4.8-4.9,9.2-10.2,13-15.9c0.7-1.1,1.1-2.2,0.6-3.5c-1.2-2.9-2.4-5.9-4.6-8.2c-2.6-2.7-7.1-3.2-9.3-0.4
		C36.5,75.8,33,80.4,33.3,86.7z M35.3,218.2c0-6.7-2-13-3.9-19.3c-0.2-0.6-0.3-1.5-1.1-1.5c-0.7,0.1-0.9,0.9-1.1,1.6
		c-0.9,3.7-2.1,7.4-3.4,11c-2,5.3-2,10.5,1.4,15.3c1.2,1.7,1.2,3.2,0.2,4.9c-0.9,1.8-1.7,3.8-2,5.8c-0.2,1,0.2,1.8,1.3,1.2
		c2-1.1,4.5-1.9,5.2-4.4C33.4,228.1,35.7,223.5,35.3,218.2z"/>
</g>
</svg>
