<?xml version="1.0" encoding="utf-8"?>
<!-- Generator: Adobe Illustrator 21.0.2, SVG Export Plug-In . SVG Version: 6.00 Build 0)  -->
<svg version="1.1" id="Layer_1" xmlns="http://www.w3.org/2000/svg" xmlns:xlink="http://www.w3.org/1999/xlink" x="0px" y="0px"
	 viewBox="0 0 83 250" style="enable-background:new 0 0 83 250;" xml:space="preserve">
<style type="text/css">
	.st0{fill:#999999;}
</style>
<path class="st0" d="M24.9,34.2c0.4-0.2,0.6-0.3,0.8-0.4c0,0.1,0.1,0.2,0,0.3c-0.3,0.7-0.6,1.5-1.1,2.2s-1.2,1.3-1.7,2
	c-1.1,1.3-2.7,1.1-4,1.2c-3,0.4-4.9,3.3-5.5,5.8c-0.8,4-1.1,7.9-1.2,12c0,4.8-0.3,9.5-0.7,14.3c-0.2,2.4-0.7,4.8-1.8,7.1
	c-0.9,1.8-1.3,3.8-1.9,5.7c-0.6,2.4-1.2,4.7-1.6,7.1c-0.4,2.2-0.7,4.4-1,6.6c-0.6,3.9-0.5,7.8-1.7,11.6c-0.5,1.6-0.5,3.4-1,5
	c-0.6,1.9-1.5,3.6-2.3,5.4c-0.5,1.1-0.1,2.1,0.3,3.1c0.5,1.3,0.9,2.7,1.4,4c0.2,0.4,0.5,1,0.9,1.1c1.9,0.6,3.8,1.1,5.8,1.7
	c0.1,0,0.1,0,0.3,0c0-0.4,0-0.7,0-1.2c0.1-0.1,0.3-0.1,0.5-0.2c0.3-0.2,0.6-0.5,0.9-0.7c-0.4-0.3-0.8-0.7-1.2-0.9
	c-0.3-0.1-0.7,0-1.1,0c0.1-1,0.5-2,0.4-2.9c-0.4-1.8,0.4-3.3,1-4.9c0.4-1.1,0.6-2.3,0.1-3.3c-1.4-3-0.7-5.7,0.5-8.5
	c1.8-4,3.5-7.9,5.2-11.9c0.5-1.3,0.6-2.7,1.1-4c0.6-1.8,1.3-3.5,1.9-5.2c0.7-2,1-4,1.1-6.1c0.1-2.5,0.5-5,0.8-7.5
	c0.1-0.9,0.2-1.8,0.5-2.7c0.1,0.8,0.2,1.6,0.4,2.4c0.2,1.4,0.5,2.9,0.7,4.3c0.2,1.7,0.5,3.4,0.6,5c0.2,2.2,0.4,4.4,0.2,6.6
	c-0.3,3.6-0.8,7.2-1.2,10.8c-0.2,2.1-0.5,4.2-0.7,6.4c-0.1,1.2-0.2,2.3-0.2,3.5c0.1,3.5,0.3,6.9,0.4,10.4c0.1,2.2,0.2,4.4,0.2,6.6
	c0.1,2.9,0.1,5.8,0.2,8.8c0.2,2.8,0.6,5.7,0.8,8.5c0.2,2.1,0.3,4.3,0.5,6.4c0.2,2.7,0.5,5.5,0.9,8.2c0.5,3.7,1.1,7.5,1.5,11.2
	c0.2,2.3,0,4.7,0,7.1c0,0.2-0.1,0.4-0.2,0.6c-2.5,3.2-2.2,6.7-1.4,10.4c0.8,3.3,1.3,6.6,2,9.9c0.1,0.4,0.3,0.7,0.3,1.1
	c0.2,0.7,0.3,1.3-0.1,2c-0.3,0.6-0.3,1.7,0.1,2.2c0.8,1.4,0.5,2.8,0.3,4.1c-0.7,3.8-1.5,7.5-2.1,11.3c-0.7,4.1,0.9,7.7,2.7,11.2
	c0.3,0.6,1.3,1,2.1,1.6c-0.2,1.4-0.5,3.1-0.8,4.8c-0.4,2.1-1.1,4.1-1.5,6.2c-0.4,2-0.5,4,0.4,5.9c0.4,0.8,1.3,1.7,2.1,1.8
	c2.1,0.2,4.3,0.1,6.4-0.3c2.1-0.4,3-2.1,3.3-4.6c0.2-2-0.3-3.7-0.5-5.6c-0.2-1.7,0.3-3.5,0.6-5.2c0.1-0.7,0.5-1.3,0.5-2
	c0-0.6-0.1-1.3-0.3-1.9c-0.4-1-0.6-1.9,0-3c1.1-2,1.6-4.2,1.8-6.5c0.2-2.5,1.2-4.7,2.1-7c1.6-3.8,3.1-7.6,4.5-11.4
	c1.3-3.6,2.6-7.1,3.7-10.8c0.8-2.6,1.2-5.4,1.5-8.1c0.7-5.5,1-11.1,2.3-16.6c1.8-8.2,4.6-16,7.3-23.8c1.4-4.1,2.8-8.1,4.1-12.2
	c1.5-4.5,2.2-9.1,1.9-13.9c0-0.5,0.1-1,0.2-1.5c1.1,2.6,2.7,5,2.6,8c0,0.5,0.1,1.1,0.3,1.6c0.9,1.9,1.8,3.7,2.9,5.5
	c0.9,1.6,1.2,3.2,0.9,5c-1.1,0.4-2.8-0.6-3.3,1.5c0.7,0.1,1.5,0.3,2.3,0.4c-0.6,0.6-1.5,1.1-1,2.3c0.6-0.2,1.1-0.4,1.8-0.7
	c0.4,0.7,0.7,1.4,1.1,2.3c2.4-1.7,4.9-3.3,5.3-6.7c0.1-1.2,0.5-2.3,0.9-3.4c0.5-1.3-0.2-2.2-0.9-3c-2.9-3.1-4.6-6.9-5.5-11.1
	c-0.8-3.7-1.8-7.4-2.6-11.2c-0.4-1.9-0.6-3.8-0.9-5.6c-0.5-4.8-1.2-9.5-3.2-13.9c-1.2-2.7-2-5.6-2.1-8.6c-0.2-3.5-0.7-7.1-0.8-10.6
	c-0.1-1.6,0.5-3.3,0.7-4.9c0.2-1.5,0.5-2.9,0.5-4.4c0.1-1.9,0-3.8,0-5.8c1.4,0.8,1.5,1.9,0.9,3.2c-0.3,0.5-0.3,1.2-0.5,1.8
	c0.1,0,0.2,0.1,0.3,0.1c0.3-0.8,0.7-1.6,1-2.4c0.1,0,0.2,0,0.3,0c0.1,0.5,0.1,1,0.2,1.6c0,0.5,0,1.1,0,1.9c0.7-1.3,0.7-2,0.3-3.6
	c-0.2-0.7-0.2-1.3-0.3-2c-0.1-0.8-0.3-1.6-0.3-2.3c0-0.6-0.2-1.3,0.1-1.8c0.7-1.2,0.3-2.3-0.4-3.3c-1.2-1.8-2.5-3.5-3.7-5.3
	c-0.3-0.5-0.4-1.1-0.5-1.7c0.6,0.7,1.1,1.4,1.7,2.1c0.1-0.1,0.1-0.1,0.2-0.2c-0.4-0.9-0.9-1.8-1.3-2.6s0.7-2.2,1.6-2.1
	c0.2,0,0.5,0.4,0.6,0.7c0.2,0.5,0.4,1.1,0.4,1.7c0.1,0.5,0,1.1,0.1,1.6c0.4-3.4-0.4-6.3-3.2-8.4c1.7,0,2.8,0.9,3.8,3.2
	c0.4-1.1-0.4-2.6-2.7-4.5c1,0.1,1.8,0.1,2.9,0.2c-1.4-0.9-2.6-1.7-3.9-2.5c0-0.1,0.1-0.2,0.1-0.3c0.5,0,1,0,1.7,0
	c-0.5-0.6-0.8-1.1-1.2-1.5c-0.6-0.6-0.3-0.9,0.2-1.3c0.3-0.3,0.7-0.5,0.9-0.9c-0.5,0.2-0.9,0.4-1.6,0.7c-0.2-0.6-0.6-1.2-0.7-1.9
	c-0.4-2.6-0.7-5.3-1.2-7.9c-0.7-3.4-2.5-6.4-4.7-9.1c-2.3-3-5.5-4.3-9.1-4.2c-1.3,0-2.7-0.1-4,0.2C44,1.1,43,1.9,41.9,2.5
	c-0.5,0.3-0.9,0.8-1.3,1.3c-0.9,0.9-1.8,1.6-3.1,2.1c-2,0.7-3.5,2.2-4.4,4.2c-0.3,0.7-1.2,1.2-1.8,1.8c-0.9,0.9-1.8,1.9-2.8,2.8
	c-0.4,0.5-0.9,0.9-1.3,1.4c-1.6,0.9-1.7,2.8-1.6,4.7c0.1,1.4,0.2,2.9,0.4,4.3c0.1,1,0.4,2,0.6,3.1c0,0.4-0.4,0.7-0.5,1.1
	C25.7,30.8,25.3,32.4,24.9,34.2z M56.8,62.9c0,0.5,0,0.9,0,1.2c-0.3,3.7,0,7.4,0.8,11.1c0.5,2.7,1,5.5,1.1,8.3
	c0.1,1.9-0.1,3.8,0.5,5.6c1.3,3.8,2.7,7.5,4,11.3c0.3,0.8,0.5,1.5,0.8,2.3c-0.1,0-0.2,0.1-0.3,0.1c-0.2-0.2-0.3-0.3-0.5-0.5
	c-0.5-0.9-1-1.7-1.4-2.6c-1.3-2.3-2.6-4.7-3.9-7C57,91,56.1,89.4,55,87.8c-1-1.6-2.5-2.9-2.8-4.9c-0.2-1.2-0.2-2.4-0.3-3.5
	c-0.4-3.5-0.1-6.8,1.6-10c0.4-0.7,0.8-1.5,0.8-2.2C54.2,65.4,55.2,64.2,56.8,62.9z M43.7,127.8c0.1,0,0.3,0,0.4,0
	c0,2.4-0.1,4.9,0,7.3c0.1,3.4,0.4,6.9-0.4,10.3c-0.5,2.3-1.2,4.6-1.7,7c-0.4,2.3-0.5,4.6-0.9,6.8c-0.3,1.7-0.8,3.3-1.2,5
	c-0.1,0.5-0.2,0.9-0.3,1.4c-0.3-0.1-0.3-0.3-0.4-0.4c-0.1-2-0.4-4.1-0.2-6.1c0.4-4.3,0.8-8.7,1.4-13c0.7-4.6,1.6-9.2,1.5-13.9
	C42.1,130.4,42.8,129.1,43.7,127.8z M36.4,191.9c-0.5,5.3,0.1,10.6-1.5,15.6c-0.1-0.3-0.2-0.7-0.2-1.1c0-0.8-0.2-1.8,0.2-2.5
	c1-1.8,0.9-3.5-0.2-5.2c-0.3-0.4-0.5-1.1-0.4-1.5C34.9,195.4,35.6,193.7,36.4,191.9z M27.5,17.2c-0.7,2.2,0.1,4.5-0.8,6.7
	C26.4,21.6,25.8,19.2,27.5,17.2z M38.8,177.3c0.2,0,0.3,0.1,0.5,0.1c-0.3,1.4-0.7,2.9-1,4.3c-0.1,0-0.2-0.1-0.4-0.1
	C38.2,180.2,38.5,178.8,38.8,177.3z"/>
</svg>
