<?xml version="1.0" encoding="utf-8"?>
<!-- Generator: Adobe Illustrator 21.0.2, SVG Export Plug-In . SVG Version: 6.00 Build 0)  -->
<svg version="1.1" id="Layer_1" xmlns="http://www.w3.org/2000/svg" xmlns:xlink="http://www.w3.org/1999/xlink" x="0px" y="0px"
	 viewBox="0 0 105 250" style="enable-background:new 0 0 105 250;" xml:space="preserve">
<style type="text/css">
	.st0{fill:url(#SVGID_1_);}
</style>
<radialGradient id="SVGID_1_" cx="25.4143" cy="207.1045" r="88.0057" gradientTransform="matrix(1 0 0 -1 0 250)" gradientUnits="userSpaceOnUse">
	<stop  offset="0" style="stop-color:#95DEBD"/>
	<stop  offset="0.5" style="stop-color:#00A550"/>
	<stop  offset="1" style="stop-color:#00914C"/>
</radialGradient>
<path class="st0" d="M25.7,247.3c-0.8-3.5,0.1-7-0.5-10.8c-3.6-0.8-4.8,2.5-6.7,4.3c-2.1,2-2.3,4.8-3,7.8c-4.9,0.8-9.7,0.2-15.1,0.2
	c1.3-2.4,3.1-3.7,4.9-4.9c1.5-1,2.2-2.2,2-4c-0.4-3.1,0.5-6.1,1.3-9c1.4-5.5,2.5-11,2.7-16.6c0.1-3.1,0.9-6,0.8-9.1
	c-0.1-4.4-0.7-8.7-1.4-12.9c-0.7-4.8-0.4-9.7-0.6-14.5c-0.1-3.4,0-6.7-0.7-10.1c-1.1-5.1-0.3-10,3.3-14.1c1.2-1.3,2.1-2.9,2.6-4.6
	c1.7-5.5,4-10.8,6.4-16.1c1-2.2,1.9-4.5,1.8-7c-0.1-1.2,0.4-2.2,1.2-3.1c0.9-1.1,1.7-2.3,1.7-4.2c-1.4-1.4-3.6-1.6-5.3-2.6
	c-2-1.1-3.1-2.5-3.2-4.9c-0.1-3.1-1-6-1.7-9c-2.6-10.8-2.1-21.7,0.2-32.5c1.6-7.7,3.5-15.3,5.4-23c0.4-1.5,1.1-3,1.8-4.4
	c2-3.8,5-5.6,9.4-5s5.1-0.1,5.1-4.7c0-0.5-0.2-1.1,0-1.4c2.7-5,0.4-10.3,0.8-15.5c0.2-3.1,0.2-6.1,1.9-8.8c2.6-4.1,6.1-5.9,10.8-5.8
	c2.7-0.1,5.2,0.9,7.7,2c0.6,0.2,1.3,0.6,1.5,1.1c1.3,3.6,5,6,5.1,10.2c0,1.5,0.7,2.4,1.8,3.3c1.9,1.5,2.5,3.7,2.4,6
	c-0.1,1.6-0.2,3.2-0.1,4.8c0.1,2.3-0.3,3.9-2.6,5.1c-2,1.1-1.8,1.8,0,3.5c0.6,0.6,1.4,1,1.5,1.8c0.1,3.2,2.6,4.2,4.8,5.3
	c3.4,1.8,6.7,3.8,9.2,6.8c0.8,1,1.9,1.8,3.1,2.2c5.2,2,9.1,6,13.4,9.3c1.7,1.3,3.2,2.7,4.4,4.5c1.2,1.9,1,3.1-0.6,4.7
	c-0.7,0.7-1.4,1.3-2.2,1.9c-7.1,4.7-14.2,9.3-22.4,11.9c-3.4,1.1-3.5,1.6-2.1,4.7c1.1,2.3,2.2,4.5,4.4,6.2c3.5,2.8,4.7,7.2,6.1,11.3
	c0.3,0.8,0,1.6-0.6,2.2c-1.1,1.2-2,2.8-3.3,3.5c-3.4,1.8-4,5-4.2,8.1c-0.4,6.2-2.6,11.9-3.6,18c-0.8,5.2-2.3,10.4-3.1,15.6
	c-0.8,5,0.6,9.9,1,14.9c0.6,5.9,0.7,11.8,0.1,17.8c-1.1,10.9-4.9,21.3-6.6,32.1c-0.1,0.8-0.6,1.6-0.5,2.3c0.8,5.8-0.9,11.5-0.2,17.3
	c0.4,3,0.3,6.1-1.5,9.1c-4.1,0-8.3,0-12.4,0c-0.9-1-0.8-2.2-0.5-3c1.7-4.4,1.7-9.1,2.4-13.7c0.6-4.5,2.1-8.7,3.2-13.1
	c1.1-3.9,1.3-8,1.1-12c-1-14.2-1-28.4-1.1-42.6c0-3.2-0.5-6.4-1.2-9.6c-0.8-3.7-0.8-7.3,0-11c1.1-5.5-0.4-10.7-1.2-16.2
	c-3.1,0.7-4.4,3-5.5,4.9c-4.6,8.2-10.7,15.3-16.2,22.8c-2,2.7-3.7,5.6-5.6,8.4c-1.8,2.6-2.4,5.5-1.5,8.3c2.8,9.3,1.7,18.5-0.6,27.6
	c-1.4,5.4-1.8,10.8-2.1,16.2c-0.2,3.9,0,8.4,3,11.9c2.4,2.8,2.9,6.1,2.5,9.8c-0.3,2.7-0.8,5.4-1.2,8.1
	C27.3,246.5,26.8,247.1,25.7,247.3z M73.9,79.3c6.3-1.9,11.6-4.9,15.2-10.6c-6-4.7-11.9-8.7-19.7-9.2c-1.2,1.8-2.9,3.3-3.8,5.4
	c-1.9,4.1-1.8,5.5,1.4,8.5C69.1,75.5,71.4,77.2,73.9,79.3z M30.6,112.4c1.3-1.5,0.7-3.1,0.1-4.5c-0.8-2.2-0.6-4.5-0.3-6.7
	c0.5-3.5,1.3-6.9,2.1-10.4c1.4-6.7-0.6-15-5.3-20.6c-1.5,2.5-2.7,5.9-2.8,8.5c-0.2,5.8,0.2,11.6-0.8,17.4c-0.6,3.4,0.4,6.7,0.8,10.1
	C25.1,111,25.5,111.5,30.6,112.4z"/>
</svg>
