<?xml version="1.0" encoding="utf-8"?>
<!-- Generator: Adobe Illustrator 21.0.2, SVG Export Plug-In . SVG Version: 6.00 Build 0)  -->
<svg version="1.1" id="Layer_1" xmlns="http://www.w3.org/2000/svg" xmlns:xlink="http://www.w3.org/1999/xlink" x="0px" y="0px"
	 viewBox="0 0 507.9 986.7" style="enable-background:new 0 0 507.9 986.7;" xml:space="preserve">
<style type="text/css">
	.st0{fill:url(#SVGID_1_);}
	.st1{fill:url(#SVGID_2_);}
	.st2{fill:url(#SVGID_3_);}
	.st3{fill:url(#SVGID_4_);}
	.st4{fill:url(#SVGID_5_);}
	.st5{fill:url(#SVGID_6_);}
	.st6{fill:url(#SVGID_7_);}
</style>
<g>
	
		<radialGradient id="SVGID_1_" cx="242.6691" cy="646.2961" r="489.7938" gradientTransform="matrix(1 0 0 -1 0 986.1999)" gradientUnits="userSpaceOnUse">
		<stop  offset="0" style="stop-color:#FDE0D2"/>
		<stop  offset="0.4865" style="stop-color:#FDCC6E"/>
		<stop  offset="1" style="stop-color:#FCB445"/>
	</radialGradient>
	<path class="st0" d="M220.9,0.1c13.1,5.1,18.7,15.8,21.2,28.7c1.3,6.6,3.4,12.5,8.8,16.8c14.5,11.6,16.8,27.3,13.3,43.9
		c-2.8,13.2-6,26.5-14,38.1c-4,5.9-8.6,8.3-15.2,8.4c-8.5,0.1-8.5,0.2-10.4,8.4c-0.6,2.4-1.1,4.9-1.4,7.4
		c-0.6,6.4,1.8,11.4,7.5,14.6c4.4,2.5,9.1,4.1,13.9,5.3c11.3,2.8,18.6,11.1,19.2,22.6c0.4,8.3,2.5,15.5,7.8,22.1
		c5.1,6.3,3.3,23.4-2.4,29.2c-2.1,2.2-4,1.2-5.3-0.9c-2.5-3.9-4.7-8-7-12.1c-13.3-23-29.3-44-46.7-64.1
		c-6.4-7.5-13.5-14.2-20.4-21.3c-5.4-5.5-6-7.6-2.1-14c4-6.7,6.1-14,7.6-21.5c1.1-5.5,1-10.8-0.5-16.3c-2-7.2-3.5-14.6-5.1-21.9
		c-1.5-6.8-0.5-13.3,3.2-19.2c2.2-3.6,2.7-7,0.5-10.8c-2-3.5-1.7-7.5-1.3-11.3c0.6-6,1.3-11.9,2.3-17.8c0.7-4.4,3.4-7.6,7.3-9.6
		c3.4-1.8,6.9-3.2,10.4-4.8C214.9,0.1,217.9,0.1,220.9,0.1z"/>
	
		<radialGradient id="SVGID_2_" cx="242.6691" cy="646.2961" r="489.7938" gradientTransform="matrix(1 0 0 -1 0 986.1999)" gradientUnits="userSpaceOnUse">
		<stop  offset="0" style="stop-color:#FDE0D2"/>
		<stop  offset="0.4865" style="stop-color:#FDCC6E"/>
		<stop  offset="1" style="stop-color:#FCB445"/>
	</radialGradient>
	<path class="st1" d="M296.1,466c-0.4,48.8-2.2,87.4-9.5,125.5c-4.7,24.6-11.1,48.7-19.5,72.3c-5.4,15.2-11.2,30.2-16.2,45.6
		c-3.8,11.6-8.3,23.3-15.9,33.4c-3.3,4.3-4.7,9.8-7.4,14.6c-7.2,12.9-15.2,25.4-23.3,37.7c-8.9,13.6-19,26.5-29.8,38.7
		c-5.6,6.4-11.4,12.6-15.7,20c-0.8,1.4-2,2.6-3.2,3.8c-10.8,11.5-22.7,21.8-33.8,32.9c-6.8,6.8-13.9,11.2-23.3,13.2
		c-8.4,1.9-15.9,0.6-23.1-3.3c-20.6-11.2-22.5-33.4-10.7-50.1c9.5-13.3,15.2-16.2,29.2-25.2c10-7,18.7-11.8,22.2-15
		c10-7.7,19.9-15.5,30.2-22.7c5.6-4,10.9-8.6,15.8-13.5c7.8-7.9,15.2-16.3,23.1-24.1c6.3-6.2,11.5-13.4,17.2-20.1
		c3.1-3.7,6.4-7.3,9.3-11.1c4.4-5.6,8.8-11.3,11.4-18.1c4.6-11.8,13.4-20.9,19.3-32c12-22.8,23.1-46,29.8-70.8
		c11.3-41.8,2.4-79.6-24.5-113.6c-13.7-17.2-30.6-31-47.5-44.8c-22.2-18-31.1-41.5-28.8-69.7c1-12.8,4-25,8.8-36.8
		c3.1-7.5,1.9-13.9-4.4-19.4c-3.5-3.1-6.6-6.6-8.7-10.9c-1.4-3-4.2-3.7-7-4.1c-16.5-2.3-32.8-5.7-49-9.5c-13-3-25.7-7-38-12.2
		c-8.9-3.8-10.8-9.3-8.1-19.1c2.7-9.9,7.7-18.8,13.5-27.2c13.9-20,28.3-39.5,41.4-60c4.7-7.4,10.9-13.9,19.1-17.9
		c9.6-4.7,16.6-2.8,24.1,4.9c14.5,15,27.9,30.9,40.3,47.6c18.5,25.1,34.2,52,47.5,80.2c7.3,15.5,14.1,31.3,19.8,47.5
		c9.2,26,15.9,52.6,20.4,79.8C294.5,433.6,296.3,454.8,296.1,466z M172.9,280.9c7.8,0.5,7.9,0.4,5-6.9
		c-5.4-13.9-13.3-26.4-20.5-39.4c-5-9.2-10.3-18.2-15.6-27.3c-1.1-1.9-2.3-4.1-4.9-1.4c-13,13.4-24.9,27.7-36.2,42.5
		c-1.8,2.4-1.4,3.7,1.1,5.1c3.6,2.1,7.2,4.2,10.6,6.6C130.6,272.9,150.5,280.6,172.9,280.9z"/>
	
		<radialGradient id="SVGID_3_" cx="242.6691" cy="646.2961" r="489.7938" gradientTransform="matrix(1 0 0 -1 0 986.1999)" gradientUnits="userSpaceOnUse">
		<stop  offset="0" style="stop-color:#FDE0D2"/>
		<stop  offset="0.4865" style="stop-color:#FDCC6E"/>
		<stop  offset="1" style="stop-color:#FCB445"/>
	</radialGradient>
	<path class="st2" d="M164.9,863.1c-7.3,9.3-25.9,25.7-31.3,32.9c-6.3,8.4-14.1,15.8-15.6,27.2c-1.2,9.4-2.6,18.8-2.2,28.3
		c0.1,3.1,0.7,6,2.2,8.6c4.6,7.8,9.7,15.1,16.8,20.9c3.8,3.1,8.1,4.3,12.8,5c11.2,1.8,21.1,0,31.7-5c13.9-6.6,26.7-14.3,35.4-26.7
		c9.5-13.5,21.4-25.7,26.5-42c0.3-0.9,1-1.7,1.5-2.6c5.3-7.8,8.8-16.6,10.8-25.6c2.6-11.9,7.4-23.2,8.7-35.7c0.7-6.7,4-13.9,5.3-21
		c3.3-17.9,8.5-35.3,10.1-53.7c2.4-27.8,6.7-55.5,9.9-83.3c3.3-29.1,5.5-58.3,8.2-87.5c0.2-2.2,0.7-4.7-1.6-6.7
		c-1.9,1.6-2,3.8-2.4,5.8c-2.2,13.3-5.2,26.5-8.8,39.5c-8.5,30.4-23.5,66.8-31,87.6c-7.5,20.8-22,42-31,60S172.2,853.8,164.9,863.1z
		"/>
	
		<radialGradient id="SVGID_4_" cx="242.6691" cy="646.2961" r="489.7938" gradientTransform="matrix(1 0 0 -1 0 986.1999)" gradientUnits="userSpaceOnUse">
		<stop  offset="0" style="stop-color:#FDE0D2"/>
		<stop  offset="0.4865" style="stop-color:#FDCC6E"/>
		<stop  offset="1" style="stop-color:#FCB445"/>
	</radialGradient>
	<path class="st3" d="M301.6,626.8c1.5,1.9,1.3,3.3,1.3,4.6c-0.2,17.8,0.2,35.6,2.1,53.4c1.9,17.6,5.5,34.8,10.5,51.8
		c9,30.6,22.3,59.2,39.3,86c9.9,15.6,21,30.4,33.4,44.1c7.3,8.1,10,18,10.1,28.5c0.4,22.2-12.2,37.7-27.9,51.1
		c-7.8,6.7-17.9,6.9-27.6,6.2c-13-0.9-25.7-3.7-38.2-7.4c-9.3-2.8-17.5-7.4-21.8-16.8c-0.5-1-1.2-2-2-2.8
		c-14.3-13.7-17.3-31.4-16.9-49.9c0.2-8.5,4.5-16.3,7-24.4c9.5-30.3,15.2-61.4,18.7-92.9c4.3-38.2,7.7-76.5,9.3-114.9
		C299.3,638.1,299,632.5,301.6,626.8z"/>
	
		<radialGradient id="SVGID_5_" cx="242.6691" cy="646.2961" r="489.7938" gradientTransform="matrix(1 0 0 -1 0 986.1999)" gradientUnits="userSpaceOnUse">
		<stop  offset="0" style="stop-color:#FDE0D2"/>
		<stop  offset="0.4865" style="stop-color:#FDCC6E"/>
		<stop  offset="1" style="stop-color:#FCB445"/>
	</radialGradient>
	<path class="st4" d="M507.9,841.4c-0.2,16.7-9.4,28.2-23.2,35.3c-18.7,9.5-38.6,12.4-59,4.8c-9-3.4-16.3-9.7-23.6-15.7
		c-20.2-16.7-34.3-38.3-47.6-60.4c-21.2-35.4-34.1-74-42-114.3c-1.9-9.9-3.1-20-4.6-30.1c-0.1-0.8-0.2-1.7-0.1-2.5
		c0.1-1.7-0.7-4.3,1.6-4.7c2.4-0.4,2.5,2.2,3,3.9c2,7,4.2,14,6.7,20.9c10.5,30.4,26.7,57.5,49.4,80.1c22,22,48.4,36.7,79.4,42.5
		c11.6,2.1,22.9,6,34.7,7.2c1.1,0.1,2.3,0.6,3.2,1.3c8.6,6.6,17.2,13.2,21.1,24C507.7,836.1,508,838.7,507.9,841.4z"/>
	
		<radialGradient id="SVGID_6_" cx="242.6691" cy="646.2961" r="489.7938" gradientTransform="matrix(1 0 0 -1 0 986.1999)" gradientUnits="userSpaceOnUse">
		<stop  offset="0" style="stop-color:#FDE0D2"/>
		<stop  offset="0.4865" style="stop-color:#FDCC6E"/>
		<stop  offset="1" style="stop-color:#FCB445"/>
	</radialGradient>
	<path class="st5" d="M62.7,826.3c-5.8,4.8-13,5.6-19.8,6.9c-20.5,4-39.8-8.1-42.4-29.2c-1.7-13.5,1.1-21.7,13.4-29.9
		c12.5-8.2,35.6-12.8,48-16c31-8,47.1-12.2,75-28c23-13,44.8-23,60.4-39.9c1.9-2.1,4.3-3.7,6.4-5.6c15.1-14.1,27.9-30.2,39-47.7
		c1.7-2.7,3.7-5.1,5.6-7.7c0.6-0.8,1.2-1.6,1.7-2.4c0.5,0.3,12.4-22,12.9-21.7c-2.3,10.6-14,39.4-21,51c-5.3,10.3-13,22.1-18.8,32.2
		c-4.5,8-11.1,14.5-16.2,22.1c-8.7,13.1-21.6,22.4-31.3,34.6c-5.9,7.4-14.4,12.7-21.7,19c-7.8,6.7-28,22.1-40,31.1"/>
	
		<radialGradient id="SVGID_7_" cx="242.6691" cy="646.2961" r="489.7938" gradientTransform="matrix(1 0 0 -1 0 986.1999)" gradientUnits="userSpaceOnUse">
		<stop  offset="0" style="stop-color:#FDE0D2"/>
		<stop  offset="0.4865" style="stop-color:#FDCC6E"/>
		<stop  offset="1" style="stop-color:#FCB445"/>
	</radialGradient>
	<path class="st6" d="M6.8,731.7c3.4-13.7,6.2-29,22.7-36.6c5.7-2.6,11.2-1.4,16.6-0.9c17,1.8,33.9,0.7,50.8-1.6
		c33.6-4.6,64.8-16.2,93.8-33.7c17-10.2,32.8-22.1,47.8-35.1c0.5-0.4,1-0.9,1.5-1.3c1.1-0.8,2.3-1.7,3.6-0.5
		c1.3,1.2,0.2,2.5-0.4,3.6c-4.2,7.1-9.6,13.2-14.9,19.4c-15.8,18.8-33.5,35.4-52.9,50.6c-31.3,24.5-66.4,40.7-104.7,50.9
		c-8.2,2.2-16.3,4.6-24.7,5.9c-1.1,0.2-2.3,0.6-3.3,1.1c-10.5,4.9-25.6,0.7-32.2-9C8.1,741,7.2,737.2,6.8,731.7z"/>
</g>
</svg>
