<?xml version="1.0" encoding="utf-8"?>
<!-- Generator: Adobe Illustrator 21.0.2, SVG Export Plug-In . SVG Version: 6.00 Build 0)  -->
<svg version="1.1" id="Layer_1" xmlns="http://www.w3.org/2000/svg" xmlns:xlink="http://www.w3.org/1999/xlink" x="0px" y="0px"
	 viewBox="0 0 64 250" style="enable-background:new 0 0 64 250;" xml:space="preserve">
<style type="text/css">
	.st0{fill:#999999;}
</style>
<g>
	<path class="st0" d="M27,191.6c-2.7,9.2-4.3,17.9-3.4,27c0.2,2.6,1.9,4.6,3.1,6.9c0.7,1.2,1,2.3,0.6,3.7c-0.9,3.5-1.8,7-2,10.7
		c-0.1,0.8-0.2,1.8-1.3,1.6c-0.9-0.1-0.8-1.1-0.8-1.7c0-1.5,0.1-3,0-4.5c0-0.5,0-1.1-0.6-1.3c-0.7-0.2-1.1,0.4-1.4,0.9
		c-1.1,1.7-1.4,3.8-1.9,5.7c-1.3,4.7-2.9,6.1-7.9,6.3c-0.9,0-1.8,0.1-2.7,0c-1.2,0-2.6,0.5-3.3-0.9c-0.8-1.5,0.3-2.7,1-3.9
		c0.3-0.5,0.8-0.9,1.3-1.3c2.2-2.2,3.7-4.5,4.1-7.8c1.7-13.9,2.3-27.7,0-41.5c-1.1-6.4-1.6-13-1.5-19.6c0.1-3.8-1.1-7.5-1.4-11.3
		c-0.2-2-0.8-4.5-3.3-5.8c-1.2-0.6-1.1-2.4-1.1-3.6c-0.5-9.5-3.2-18.7-4.1-28.1c-1-10.6-0.2-21,3-31.1c0.7-2.4,2.5-4.4,3.5-6.7
		c2.1-4.6,5.2-9,2.6-14.7c-1.4-3.1,0.6-6.3,2.8-8.8c1.7-2,2.9-3.8,1.9-6.5c-0.5-1.5,0.3-2.7,1.4-3.8c1.9-1.8,3.7-3.8,5-6.1
		c1.2-2.1,1.7-4.1-0.7-6.1C15,35,12.1,29.1,8.6,23.7c-1.5-2.2-0.8-5.1-0.2-7.3C10,11.1,12.6,6.2,17.5,3c3.6-2.4,6.7-3.3,11.4-1.7
		c4.4,1.6,6.8,4.8,9.8,7.5c2.3,2,2.6,4.6,1.4,7.7c-1.2,3.2-1.6,6.7-2.1,10.2c-0.3,1.9-0.4,3.8-1.9,5.2c-0.6,0.5-1.4,1.1-0.8,2
		c0.5,0.8,1.4,1,2.4,1c6.4-0.1,6.9,0.5,9.4,6.4c4.2,9.9,3.9,20.2,3.6,30.6c0,0.5-0.2,1-0.1,1.5c2.2,12.5-2.8,23.7-6.2,35.2
		c-1.3,4.4-2.7,8.6-2.3,13.3c0.4,5.6-0.4,10.9-5.4,14.4c-1.3,0.9-1.2,2-1.2,3.1c0,4.4,0,8.9,0,13.3c0,1.5-0.2,2.8-2,3.3
		c-1.1,0.3-1.6,1.2-1.7,2.3c-0.3,6.4-0.4,12.4,5.1,17.5c7.4,6.9,9.9,16.7,13.6,25.7c1.1,2.6,2,5.3,2.8,8c1.6,6,5,11,8.1,16.1
		c0.7,1.1,1.2,2.3,0.7,3.4c-1.5,3.4-1.1,6.9-1.2,10.4c0,1.4,0.4,3-1.9,3.1c-0.2,0-0.5,0.8-0.7,1.2c-1.9,4.2-8.9,7.1-13.1,5.3
		c-1.4-0.6-1.4-1.7-1.3-3c0.4-2.8,1.8-5.1,3-7.6c3.6-7.7,2.8-15-1.3-22.2s-9.8-13.3-14.9-19.8C29.7,195,28.5,193.5,27,191.6z
		 M38,103.5c1.4-7.4,2.7-14.3,3.9-21.2c0.2-1.2,0.2-2.5-1-3.5C35.5,86.4,33.1,94.2,38,103.5z"/>
</g>
</svg>
