<?xml version="1.0" encoding="utf-8"?>
<!-- Generator: Adobe Illustrator 21.0.2, SVG Export Plug-In . SVG Version: 6.00 Build 0)  -->
<svg version="1.1" id="Layer_1" xmlns="http://www.w3.org/2000/svg" xmlns:xlink="http://www.w3.org/1999/xlink" x="0px" y="0px"
	 viewBox="0 0 81.3 247.1" style="enable-background:new 0 0 81.3 247.1;" xml:space="preserve">
<style type="text/css">
	.st0{fill:#999999;}
</style>
<g>
	<path class="st0" d="M41.9-0.1c6,0,11.2,3.8,12.3,8.9c0.8,3.5,1.3,7.2,1.3,10.9c0.1,4.1,0.1,8.2,0.3,12.2c0,1.6,0.4,3.3,0.5,4.9
		c0.2,2.2,1.7,3.3,3.1,4.4c1.9,1.6,3.4,3.4,4.6,5.5c3.1,5.3,5.4,10.9,8.9,15.9c3,4.2,5.4,8.8,7.4,13.5c0.7,1.6,1.2,3.1,0.8,4.8
		c-0.2,0.7-0.4,1.3-0.8,1.8C76.6,88,72.5,92.8,68,97.5c-1.5,1.6-2.9,3.1-4.3,4.7c-2,2.2-2.8,4.9-2.9,7.8c-0.2,3.1-0.1,6.2-0.4,9.2
		c-0.1,1.5-0.8,2.8-1.3,4.1c-1.2,3.3-1.7,6.7-2.7,10.1c-1.3,4-2.4,8.2-3.4,12.3c-0.9,4.2-2.8,8-4.4,12c-1.7,4.1-2.4,8.3-2,12.8
		c0.1,1,0.5,1.9,0.8,2.8c1.9,5.8,2.6,11.8,2.6,17.9c0,6.3,0.1,12.6,1.8,18.8c0.3,1,0.7,1.9,1.4,2.7c1.6,1.8,1.9,4,1.4,6.3
		c-0.4,1.5-0.8,3-1.5,4.4c-1.2,2.7-1.5,5.5-1.6,8.4c0,0.9,0,1.9-0.1,2.7c-0.1,1.9,0,3.8-2,4.9c-0.3,0.1-0.4,0.5-0.6,0.7
		c-2.1,2.7-5.3,2.8-7.7,0.4c-2.3-2.3-2.3-5.1-1.9-7.9c0.3-2.3,1-4.5,2-6.6c2.3-5,2.4-10.1,0.8-15.3c-0.5-1.6-0.8-3.4-1.6-5
		c-0.2-0.4-0.3-0.8-0.8-0.7c-0.4,0-0.5,0.4-0.6,0.8c-0.7,2.7-2,5.1-2.8,7.8c-0.8,2.6-1.2,5.1,0.1,7.7c0.5,1,0.1,2-0.1,3
		c-0.4,1.6-1.1,3.1-1.6,4.6c-0.6,1.6-0.8,3.3-1.1,5c-0.6,3.2-0.8,6.6-2.2,9.7c-0.4,0.8-0.9,1.4-1.9,1.7c-1.2,0.4-2.4,1-3.6,1.5
		c-2.6,1.2-4.8-0.8-5.5-2.7c-1.1-3-1.3-5.9,0.4-8.8c1.6-2.6,1.6-5.6,2-8.4c0.8-4.8,2.1-9.5,3.9-14c1.3-3.4,1.8-6.9,2.1-10.5
		c0.6-6,0.6-12.1,1.5-18.1c0.5-3.4,1.2-6.9,1-10.3c-0.4-5-0.7-10.1-2.7-14.8c-1.1-2.5-2.6-4.8-3.9-7.2c-1.5-2.7-2.5-5.6-3.5-8.5
		c-0.4-1.2-1.1-2.3-1.6-3.5c-1.6-3.6-2.6-7.4-3.8-11.2c-0.2-0.6-0.4-1.2-0.6-1.7c-0.1-0.4-0.2-0.8-0.8-0.3c-0.4,0.3-0.6,0-0.7-0.4
		c-0.1-0.4-0.2-0.8-0.3-1.2c-0.3-1.2-0.5-2.2-1.4-3.1c-0.7-0.7-0.8-1.8-1.1-2.7c-0.9-3-1.5-6.1-2-9.1c-0.9-5-2.6-9.7-4.2-14.5
		C2.7,90.9,1,86,0.3,80.9c-0.7-4.9-0.2-9.6,1.6-14.2c0.6-1.5,1.2-2.9,1.8-4.3c1.7-3.5,3.1-7.1,4-10.9c0.8-3.6,2.4-7,3.9-10.4
		c0.8-2,2.5-3.4,4.1-4.8c0.8-0.8,1.7-1.5,2.6-2.2c1.2-0.9,2-1.9,2.5-3.3c0.8-2.2,2.3-4.1,3.2-6.2c1.6-3.7,2.9-7.5,4.2-11.3
		c1-3,2.4-5.8,4.1-8.4C34.6,1.4,37.8-0.2,41.9-0.1z M48.9,77.6c0.1,2.3,0.5,4.7,1.8,6.9c2.5,4.2,4.6,8.6,6.4,13.2
		c0.3,0.6,0.3,1.7,0.9,1.7c0.6,0,0.8-1,1.1-1.6c3.9-5.8,6.8-12.1,9.7-18.5c0.2-0.5,0.2-0.9,0-1.4c-0.7-1.2-1.4-2.4-2.2-3.5
		c-2.2-3.1-4.7-6-7-9.1c-1-1.3-2.3-2-3.9-2c-1,0-2.2-0.7-2.9,0c-0.7,0.6-0.8,1.8-1.2,2.8C50.1,69.7,49,73.4,48.9,77.6z M13,99.2
		c0.4-0.4,0.4-0.8,0.4-1c1.3-7.6,1.9-15.3,1-23c-0.2-2-0.3-4-0.8-6c-0.1-0.4-0.2-0.9-0.7-1c-0.5,0-0.6,0.4-0.8,0.8
		c-0.8,1.9-1.7,3.9-2.4,5.9c-0.3,0.8-0.3,1.5-0.1,2.3c0.8,4.1,1.4,8.3,2,12.4C12,92.8,12.5,95.9,13,99.2z M37.2,139.5
		c0.3-0.9,0.5-1.9,0.8-2.8c0.2-0.8,0.5-1.5,0.4-2.3c-0.1-0.3,0-0.8-0.5-0.8c-0.4,0-0.4,0.4-0.4,0.8C37.1,136,36.9,137.7,37.2,139.5z
		"/>
</g>
</svg>
