<?xml version="1.0" encoding="utf-8"?>
<!-- Generator: Adobe Illustrator 21.0.2, SVG Export Plug-In . SVG Version: 6.00 Build 0)  -->
<svg version="1.1" id="Layer_1" xmlns="http://www.w3.org/2000/svg" xmlns:xlink="http://www.w3.org/1999/xlink" x="0px" y="0px"
	 viewBox="0 0 68 250" style="enable-background:new 0 0 68 250;" xml:space="preserve">
<style type="text/css">
	.st0{fill:url(#SVGID_1_);}
</style>
<g>
	<radialGradient id="SVGID_1_" cx="13" cy="37.9133" r="105.9481" gradientUnits="userSpaceOnUse">
		<stop  offset="0" style="stop-color:#F074AC"/>
		<stop  offset="0.5" style="stop-color:#EB008B"/>
		<stop  offset="1" style="stop-color:#CD118C"/>
	</radialGradient>
	<path class="st0" d="M52.9,26.3c-0.8,3.2,0.2,7.3,0.1,11.3c-0.1,3,0.8,6,3,8.1c3.8,3.8,4.3,8.6,3.8,13.2c-1,9.8,0,19.2,2.8,28.5
		c2.6,8.7,3.1,17.6,4.6,26.5c0.8,5.3-0.5,10.4-1.4,15.5c-0.7,3.9-3.2,6.2-6.9,6.5c-2.4,0.2-3.1,1.4-3.5,3.1
		c-2.9,11.4-6.7,22.5-5.8,34.6c0.5,7.2-1,14.4-4,21c-2.5,5.4-2.8,10.8-1.5,16.2c1.9,8.1,3.1,16.3,5.3,24.4c2,7.6-2.5,13.7-12,13.6
		c-1,0-1.9-0.3-2.5-1.2c-0.4-0.7-0.8-1.6-1.7-1.5c-5,0.6-6.8-2.4-8.1-6.5c-1.3-3.9-1.4-7.2,0.2-11.2c2.9-7.2,4.9-14.9,6.9-22.4
		c1-3.7,0.3-7.4-0.7-11.1c-2.6-9-4.2-18.2-0.7-27.4c0.6-1.4,0.3-2.8,0-4.3c-1.4-7-3.8-13.5-7.3-19.7c-2.6-4.5-3.8-9.7-7.6-13.6
		c-1.3-1.4-0.4-4.2-1.6-6c-0.3-0.4-0.8-0.8-1.2-0.8c-0.9,0.1-0.6,0.9-0.6,1.5c-0.1,1.3,2.2,2.5,0.1,3.7c-1.8,1-3.1-0.4-4.3-1.4
		c-3.2-2.5-5.2-5.6-5.4-9.9c-0.3-7.5-0.8-15-1.6-22.5c-0.6-5-0.4-10.1,0.6-15.1c2.1-9.7,3.9-19.5,6.1-29.2c1.2-5.2,3-10.1,8.1-13.4
		c4.3-2.8,4.7-8.1,5.3-12.7c0.5-4.3,1.6-8.3,3-12.3c2-6,7.5-10.7,12.1-10.7C43.1,1.2,49,5.3,51.4,11.4C53.1,16,52.9,20.7,52.9,26.3z
		 M16.4,84.4c0.1-3.9,0.1-7.6-1.7-10.9c-0.2-0.4-0.3-1-0.6-1.1c-0.6-0.3-0.8,0.4-0.9,0.8C10.6,82.5,9,92,8.4,101.7
		c-0.2,3.5,0.8,6.8,2.9,9.6c0.4,0.6,0.9,1.6,1.9,1.1c0.3-0.2,0.4-1.2,0.4-1.8c-0.4-5.1,0.5-10,1.7-14.9C16.1,92,16.7,88.1,16.4,84.4
		z M60.4,132.4c0-0.9-0.5-1.3-1.1-1.5c-0.7-0.2-1.2,0.3-1.2,1c-0.1,0.7,0.2,1.3,1,1.3C59.7,133.2,60.3,133,60.4,132.4z M36.2,237.1
		c0.5-0.1,0.8-0.4,0.8-0.9c-0.1-0.6-0.1-1.3-0.9-1.3c-0.5,0-0.8,0.4-0.8,0.9C35.2,236.5,35.4,237.1,36.2,237.1z M14.8,67.4
		c-0.2,0.2-0.5,0.5-0.5,0.7c0,0.2,0.3,0.5,0.4,0.8c0.2-0.2,0.5-0.5,0.5-0.7C15.3,67.9,15,67.7,14.8,67.4z"/>
</g>
</svg>
