<?xml version="1.0" encoding="utf-8"?>
<!-- Generator: Adobe Illustrator 21.0.2, SVG Export Plug-In . SVG Version: 6.00 Build 0)  -->
<svg version="1.1" id="Layer_1" xmlns="http://www.w3.org/2000/svg" xmlns:xlink="http://www.w3.org/1999/xlink" x="0px" y="0px"
	 viewBox="0 0 260 210" style="enable-background:new 0 0 260 210;" xml:space="preserve">
<g>
	<path d="M18.5,182.8c7.9-6,17-8.9,26.3-11.5c4.8-1.4,9.6-2.4,14.4-3.4c1-0.2,1.1-0.5,0.7-1.4c-3.7-8.9-6.5-18.1-8.9-27.5
		c-3.3-12.5-5.7-25.2-7.4-38.1c-0.7-5.1-1.1-10.2-1.5-15.4c0-0.7,0.2-1,0.9-1.1c0.4,0,0.8-0.1,1.3-0.2c1.6-0.4,1.6-0.4,2.1,1.1
		c3.9,10.8,6.8,21.9,9.2,33.1c2.1,9.6,3.7,19.3,4.8,29.1c0.6,5.3,1.1,10.6,1.2,15.9c0,0.9,0.1,1.8,0.2,2.8c0,0.8,0.3,0.9,1.1,0.8
		c3.5-0.6,6.9-1.3,10.4-1.8c4.2-0.7,8.5-1.3,12.8-1.9c1.4-0.2,1.5-0.3,1.1-1.6c-3-11.7-4.9-23.6-6.4-35.6
		c-0.9-7.5-1.6-15.1-2.1-22.6c-0.8-10.7-0.9-21.3-0.8-32c0-2.7,0.3-5.4,0.4-8.1c0-0.6,0.1-1.1,0.9-1.2c0.8,0,1.4-0.2,1.7,0.9
		c1.1,4.7,2.1,9.5,3,14.3c1.6,8.7,2.8,17.4,3.7,26.2c0.7,7.3,1.4,14.6,1.7,21.9c0.2,3.9,0.3,7.9,0.4,11.8c0.1,2.7,0.2,5.3,0.1,8
		c-0.1,5.5-0.2,11-0.7,16.5c0,0.7,0,1,0.8,0.9c6.1-0.8,12.1-1.4,18.2-1.9c8.2-0.6,16.3-1.3,24.5-1.2c5.1,0.1,10.1,0.5,15.2,1
		c5.6,0.5,11.2,1.1,16.8,1.8c1.6,0.2,3.2,0.4,4.9,0.6c1.5,0.2,1.5,0.1,1.4-1.3c-0.3-3.3-0.5-6.5-0.7-9.8c-0.3-4.6-0.1-9.1-0.2-13.7
		c-0.1-5.4,0.2-10.9,0.5-16.3c0.5-8.6,1.2-17.2,2.2-25.8c1.3-10.5,2.9-20.9,5.1-31.3c0.2-0.9,0.5-1.3,1.5-1.2
		c2.3,0.3,2.3,0.2,2.4,2.5c0.1,4.2,0.3,8.3,0.2,12.5c-0.1,7.7-0.4,15.4-1,23.1c-0.5,7.1-1.2,14.1-2,21.1c-1,7.8-2.1,15.6-3.6,23.4
		c-1,5.3-2.2,10.6-3.7,15.8c-0.3,0.9,0,1.2,0.9,1.3c7.6,1,15.2,2.3,22.7,3.7c0.3,0.1,0.6,0.1,0.8,0.2c0.7,0.2,1,0,1-0.8
		c0.5-13.5,2.2-26.9,4.7-40.2c2.7-14.7,6.2-29.2,11-43.3c0.5-1.5,0.5-1.5,2-1.1c0.2,0.1,0.5,0.1,0.7,0.2c1.7,0.3,1.8,0.3,1.6,2.1
		c-0.4,5.5-1,10.9-1.7,16.3c-1.9,13.5-4.6,26.9-8,40.2c-2.3,8.7-4.9,17.4-8.2,25.8c-0.5,1.3-0.5,1.4,0.9,1.7
		c9.2,1.9,18.4,4.1,27.4,7.1c4.1,1.3,8,2.9,11.8,4.9c0.4,0.2,0.8,0.6,1.1,0.4c0.4-0.3,0.1-0.8,0-1.2c-0.1-3.2-0.1-6.4,0.2-9.6
		c0.9-8.6,3-17,6.3-25.1c1.8-4.4,3.9-8.5,6.7-12.3c0.2-0.3,0.3-0.8,0.7-0.6c0.4,0.1,0.3,0.6,0.3,0.8c0.3,3.8,0.3,7.5-0.1,11.3
		c-0.9,8.5-3.1,16.8-6.4,24.7c-1.7,4.2-3.8,8.2-6.4,11.9c-0.5,0.7-0.3,0.9,0.3,1.3c2.2,1.4,4.3,2.9,5.9,5c2.5,3.4,2.3,7.3-0.6,10.4
		c-2.5,2.7-5.5,4.5-8.7,6c-5.9,2.7-12.1,4.7-18.3,6.3c-0.2,0-0.3,0.1-0.6-0.1c0.5-0.2,1-0.4,1.4-0.6c5-2,10.1-4.1,14.8-6.8
		c2.8-1.6,5.6-3.3,7.9-5.6c0.3-0.3,0.6-0.7,0.9-1c2-2.6,1.7-4.9-0.8-7.1c-2.3-2-5-3.3-7.8-4.4c-7.5-3-15.4-4.9-23.3-6.6
		c-11.7-2.4-23.6-4.3-35.5-5.8c-8.3-1-16.5-1.9-24.8-2.7c-8.9-0.8-17.8-1.7-26.8-1.4c-5.8,0.2-11.6,0.5-17.3,1
		c-4.7,0.4-9.5,0.7-14.2,1.2c-5.9,0.6-11.9,1.2-17.8,1.9c-8.9,1.1-17.8,2.4-26.5,4.2c-7.4,1.6-14.8,3.2-21.8,6.2
		c-2.8,1.2-5.4,2.5-7.8,4.4c-0.3,0.2-0.6,0.5-0.9,0.8c-2.5,2.7-2.6,5.3-0.4,8.4c2.2,3.1,5.3,5.4,8.4,7.5c3.3,2.2,6.7,4.1,10.2,6
		c0.4,0.2,0.8,0.3,1.2,0.9c-2.1-0.8-4.1-1.6-5.9-2.4c-4.6-1.9-9-4.1-12.9-7.2c-1.5-1.1-2.8-2.4-3.9-4c-2.8-4-2.6-8.4,0.8-12
		c0.7-0.7,0.8-1.1,0.2-1.9c-3.9-5.5-6.5-11.6-8.5-18c-1.9-6-3.1-12.1-3.6-18.3c-0.2-3.5-0.3-7,0.2-10.4c0-0.3,0-0.8,0.3-0.9
		c0.4-0.1,0.5,0.4,0.7,0.7c4.4,6.1,7.1,12.9,9.1,20.1c1.7,6,2.8,12,3.1,18.3c0.1,2.6,0,5.3-0.2,7.9
		C18.4,182.1,18.3,182.4,18.5,182.8z"/>
	<path d="M131.5,159.1c-0.4-2.1-0.7-4.2-0.9-6.2c-0.5-4.6-1-9.1-1.4-13.7c-0.3-3.3-0.5-6.5-0.7-9.8c-0.4-6.8-0.8-13.6-1-20.3
		c-0.2-6.8-0.4-13.7-0.3-20.5c0-5.9-0.1-11.7,0.1-17.6c0.2-7.7,0.5-15.3,0.9-23c0.3-6.5,0.9-13,1.4-19.6c0.1-1.3,0.3-2.5,0.4-3.8
		c0.1-0.6,0.3-0.9,0.9-0.8c2.3,0.1,2.3-0.5,2.6,2.3c0.6,5.7,1,11.4,1.4,17.1c0.2,2.7,0.3,5.4,0.5,8.1c0.3,8.5,0.6,17,0.7,25.6
		c0.1,5.2,0.1,10.5,0.1,15.7c0,6.1-0.2,12.3-0.4,18.4c-0.3,6.9-0.6,13.7-1.1,20.5c-0.6,9-1.4,17.9-2.7,26.8
		C131.9,158.5,131.9,158.9,131.5,159.1z"/>
	<path d="M112.9,39c1.3,3.7,2,7.5,2.7,11.4c4.7,26,6.3,52.3,5.7,78.7c-0.2,6.9-0.6,13.9-1.8,20.7c-4.1-15.9-6.1-32-7.3-48.3
		C110.7,80.7,110.3,59.9,112.9,39z"/>
	<path d="M147.2,41.2c2.4,14.2,2.8,28.5,2.7,42.9c-0.3,21.5-1.9,42.8-6.8,63.9c-2.9-17.7-3.1-35.6-2.4-53.5
		C141.4,76.5,143,58.7,147.2,41.2z"/>
	<path d="M157.2,140.7c-0.4-0.1-0.4-0.3-0.5-0.5c-2.1-13.1-2.5-26.3-2.1-39.4c0.6-18.4,2.2-36.7,7-54.6c0.1-0.2,0.1-0.5,0.5-0.7
		c2.1,12.5,2.6,25.1,2.2,37.7C163.8,102.7,162.1,121.9,157.2,140.7z"/>
	<path d="M97.5,48.2c2.4,8,3.9,16.2,4.9,24.5c4.1,32.5,2.4,59.8,0,70.7c-2.3-7.6-3.6-15.5-4.7-23.3c-1.1-8-1.8-16-2.2-24
		c-0.5-8-0.4-16-0.3-24C95.4,64.1,96,56.1,97.5,48.2z"/>
	<path d="M217.4,154.8c-0.5-1.9-0.6-3.6-0.7-5.3c-0.7-11.5,1.2-22.7,4.7-33.6c1.5-4.7,3.4-9.2,6-13.4c0.2-0.3,0.3-0.9,0.8-0.8
		c0.4,0.1,0.3,0.7,0.4,1c0.7,4.6,0.7,9.3,0.4,13.9c-0.4,6.1-1.5,12.1-3,18c-1.7,6.3-3.8,12.4-7.1,18.1
		C218.5,153.4,218.1,154.1,217.4,154.8z"/>
	<path d="M43,148.6c0.1,1.8-0.1,4.9-0.7,7.8c0,0.3,0,0.7-0.3,0.7c-0.3,0.1-0.4-0.3-0.6-0.5c-2.7-4.2-4.6-8.8-6.2-13.6
		c-2.6-8-4.2-16.2-4.6-24.7c-0.2-3.8,0-7.5,0.5-11.3c0.1-0.4-0.1-1.1,0.5-1.2c0.4-0.1,0.6,0.6,0.8,0.9c3.1,5.1,5.2,10.6,6.9,16.3
		C41.6,131.1,43,139.2,43,148.6z"/>
	<path d="M196.7,108.6c-0.2,11.5-2.1,22.7-6.7,33.4c-0.5,1.2-1.1,2.3-1.7,3.4c-0.1,0.2-0.2,0.5-0.5,0.5c-0.3-0.1-0.3-0.4-0.3-0.6
		c-0.7-2.7-1-5.4-1.2-8.1c-0.7-11.9,0.9-23.4,4.8-34.6c0.9-2.5,2-5,3.2-7.3c0.2-0.3,0.3-0.8,0.7-0.7c0.4,0.1,0.4,0.6,0.4,0.9
		C196.3,99.8,196.7,104.2,196.7,108.6z"/>
	<path d="M62.5,111.3c0-4.1,0.3-8.2,1.2-12.3c0.1-0.3,0-0.8,0.4-0.9c0.4-0.1,0.5,0.4,0.7,0.7c2.9,5.1,4.7,10.5,6,16.1
		c1.4,6.1,2.3,12.2,2.4,18.5c0.1,4.6-0.1,9.2-1.1,13.8c0,0.2-0.1,0.4-0.1,0.5c-0.1,0.3,0,0.7-0.4,0.8c-0.3,0-0.4-0.4-0.5-0.6
		c-1.4-2.4-2.5-4.9-3.5-7.6c-2.8-7.7-4.4-15.7-4.9-23.8C62.6,114.7,62.5,113,62.5,111.3z"/>
	<path d="M132,0c5.6,0,10.1,4.6,10.1,10.1c-0.1,5.6-4.5,10-10.2,10c-5.6,0-10-4.5-10-10.1C121.9,4.4,126.3,0,132,0z"/>
	<path d="M244.9,120c-0.5,4.3-1.2,8.3-2.2,12.3c-1.8,6.8-4.1,13.4-7.5,19.6c-1.2,2.3-2.5,4.5-4.1,6.5c-0.2,0.3-0.4,0.8-0.8,0.7
		c-0.4-0.1-0.3-0.6-0.3-0.9c-0.3-3.2-0.2-6.5,0.1-9.7c0.9-8.4,3-16.6,6.1-24.4c0.8-1.9,1.6-3.8,2.5-5.6c0.4-0.7,0.7-0.8,1.4-0.4
		c1.1,0.7,2.4,1,3.6,1.1C244.7,119.2,245,119.5,244.9,120z"/>
	<path d="M29.7,155.3c0,2.1,0,3.9-0.2,5.7c0,0.3,0,0.7-0.4,0.8c-0.3,0.1-0.4-0.3-0.6-0.5c-3.1-4-5.3-8.4-7.1-13.1
		c-3-7.5-4.9-15.4-5.6-23.5c0-0.1,0-0.1,0-0.2c0-0.9-0.2-1.9,0.1-2.7c0.4-0.9,1.6-0.4,2.4-0.7c0.7-0.3,1.5-0.9,2.1-0.5
		c0.7,0.5,1,1.4,1.4,2.2c3.5,7.1,5.8,14.5,7.1,22.3C29.4,148.6,29.8,152.1,29.7,155.3z"/>
	<path d="M35.8,74.8c0-3.4,2.8-6.2,6.2-6.2c3.3,0,6.2,2.9,6.2,6.2c0,3.3-2.9,6.2-6.3,6.1C38.7,80.9,35.8,78.1,35.8,74.8z"/>
	<path d="M244.8,115.6c-3.3,0-6.1-2.9-6.1-6.1c0-3.4,2.8-6.2,6.2-6.2c3.3,0,6.1,2.8,6.2,6.1C251.1,112.8,248.2,115.6,244.8,115.6z"
		/>
	<path d="M186.8,54.3c0,3.3-2.9,6.1-6.3,6.1c-3.2,0-6.1-3-6.1-6.3c0.1-3.3,3-6.1,6.2-6.1C184,48.1,186.8,51,186.8,54.3z"/>
	<path d="M9.8,111.7c0-3.5,2.7-6.2,6.2-6.2c3.4,0,6.1,2.7,6.1,6.1c0,3.4-2.8,6.3-6.2,6.2C12.5,117.8,9.8,115,9.8,111.7z"/>
	<path d="M85,52.7c0,3.4-2.9,6.1-6.3,6.1c-3.3,0-6.1-2.9-6.1-6.2c0-3.3,3-6.2,6.3-6.1C82.2,46.5,85,49.3,85,52.7z"/>
	<path d="M223.6,72.6c0,3.4-2.7,6.2-6,6.2c-3.4,0-6.2-2.7-6.2-6.1c0-3.4,2.8-6.2,6.1-6.2C220.8,66.5,223.6,69.3,223.6,72.6z"/>
</g>
</svg>
